<?xml version="1.0" encoding="utf-8"?>
<!-- Generator: Adobe Illustrator 19.0.0, SVG Export Plug-In . SVG Version: 6.00 Build 0)  -->
<svg version="1.1" id="Layer_1" xmlns="http://www.w3.org/2000/svg" xmlns:xlink="http://www.w3.org/1999/xlink" x="0px" y="0px"
	 viewBox="0 0 40 40" style="enable-background:new 0 0 40 40;" xml:space="preserve">
<style type="text/css">
	.Drop_x0020_Shadow{fill:none;}
	.Round_x0020_Corners_x0020_2_x0020_pt{fill:#FFFFFF;stroke:#000000;stroke-miterlimit:10;}
	.Live_x0020_Reflect_x0020_X{fill:none;}
	.Bevel_x0020_Soft{fill:url(#SVGID_1_);}
	.Dusk{fill:#FFFFFF;}
	.Foliage_GS{fill:#FFDD00;}
	.Pompadour_GS{fill-rule:evenodd;clip-rule:evenodd;fill:#44ADE2;}
	.st0{fill:url(#XMLID_37_);}
	.st1{fill:#A1343A;}
	.st2{fill:#BE202E;}
	.st3{fill:#029CB5;}
	.st4{fill:url(#XMLID_38_);}
	.st5{fill:url(#XMLID_41_);}
	.st6{fill:url(#XMLID_42_);}
	.st7{fill:url(#XMLID_84_);}
	.st8{fill:url(#XMLID_85_);}
	.st9{fill:url(#XMLID_86_);}
	.st10{fill:url(#XMLID_87_);}
	.st11{fill:url(#XMLID_88_);}
	.st12{fill:url(#XMLID_89_);}
	.st13{fill:url(#XMLID_90_);}
	.st14{fill:url(#XMLID_91_);}
	.st15{fill:url(#XMLID_92_);}
	.st16{fill:url(#XMLID_93_);}
	.st17{fill:url(#XMLID_94_);}
	.st18{fill:url(#XMLID_95_);}
	.st19{fill:url(#XMLID_96_);}
	.st20{fill:#5A5A5A;}
	.st21{fill:#7B7B7B;}
	.st22{fill:url(#XMLID_97_);}
	.st23{fill:url(#XMLID_98_);}
	.st24{fill:url(#XMLID_99_);}
	.st25{fill:url(#XMLID_100_);}
	.st26{fill:url(#XMLID_101_);}
	.st27{fill:#E0E2E2;}
</style>
<linearGradient id="SVGID_1_" gradientUnits="userSpaceOnUse" x1="0" y1="0" x2="0.7071" y2="0.7071">
	<stop  offset="0" style="stop-color:#DEDFE3"/>
	<stop  offset="0.1738" style="stop-color:#D8D9DD"/>
	<stop  offset="0.352" style="stop-color:#C9CACD"/>
	<stop  offset="0.5323" style="stop-color:#B4B5B8"/>
	<stop  offset="0.7139" style="stop-color:#989A9C"/>
	<stop  offset="0.8949" style="stop-color:#797C7E"/>
	<stop  offset="1" style="stop-color:#656B6C"/>
</linearGradient>
<g id="XMLID_2_">
	
		<radialGradient id="XMLID_37_" cx="23.8796" cy="-3943.093" r="36.7932" gradientTransform="matrix(-4.214001e-011 0.3129 -0.6103 -8.220222e-011 -2386.5798 12.6445)" gradientUnits="userSpaceOnUse">
		<stop  offset="0" style="stop-color:#F7F8F8"/>
		<stop  offset="1" style="stop-color:#A9ACAB"/>
	</radialGradient>
	<path id="XMLID_83_" class="st0" d="M30.6,11.9c-3.1-0.1-6.1,0-7,0c-0.2,0-1.4,0-3.1,0v16.4c1.7,0,2.8,0,3.1,0c1,0,3.9,0,7,0
		c1.6-2,2.7-4.9,2.7-8.2C33.2,16.7,32.2,13.8,30.6,11.9z"/>
	<path id="XMLID_82_" class="st1" d="M20.5,11.8c-5.6,0-19.3-0.1-19.8,0.5c-0.9,0.8-0.9,14.7,0,15.5c0.5,0.5,14.2,0.5,19.8,0.5V11.8
		z"/>
	<g id="XMLID_79_">
		<path id="XMLID_81_" class="st2" d="M0.1,14.3c-0.1,0-0.1-0.1-0.1-0.1l0-0.5c0-0.1,0.1-0.1,0.1-0.1h0.4c0.1,0,0.1,0.1,0.1,0.1v0.5
			c0,0.1-0.1,0.1-0.1,0.1H0.1z"/>
		<path id="XMLID_80_" class="st2" d="M0.1,26.5c-0.1,0-0.1-0.1-0.1-0.1l0-0.5c0-0.1,0.1-0.1,0.1-0.1h0.4c0.1,0,0.1,0.1,0.1,0.1v0.5
			c0,0.1-0.1,0.1-0.1,0.1H0.1z"/>
	</g>
	<path id="XMLID_78_" class="st1" d="M35,27.8c1.6-0.2,1.6-0.5,2.3-1c0.5-0.4,0.9-0.9,1.4-1.5c0.3-0.3,0.5-0.8,0.7-1.3
		c0-0.1,0.1-0.2,0.1-0.3h-1.8v-7.3h1.8c0-0.1-0.1-0.2-0.1-0.3c-0.2-0.5-0.4-1-0.7-1.3c-0.5-0.7-0.9-1.2-1.4-1.5
		c-0.7-0.5-0.7-0.8-2.3-1c-1.8-0.2-2.2-0.3-4.5-0.3c1.6,2,2.6,4.9,2.6,8.1c0,3.3-1,6.2-2.7,8.2C32.8,28.1,33.2,28,35,27.8z"/>
	<path id="XMLID_77_" class="st3" d="M37.7,23.6h1.8c0.7-2.2,0.7-5.1,0-7.3h-1.8V23.6z"/>
	
		<radialGradient id="XMLID_38_" cx="24.5428" cy="-3658.0642" r="37.6265" gradientTransform="matrix(-4.214001e-011 0.3129 -0.5967 -8.037579e-011 -2161.3293 12.6445)" gradientUnits="userSpaceOnUse">
		<stop  offset="0" style="stop-color:#FFFFFF"/>
		<stop  offset="1" style="stop-color:#D3D6D5"/>
	</radialGradient>
	<path id="XMLID_76_" class="st4" d="M23.8,12.8c-1.2,0-22.3-0.8-23.1,0c-0.9,0.9-0.7,14,0,14.6c0.8,0.6,21.9,0,23.1,0
		c1.6,0,6.9,0.5,11,0.1c2.6-0.3,2.3-0.9,3.5-2.4c1.7-2,1.7-7.8,0-9.8c-1.2-1.5-0.8-2.1-3.5-2.4C30.7,12.2,25.4,12.8,23.8,12.8z"/>
	
		<linearGradient id="XMLID_41_" gradientUnits="userSpaceOnUse" x1="15.5618" y1="23.1633" x2="26.9003" y2="23.1633" gradientTransform="matrix(-1.346898e-010 1 -1 -1.346898e-010 49.6187 -1.2283)">
		<stop  offset="0" style="stop-color:#010101"/>
		<stop  offset="1" style="stop-color:#1B1C1C"/>
	</linearGradient>
	<path id="XMLID_75_" class="st5" d="M27,16.9c-0.2-1.3-0.5-2.2-0.7-2.6l-0.6,0.1c0,0,0.5,1,0.8,2.6c0.2,1.4,0.2,4.5,0,5.9
		c-0.2,1.6-0.8,2.6-0.8,2.6l0.6,0.1c0.1-0.3,0.5-1.3,0.7-2.6C27.2,21.6,27.2,18.4,27,16.9z"/>
	
		<linearGradient id="XMLID_42_" gradientUnits="userSpaceOnUse" x1="14.6667" y1="17.4537" x2="27.7958" y2="17.4537" gradientTransform="matrix(-1.346898e-010 1 -1 -1.346898e-010 49.6187 -1.2283)">
		<stop  offset="0" style="stop-color:#010101"/>
		<stop  offset="1" style="stop-color:#1B1C1C"/>
	</linearGradient>
	<path id="XMLID_74_" class="st6" d="M31.4,13.9c0.2,0.5,0.6,1.4,0.9,2.8c0.4,2,0.4,4.6,0,6.6c-0.3,1.4-0.7,2.3-0.9,2.8
		c-0.1,0.2-0.2,0.4-0.3,0.4l0,0c0,0,0.4,0.1,0.5,0c0.1-0.1,0.2-0.2,0.3-0.5c0.2-0.5,0.6-1.4,0.9-2.8c0.4-2,0.4-4.6,0-6.6
		c-0.3-1.4-0.7-2.3-0.9-2.8c-0.1-0.3-0.2-0.4-0.3-0.5c-0.1-0.1-0.5,0-0.5,0l0,0C31.2,13.6,31.3,13.7,31.4,13.9z"/>
	
		<linearGradient id="XMLID_84_" gradientUnits="userSpaceOnUse" x1="14.7234" y1="20.1572" x2="27.7387" y2="20.1572" gradientTransform="matrix(-1.346898e-010 1 -1 -1.346898e-010 49.6187 -1.2283)">
		<stop  offset="0" style="stop-color:#373C3A"/>
		<stop  offset="1" style="stop-color:#0E0F0F"/>
	</linearGradient>
	<path id="XMLID_73_" class="st7" d="M27,16.9c0.2,1.4,0.2,4.7,0,6.2c-0.2,1.3-0.5,2.2-0.7,2.6l4.8,0.8c0.1-0.1,0.2-0.2,0.3-0.4
		c0.2-0.5,0.6-1.4,0.9-2.8c0.4-2,0.4-4.6,0-6.6c-0.3-1.4-0.7-2.3-0.9-2.8c-0.1-0.2-0.2-0.4-0.3-0.4l-4.8,0.8
		C26.5,14.7,26.8,15.6,27,16.9z"/>
	<g id="XMLID_70_">
		
			<linearGradient id="XMLID_85_" gradientUnits="userSpaceOnUse" x1="14.221" y1="23.7418" x2="15.5028" y2="23.7418" gradientTransform="matrix(-1.346898e-010 1 -1 -1.346898e-010 49.6187 -1.2283)">
			<stop  offset="0" style="stop-color:#373C3A"/>
			<stop  offset="1" style="stop-color:#010101"/>
		</linearGradient>
		<path id="XMLID_72_" class="st8" d="M23.2,13.3c-1.2,0-1.9,0-2.3-0.1l-0.4,1v0.1l4.9-0.2l5.9-1.1c0,0-1.5-0.1-3.7,0
			C26.3,13.1,24.4,13.3,23.2,13.3z"/>
		
			<linearGradient id="XMLID_86_" gradientUnits="userSpaceOnUse" x1="26.9594" y1="23.7418" x2="28.2412" y2="23.7418" gradientTransform="matrix(-1.346898e-010 1 -1 -1.346898e-010 49.6187 -1.2283)">
			<stop  offset="0" style="stop-color:#373C3A"/>
			<stop  offset="1" style="stop-color:#010101"/>
		</linearGradient>
		<path id="XMLID_71_" class="st9" d="M20.5,25.8l0.4,1c0.4,0,1.2-0.1,2.3-0.1c1.2,0,3.1,0.2,4.5,0.2c2.2,0.1,3.7,0,3.7,0l-5.9-1.1
			L20.5,25.8L20.5,25.8z"/>
	</g>
	
		<linearGradient id="XMLID_87_" gradientUnits="userSpaceOnUse" x1="21.2021" y1="18.8533" x2="24.8525" y2="21.4489" gradientTransform="matrix(-1.346898e-010 1 -1 -1.346898e-010 49.6187 -1.2283)">
		<stop  offset="0" style="stop-color:#373C3A"/>
		<stop  offset="1" style="stop-color:#010101"/>
	</linearGradient>
	<path id="XMLID_69_" class="st10" d="M31.4,26.1c0.2-0.5,0.6-1.4,0.9-2.8c0.1-0.5,0.2-1,0.2-1.5c-1.5-1.4-4.2-3-5.4-3.7
		c0.1,1.6,0.1,3.9-0.1,5c-0.2,1.3-0.5,2.2-0.7,2.6l4.8,0.8C31.2,26.4,31.3,26.3,31.4,26.1z"/>
	
		<linearGradient id="XMLID_88_" gradientUnits="userSpaceOnUse" x1="14.6389" y1="27.7406" x2="50.3516" y2="86.3588" gradientTransform="matrix(-1.346898e-010 1 -1 -1.346898e-010 49.6187 -1.2283)">
		<stop  offset="0" style="stop-color:#F7F8F8"/>
		<stop  offset="1" style="stop-color:#DCDBDB"/>
	</linearGradient>
	<path id="XMLID_68_" class="st11" d="M1.1,26.4c2.4,0,15,0.2,15,0.2s1.4-1.5,2-1.5c2.9,0,5,0,5,0s1.3-1.3,1.1-5.1
		c0.2-3.8-1.1-5.1-1.1-5.1s-2.1,0-5,0c-0.6,0-2-1.5-2-1.5s-12.6,0.1-15,0.1c0,0-0.4,3-0.4,6.5C0.7,23.2,1.1,26.4,1.1,26.4z"/>
	
		<linearGradient id="XMLID_89_" gradientUnits="userSpaceOnUse" x1="13.6221" y1="9.3199" x2="16.1821" y2="16.6917" gradientTransform="matrix(-1.346898e-010 1 -1 -1.346898e-010 49.6187 -1.2283)">
		<stop  offset="0" style="stop-color:#F7F8F8"/>
		<stop  offset="1" style="stop-color:#DCDBDB"/>
	</linearGradient>
	<path id="XMLID_67_" class="st12" d="M38,15.8c0,0-0.4-2.4-3.1-2.6c-2.8-0.3-3.2-0.5-3.2-0.5S36.5,13.8,38,15.8z"/>
	
		<linearGradient id="XMLID_90_" gradientUnits="userSpaceOnUse" x1="40.8489" y1="9.32" x2="43.4089" y2="16.6916" gradientTransform="matrix(1.346898e-010 -1 -1 -1.346898e-010 49.6187 68.4748)">
		<stop  offset="0" style="stop-color:#F7F8F8"/>
		<stop  offset="1" style="stop-color:#DCDBDB"/>
	</linearGradient>
	<path id="XMLID_66_" class="st13" d="M38,24.2c0,0-0.4,2.4-3.1,2.6c-2.8,0.3-3.2,0.5-3.2,0.5S36.5,26.2,38,24.2z"/>
	
		<linearGradient id="XMLID_91_" gradientUnits="userSpaceOnUse" x1="28.0072" y1="18.9121" x2="29.4128" y2="21.6335" gradientTransform="matrix(-1.346898e-010 1 -1 -1.346898e-010 49.6187 -1.2283)">
		<stop  offset="0" style="stop-color:#373C3A"/>
		<stop  offset="1" style="stop-color:#1B1C1C"/>
	</linearGradient>
	<path id="XMLID_65_" class="st14" d="M30.9,26.9c0,0-0.1,0.6-0.7,0.6c-0.5,0-1.6-0.6-0.9-0.6C30,26.9,30.7,26.9,30.9,26.9z"/>
	
		<radialGradient id="XMLID_92_" cx="49.9271" cy="9.9861" r="2.3119" gradientTransform="matrix(-4.214001e-011 0.3129 -0.3142 -4.231775e-011 33.0253 12.6445)" gradientUnits="userSpaceOnUse">
		<stop  offset="0" style="stop-color:#FFFFFF"/>
		<stop  offset="1" style="stop-color:#D3D6D5"/>
	</radialGradient>
	<path id="XMLID_64_" class="st15" d="M29.7,29.1c0.2-0.1,0.6-1.4,0.6-1.4c0.1-0.3-0.1-0.3-0.3-0.4l-0.6,1.8
		C29.5,29.2,29.6,29.2,29.7,29.1z"/>
	
		<linearGradient id="XMLID_93_" gradientUnits="userSpaceOnUse" x1="28.5599" y1="19.9661" x2="30.412" y2="19.9661" gradientTransform="matrix(-1.346898e-010 1 -1 -1.346898e-010 49.6187 -1.2283)">
		<stop  offset="0" style="stop-color:#373C3A"/>
		<stop  offset="1" style="stop-color:#1B1C1C"/>
	</linearGradient>
	<path id="XMLID_63_" class="st16" d="M30,27.3c-0.1,0-0.2,0-0.2,0l-0.4,1.8c0,0,0.1,0,0.1,0L30,27.3z"/>
	
		<linearGradient id="XMLID_94_" gradientUnits="userSpaceOnUse" x1="13.9699" y1="19.1523" x2="15.1961" y2="21.844" gradientTransform="matrix(-1.346898e-010 1 -1 -1.346898e-010 49.6187 -1.2283)">
		<stop  offset="0" style="stop-color:#373C3A"/>
		<stop  offset="1" style="stop-color:#1B1C1C"/>
	</linearGradient>
	<path id="XMLID_62_" class="st17" d="M31,13.1c0,0-0.1-0.7-0.7-0.7c-0.5,0-1.6,0.7-0.9,0.7C30,13.1,30.8,13.1,31,13.1z"/>
	
		<radialGradient id="XMLID_95_" cx="-2.9012" cy="9.9061" r="2.328" gradientTransform="matrix(-4.214001e-011 0.3129 -0.3142 -4.231775e-011 33.0253 12.6445)" gradientUnits="userSpaceOnUse">
		<stop  offset="0" style="stop-color:#FFFFFF"/>
		<stop  offset="1" style="stop-color:#D3D6D5"/>
	</radialGradient>
	<path id="XMLID_61_" class="st18" d="M30.4,12.3c0,0-0.4-1.3-0.6-1.4c-0.1-0.1-0.2-0.1-0.3,0l0.6,1.8
		C30.2,12.6,30.4,12.5,30.4,12.3z"/>
	
		<linearGradient id="XMLID_96_" gradientUnits="userSpaceOnUse" x1="12.0447" y1="19.9394" x2="13.8968" y2="19.9394" gradientTransform="matrix(-1.346898e-010 1 -1 -1.346898e-010 49.6187 -1.2283)">
		<stop  offset="0" style="stop-color:#373C3A"/>
		<stop  offset="1" style="stop-color:#1B1C1C"/>
	</linearGradient>
	<path id="XMLID_60_" class="st19" d="M29.4,10.8C29.4,10.9,29.4,10.9,29.4,10.8l0.3,1.8c0,0,0.1,0,0.2,0L29.4,10.8z"/>
	<path id="XMLID_59_" class="st20" d="M23.8,11.8c0-0.1-0.1-0.2-0.2-0.2h-1.4c-0.1,0-0.2,0.1-0.2,0.2H23.8z"/>
	<path id="XMLID_58_" class="st20" d="M23.8,28.2c0,0.1-0.1,0.2-0.2,0.2h-1.4c-0.1,0-0.2-0.1-0.2-0.2H23.8z"/>
	<g id="XMLID_47_">
		<g id="XMLID_53_">
			<g id="XMLID_54_">
				<path id="XMLID_57_" class="st21" d="M33.4,15.6c0,0.3,0.2,0.5,0.2,0.8c0,0,0,0,0,0c0,0,0,0,0,0C33.7,16.1,33.5,16,33.4,15.6
					C33.5,15.6,33.4,15.6,33.4,15.6C33.4,15.6,33.4,15.6,33.4,15.6z"/>
				<path id="XMLID_56_" class="st21" d="M33.5,16.5c0-0.3-0.2-0.5-0.2-0.8c0,0,0,0,0,0c0,0,0,0,0,0C33.2,16,33.4,16.1,33.5,16.5
					C33.4,16.5,33.4,16.5,33.5,16.5C33.5,16.5,33.5,16.5,33.5,16.5z"/>
				<path id="XMLID_55_" class="st21" d="M33.3,16.5c0-0.3-0.2-0.5-0.2-0.8c0,0,0,0,0,0c0,0,0,0,0,0C33,16,33.2,16.1,33.3,16.5
					C33.2,16.5,33.2,16.5,33.3,16.5C33.3,16.5,33.3,16.5,33.3,16.5z"/>
			</g>
		</g>
		<g id="XMLID_48_">
			<g id="XMLID_49_">
				<path id="XMLID_52_" class="st21" d="M33.4,24.3c0-0.3,0.2-0.5,0.2-0.8c0,0,0,0,0,0c0,0,0,0,0,0C33.7,23.9,33.5,24,33.4,24.3
					C33.5,24.4,33.4,24.4,33.4,24.3C33.4,24.4,33.4,24.4,33.4,24.3z"/>
				<path id="XMLID_51_" class="st21" d="M33.5,23.5c0,0.3-0.2,0.5-0.2,0.8c0,0,0,0,0,0c0,0,0,0,0,0C33.2,24,33.4,23.9,33.5,23.5
					C33.4,23.5,33.4,23.5,33.5,23.5C33.5,23.5,33.5,23.5,33.5,23.5z"/>
				<path id="XMLID_50_" class="st21" d="M33.3,23.5c0,0.3-0.2,0.5-0.2,0.8c0,0,0,0,0,0c0,0,0,0,0,0C33,24,33.2,23.9,33.3,23.5
					C33.2,23.5,33.2,23.5,33.3,23.5C33.3,23.5,33.3,23.5,33.3,23.5z"/>
			</g>
		</g>
	</g>
	
		<linearGradient id="XMLID_97_" gradientUnits="userSpaceOnUse" x1="14.2018" y1="30.555" x2="15.5034" y2="30.555" gradientTransform="matrix(-1.346898e-010 1 -1 -1.346898e-010 49.6187 -1.2283)">
		<stop  offset="0" style="stop-color:#373C3A"/>
		<stop  offset="1" style="stop-color:#010101"/>
	</linearGradient>
	<path id="XMLID_46_" class="st22" d="M20,14.3v-1.1L18.1,13C18.1,13,18.7,14.3,20,14.3z"/>
	
		<linearGradient id="XMLID_98_" gradientUnits="userSpaceOnUse" x1="360.0849" y1="30.555" x2="361.3866" y2="30.555" gradientTransform="matrix(1.346898e-010 -1 -1 -1.346898e-010 49.6187 387.1076)">
		<stop  offset="0" style="stop-color:#373C3A"/>
		<stop  offset="1" style="stop-color:#010101"/>
	</linearGradient>
	<path id="XMLID_45_" class="st23" d="M20,25.7v1.1L18.1,27C18.1,27,18.7,25.7,20,25.7z"/>
	<g id="XMLID_35_">
		
			<linearGradient id="XMLID_99_" gradientUnits="userSpaceOnUse" x1="21.216" y1="28.4496" x2="21.216" y2="30.672" gradientTransform="matrix(-1.346898e-010 1 -1 -1.346898e-010 49.6187 -1.2283)">
			<stop  offset="0" style="stop-color:#373C3A"/>
			<stop  offset="0.1587" style="stop-color:#383E3B"/>
			<stop  offset="0.3993" style="stop-color:#010101"/>
			<stop  offset="0.7357" style="stop-color:#5D6262"/>
			<stop  offset="1" style="stop-color:#1B1C1C"/>
		</linearGradient>
		<rect id="XMLID_44_" x="19" y="17.4" class="st24" width="2.1" height="5.1"/>
		<g id="XMLID_40_">
			
				<radialGradient id="XMLID_100_" cx="-26.0028" cy="69.761" r="3.884" gradientTransform="matrix(-5.248670e-011 0.3897 -0.3502 -4.716313e-011 44.459 26.3484)" gradientUnits="userSpaceOnUse">
				<stop  offset="0" style="stop-color:#F37F5F"/>
				<stop  offset="0.3927" style="stop-color:#EB2227"/>
				<stop  offset="1" style="stop-color:#B21F24"/>
			</radialGradient>
			<path id="XMLID_43_" class="st25" d="M21.1,15.3c0-0.2-0.1-0.3-0.2-0.3h-1.6c-0.1,0-0.2,0.1-0.2,0.3v2.2h2.1V15.3z"/>
		</g>
		<g id="XMLID_36_">
			
				<radialGradient id="XMLID_101_" cx="-253.8937" cy="69.761" r="3.8838" gradientTransform="matrix(5.248670e-011 -0.3897 -0.3502 -4.716313e-011 44.459 -75.185)" gradientUnits="userSpaceOnUse">
				<stop  offset="0" style="stop-color:#F37F5F"/>
				<stop  offset="0.3927" style="stop-color:#EB2227"/>
				<stop  offset="1" style="stop-color:#B21F24"/>
			</radialGradient>
			<path id="XMLID_39_" class="st26" d="M21.1,24.7c0,0.2-0.1,0.3-0.2,0.3h-1.6c-0.1,0-0.2-0.1-0.2-0.3v-2.2h2.1V24.7z"/>
		</g>
	</g>
	<g id="XMLID_27_">
		<g id="XMLID_31_">
			<rect id="XMLID_34_" x="8.3" y="19.1" class="st3" width="7.3" height="1.8"/>
			<polygon id="XMLID_33_" class="st3" points="9.2,22.5 10.7,23.5 14.8,17.5 13.2,16.5 			"/>
			<polygon id="XMLID_32_" class="st3" points="9.2,17.5 10.7,16.5 14.8,22.5 13.2,23.5 			"/>
		</g>
		<g id="XMLID_28_">
			<path id="XMLID_30_" class="st27" d="M9.9,20c-0.1,0.1,0,0.2,0.1,0.3c0.1,0.1,0.2,0.1,0.3,0.2c0.1,0,0.1,0,0.2,0
				c0,0,0.1-0.1,0.1-0.1c0.1-0.1,0.1-0.2,0.1-0.3c0-0.1,0.1-0.2,0.2-0.3c0.1-0.1,0.2-0.2,0.4-0.2c0.1,0,0.3,0,0.4,0.1
				c0.1,0.1,0.2,0.2,0.2,0.3c0.1,0.2,0.2,0.4,0.4,0.6c0.2,0.1,0.4,0.2,0.7,0.1c0.1,0,0.2-0.1,0.3-0.2c0.1-0.1,0.1-0.2,0.1-0.3
				c0-0.2-0.1-0.4-0.3-0.5c-0.1,0-0.1-0.1,0-0.2c0.1-0.1,0.2-0.1,0.2,0c0,0,0,0,0.1,0.1l0,0c0.1,0.2,0.3,0.5,0.2,0.7
				c0,0.1-0.1,0.3-0.2,0.4c-0.1,0.1-0.3,0.2-0.4,0.2c-0.1,0-0.3,0-0.4,0c-0.2,0-0.3-0.1-0.4-0.2c-0.2-0.2-0.3-0.4-0.4-0.6
				c0-0.1-0.1-0.2-0.2-0.3c-0.1-0.1-0.2-0.1-0.3-0.1c-0.1,0-0.2,0.1-0.3,0.1c-0.1,0.1-0.1,0.2-0.2,0.3c0,0.1-0.1,0.2-0.1,0.3
				c0,0.1-0.1,0.1-0.2,0.1c-0.1,0-0.2,0-0.2,0c-0.2,0-0.3-0.1-0.4-0.2c0,0-0.1-0.1-0.1-0.2C9.7,20.1,9.7,20,9.9,20L9.9,20
				C9.8,19.9,9.8,19.9,9.9,20C9.9,19.9,9.9,20,9.9,20z"/>
			<polygon id="XMLID_29_" class="st27" points="12.6,20.3 12.8,20.4 12.8,20 12.8,19.5 12.6,19.7 9.2,20 			"/>
		</g>
	</g>
	<g id="XMLID_19_">
		<g id="XMLID_23_">
			<rect id="XMLID_26_" x="34.5" y="19.5" class="st3" width="3.8" height="0.9"/>
			<polygon id="XMLID_25_" class="st3" points="37.8,18.7 37,18.2 34.9,21.3 35.7,21.8 			"/>
			<polygon id="XMLID_24_" class="st3" points="37.8,21.3 37,21.8 34.9,18.7 35.7,18.2 			"/>
		</g>
		<g id="XMLID_20_">
			<path id="XMLID_22_" class="st27" d="M37.5,20c0,0,0-0.1,0-0.1c0,0-0.1-0.1-0.2-0.1c0,0-0.1,0-0.1,0c0,0,0,0-0.1,0.1
				c0,0,0,0.1-0.1,0.2c0,0.1,0,0.1-0.1,0.2c0,0.1-0.1,0.1-0.2,0.1c-0.1,0-0.2,0-0.2-0.1c-0.1,0-0.1-0.1-0.1-0.2
				c0-0.1-0.1-0.2-0.2-0.3c-0.1-0.1-0.2-0.1-0.3-0.1c-0.1,0-0.1,0-0.2,0.1c0,0-0.1,0.1-0.1,0.1c0,0.1,0,0.2,0.2,0.3c0,0,0,0.1,0,0.1
				c0,0-0.1,0-0.1,0c0,0,0,0,0,0l0,0c-0.1-0.1-0.1-0.2-0.1-0.4c0-0.1,0-0.1,0.1-0.2c0.1-0.1,0.1-0.1,0.2-0.1c0.1,0,0.2,0,0.2,0
				c0.1,0,0.1,0,0.2,0.1c0.1,0.1,0.2,0.2,0.2,0.3c0,0.1,0,0.1,0.1,0.1c0,0,0.1,0.1,0.2,0.1c0.1,0,0.1,0,0.2-0.1c0,0,0.1-0.1,0.1-0.2
				c0-0.1,0-0.1,0.1-0.2c0,0,0-0.1,0.1-0.1c0,0,0.1,0,0.1,0c0.1,0,0.1,0,0.2,0.1C37.5,19.9,37.5,19.9,37.5,20
				C37.5,20,37.5,20,37.5,20L37.5,20C37.5,20,37.5,20,37.5,20C37.4,20,37.4,20,37.5,20z"/>
			<polygon id="XMLID_21_" class="st27" points="36,19.9 36,19.8 35.9,20 36,20.2 36,20.2 37.8,20 			"/>
		</g>
	</g>
	<g id="XMLID_11_">
		<g id="XMLID_15_">
			<rect id="XMLID_18_" x="12" y="26.7" class="st3" width="1.3" height="0.5"/>
			<polygon id="XMLID_17_" class="st3" points="14.3,27.2 15,27.1 10.8,26.8 10.2,26.9 			"/>
			<polygon id="XMLID_16_" class="st3" points="10.8,27.2 10.2,27.1 14.3,26.8 15,26.9 			"/>
		</g>
		<g id="XMLID_12_">
			<path id="XMLID_14_" class="st27" d="M12.6,27.2c0.1,0,0.1,0,0.2,0c0.1,0,0.1,0,0.1,0c0,0,0,0,0,0c0,0,0,0-0.1,0
				C12.7,27.1,12.6,27.1,12.6,27.2c-0.1-0.1-0.2-0.1-0.2-0.1c-0.1,0-0.1,0-0.1,0c0,0,0,0,0.1,0c0.1,0,0.1,0,0.2,0c0.1,0,0.3,0,0.4,0
				c0.1,0,0.1,0,0.1,0c0,0-0.1,0-0.1,0c0,0-0.1,0-0.2,0c-0.1,0-0.3,0-0.4,0c0,0-0.1,0-0.1,0c0,0-0.1,0,0,0c0,0,0,0,0,0l0,0
				c0.2,0,0.3,0,0.5,0c0.1,0,0.2,0,0.2,0c0.1,0,0.1,0,0.1,0c0,0,0,0,0,0c0,0-0.1,0-0.1,0c-0.1,0-0.3,0-0.4,0c-0.1,0-0.1,0-0.2,0
				c-0.1,0-0.1,0-0.1,0c0,0,0,0,0.1,0C12.4,27.1,12.5,27.1,12.6,27.2c0.1-0.1,0.2-0.1,0.2-0.1c0,0,0.1,0,0.1,0c0,0,0,0,0,0
				c0,0-0.1,0-0.1,0c0,0-0.1,0-0.1,0C12.6,27.2,12.6,27.2,12.6,27.2L12.6,27.2C12.5,27.2,12.5,27.2,12.6,27.2
				C12.6,27.2,12.6,27.2,12.6,27.2z"/>
			<polygon id="XMLID_13_" class="st27" points="12.8,27 12.9,27 12.6,27 12.3,27 12.4,27 12.6,27.2 			"/>
		</g>
	</g>
	<g id="XMLID_3_">
		<g id="XMLID_7_">
			<rect id="XMLID_10_" x="12" y="12.7" class="st3" width="1.3" height="0.5"/>
			<polygon id="XMLID_9_" class="st3" points="10.8,12.8 10.2,12.9 14.3,13.2 15,13.1 			"/>
			<polygon id="XMLID_8_" class="st3" points="14.3,12.8 15,12.9 10.8,13.2 10.2,13.1 			"/>
		</g>
		<g id="XMLID_4_">
			<path id="XMLID_6_" class="st27" d="M12.6,12.8c-0.1,0-0.1,0-0.2,0c-0.1,0-0.1,0-0.1,0c0,0,0,0,0,0c0,0,0,0,0.1,0
				C12.5,12.9,12.5,12.9,12.6,12.8c0.1,0.1,0.2,0.1,0.2,0.1c0.1,0,0.1,0,0.1,0c0,0,0,0-0.1,0c-0.1,0-0.1,0-0.2,0c-0.1,0-0.3,0-0.4,0
				c-0.1,0-0.1,0-0.1,0c0,0,0.1,0,0.1,0c0,0,0.1,0,0.2,0c0.1,0,0.3,0,0.4,0c0,0,0.1,0,0.1,0c0,0,0.1,0,0,0c0,0,0,0,0,0h0
				c-0.2,0-0.3,0-0.5,0c-0.1,0-0.2,0-0.2,0c-0.1,0-0.1,0-0.1,0c0,0,0,0,0,0c0,0,0.1,0,0.1,0c0.1,0,0.3,0,0.4,0c0.1,0,0.1,0,0.2,0
				c0.1,0,0.1,0,0.1,0c0,0,0,0-0.1,0C12.7,12.9,12.7,12.9,12.6,12.8c-0.1,0.1-0.2,0.1-0.2,0.1c0,0-0.1,0-0.1,0c0,0,0,0,0,0
				c0,0,0.1,0,0.1,0c0,0,0.1,0,0.1,0C12.5,12.8,12.6,12.8,12.6,12.8L12.6,12.8C12.6,12.8,12.6,12.8,12.6,12.8
				C12.6,12.8,12.6,12.8,12.6,12.8z"/>
			<polygon id="XMLID_5_" class="st27" points="12.4,13 12.3,13 12.6,13 12.9,13 12.8,13 12.6,12.8 			"/>
		</g>
	</g>
</g>
</svg>
