<?xml version="1.0" encoding="utf-8"?>
<!-- Generator: Adobe Illustrator 19.0.0, SVG Export Plug-In . SVG Version: 6.00 Build 0)  -->
<svg version="1.1" id="Layer_1" xmlns="http://www.w3.org/2000/svg" xmlns:xlink="http://www.w3.org/1999/xlink" x="0px" y="0px"
	 viewBox="0 0 40 40" style="enable-background:new 0 0 40 40;" xml:space="preserve">
<style type="text/css">
	.Drop_x0020_Shadow{fill:none;}
	.Round_x0020_Corners_x0020_2_x0020_pt{fill:#FFFFFF;stroke:#000000;stroke-miterlimit:10;}
	.Live_x0020_Reflect_x0020_X{fill:none;}
	.Bevel_x0020_Soft{fill:url(#SVGID_1_);}
	.Dusk{fill:#FFFFFF;}
	.Foliage_GS{fill:#FFDD00;}
	.Pompadour_GS{fill-rule:evenodd;clip-rule:evenodd;fill:#44ADE2;}
	.st0{fill:url(#XMLID_55_);}
	.st1{fill:#010101;}
	.st2{fill:url(#XMLID_56_);}
	.st3{fill:url(#XMLID_57_);}
	.st4{fill:url(#XMLID_58_);}
	.st5{fill:url(#XMLID_59_);}
	.st6{fill:url(#XMLID_60_);}
	.st7{fill:url(#XMLID_61_);}
	.st8{fill:url(#XMLID_62_);}
	.st9{fill:url(#XMLID_63_);}
	.st10{fill:#F15B2B;}
	.st11{fill:url(#XMLID_64_);}
	.st12{fill:url(#XMLID_65_);}
	.st13{fill:url(#XMLID_66_);}
	.st14{fill:#3A3B3B;}
	.st15{fill:#333333;}
	.st16{fill:#161616;}
	.st17{fill:url(#XMLID_67_);}
	.st18{fill:url(#XMLID_68_);}
	.st19{fill:url(#XMLID_69_);}
	.st20{fill:url(#XMLID_70_);}
	.st21{fill:url(#XMLID_71_);}
	.st22{fill:url(#XMLID_72_);}
	.st23{fill:#0D0E0F;}
	.st24{fill:#141719;}
	.st25{fill:#ABBDC4;}
	.st26{fill:url(#XMLID_73_);}
</style>
<linearGradient id="SVGID_1_" gradientUnits="userSpaceOnUse" x1="0" y1="0" x2="0.7071" y2="0.7071">
	<stop  offset="0" style="stop-color:#DEDFE3"/>
	<stop  offset="0.1738" style="stop-color:#D8D9DD"/>
	<stop  offset="0.352" style="stop-color:#C9CACD"/>
	<stop  offset="0.5323" style="stop-color:#B4B5B8"/>
	<stop  offset="0.7139" style="stop-color:#989A9C"/>
	<stop  offset="0.8949" style="stop-color:#797C7E"/>
	<stop  offset="1" style="stop-color:#656B6C"/>
</linearGradient>
<g id="XMLID_2_">
	
		<radialGradient id="XMLID_55_" cx="-10.2086" cy="40.8144" r="31.6125" gradientTransform="matrix(-4.481912e-011 0.3328 -0.3735 -5.030946e-011 34.9513 23.4001)" gradientUnits="userSpaceOnUse">
		<stop  offset="0" style="stop-color:#1D2123"/>
		<stop  offset="1" style="stop-color:#151819"/>
	</radialGradient>
	<path id="XMLID_54_" class="st0" d="M33.6,28.4c1.8-0.2,2.7-0.5,3.4-1.1c-0.1-0.2,0-0.5,0.1-0.7c0.6-0.8,0.9-1.2,1.5-2
		c0.2-0.2,0.4-0.3,0.7-0.4c0-0.1,0.1-0.2,0.1-0.3c-0.8,0-1.2,0-1.9,0c0-2.7,0-5.4,0-8c0.8,0,1.2,0,1.9,0c0-0.1-0.1-0.2-0.1-0.3
		c-0.3,0-0.5-0.2-0.7-0.4c-0.6-0.8-0.9-1.2-1.5-2c-0.2-0.2-0.2-0.4-0.1-0.7c-0.7-0.6-1.6-0.9-3.4-1.1c-4.6-0.5-9.3,0.2-13.8,0.2
		c-5.3,0-12.3-1.3-17.5,0.2c-0.4,0.1-0.7,0.4-1,0.8c0,0.1,0.1,0.2,0.1,0.3c0,0.7-0.5,1.1-0.4,1.9c0.1,0.5-0.4,0.7-0.7,0.8
		c-0.1,0.5-0.1,1-0.2,1.4c0.1,0.1,0.2,0.2,0.2,0.3c0,1.6,0,3.2,0,4.8c0,0.1-0.1,0.3-0.2,0.3c0,0.3,0.1,0.7,0.1,1.1
		c0.3,0,0.8,0.2,0.7,0.8c-0.1,0.8,0.4,1.2,0.4,1.9c0,0.2-0.1,0.4-0.2,0.5c0.3,0.5,0.7,0.9,1.1,1c5.2,1.5,12.2,0.3,17.5,0.2
		C24.3,28.2,29,28.9,33.6,28.4z"/>
	<path id="XMLID_53_" class="st1" d="M37.5,24c0.8,0,1.2,0,1.9,0c0.8-2.5,0.8-5.5,0-8c-0.8,0-1.2,0-1.9,0
		C37.5,18.7,37.5,21.3,37.5,24z"/>
	
		<radialGradient id="XMLID_56_" cx="-10.2083" cy="39.2671" r="25.4016" gradientTransform="matrix(-4.481912e-011 0.3328 -0.3735 -5.030946e-011 34.9513 23.4001)" gradientUnits="userSpaceOnUse">
		<stop  offset="0" style="stop-color:#1E2224"/>
		<stop  offset="1" style="stop-color:#292C2E"/>
	</radialGradient>
	<path id="XMLID_52_" class="st2" d="M33.3,27.9c2.1-0.2,3.5-1,4.8-2.5c2.1-2.5,2.1-8.2,0-10.7c-1.3-1.6-2.6-2.3-4.8-2.5
		c-4.4-0.5-8.9,0.2-13.3,0.2c-5.2,0-12.3-1.4-16.9,0.2C0.9,13.3,1,17.9,1,20c0,2.1-0.1,6.7,2.2,7.5c4.6,1.6,11.7,0.3,16.9,0.2
		C24.4,27.7,28.9,28.3,33.3,27.9z"/>
	
		<linearGradient id="XMLID_57_" gradientUnits="userSpaceOnUse" x1="7.7713" y1="34.7334" x2="19.8002" y2="34.7334" gradientTransform="matrix(-1.346898e-010 1 -1 -1.346898e-010 57.722 6.2169)">
		<stop  offset="0" style="stop-color:#010101"/>
		<stop  offset="1" style="stop-color:#010101"/>
	</linearGradient>
	<path id="XMLID_51_" class="st3" d="M23.6,16.7c-0.2-1.4-0.6-2.4-0.7-2.8c-0.3,0-0.4,0.1-0.6,0.1c0,0,0.6,1.1,0.8,2.8
		c0.3,2,0.3,4.2,0,6.3c-0.2,1.7-0.8,2.8-0.8,2.8c0.3,0,0.4,0.1,0.6,0.1c0.2-0.4,0.6-1.4,0.7-2.8C23.9,21.1,23.9,18.9,23.6,16.7z"/>
	<path id="XMLID_50_" class="st1" d="M28.4,13.6c0.2,0.5,0.6,1.5,1,2.9c0.5,2.3,0.5,4.7,0,6.9c-0.3,1.4-0.7,2.4-1,2.9
		c-0.1,0.2-0.2,0.4-0.3,0.5c0,0,0,0,0,0c0,0,0.5,0.1,0.6,0c0.1-0.1,0.2-0.2,0.3-0.5c0.2-0.5,0.6-1.5,1-2.9c0.5-2.3,0.5-4.7,0-6.9
		c-0.3-1.4-0.7-2.4-1-2.9c-0.1-0.3-0.2-0.4-0.3-0.5c-0.1-0.1-0.6,0-0.6,0c0,0,0,0,0,0C28.2,13.2,28.3,13.4,28.4,13.6z"/>
	
		<linearGradient id="XMLID_58_" gradientUnits="userSpaceOnUse" x1="6.9369" y1="31.4329" x2="20.635" y2="31.4329" gradientTransform="matrix(-1.346898e-010 1 -1 -1.346898e-010 57.722 6.2169)">
		<stop  offset="0" style="stop-color:#0F0F0E"/>
		<stop  offset="1" style="stop-color:#010101"/>
	</linearGradient>
	<path id="XMLID_49_" class="st4" d="M23.6,16.7c0.3,2.1,0.3,4.4,0,6.5c-0.2,1.4-0.6,2.4-0.7,2.8c1.8,0.3,3.5,0.6,5.3,0.8
		c0.1-0.1,0.2-0.2,0.3-0.5c0.2-0.5,0.6-1.5,1-2.9c0.5-2.3,0.5-4.7,0-6.9c-0.3-1.4-0.7-2.4-1-2.9c-0.1-0.2-0.2-0.4-0.3-0.5
		c-1.8,0.3-3.5,0.6-5.3,0.8C23,14.4,23.4,15.4,23.6,16.7z"/>
	<path id="XMLID_46_" class="st1" d="M8.3,25.7c0.2,0,0.5-0.1,0.7-0.2c0,0,0-0.1-0.1-0.2C8.2,23.6,8,21.7,8,20
		c0-1.7,0.2-3.6,0.8-5.3C8.9,14.6,9,14.5,9,14.5c-0.2-0.1-0.4-0.1-0.7-0.2C6.9,14.1,5.5,13.9,4,14c0,0-0.6,1.2-0.9,2.9
		c-0.3,1.9-0.3,4.1,0,6C3.4,24.7,4,26,4,26C5.5,26.1,6.9,25.9,8.3,25.7z M4.6,25.5c0,0-0.6-1.1-0.9-2.7c-0.3-1.8-0.3-3.8,0-5.6
		c0.3-1.6,0.9-2.7,0.9-2.7s1.7-0.1,3.6,0.1c-0.5,1.8-0.7,3.6-0.7,5.4c0,1.8,0.1,3.6,0.7,5.4C6.3,25.7,4.6,25.5,4.6,25.5z"/>
	
		<linearGradient id="XMLID_59_" gradientUnits="userSpaceOnUse" x1="8.2133" y1="51.8941" x2="19.3594" y2="51.8941" gradientTransform="matrix(-1.346898e-010 1 -1 -1.346898e-010 57.722 6.2169)">
		<stop  offset="0" style="stop-color:#151616"/>
		<stop  offset="1" style="stop-color:#010101"/>
	</linearGradient>
	<path id="XMLID_45_" class="st5" d="M8.2,14.6c-1.9-0.3-3.6-0.1-3.6-0.1S4,15.6,3.7,17.2c-0.3,1.8-0.3,3.8,0,5.6
		c0.3,1.6,0.9,2.7,0.9,2.7s1.7,0.1,3.6-0.1c-0.5-1.8-0.7-3.6-0.7-5.4C7.5,18.2,7.7,16.4,8.2,14.6z"/>
	<g id="XMLID_42_">
		
			<linearGradient id="XMLID_60_" gradientUnits="userSpaceOnUse" x1="6.3874" y1="35.3851" x2="7.6508" y2="35.3851" gradientTransform="matrix(-1.346898e-010 1 -1 -1.346898e-010 57.722 6.2169)">
			<stop  offset="0" style="stop-color:#0F0F0E"/>
			<stop  offset="1" style="stop-color:#010101"/>
		</linearGradient>
		<path id="XMLID_44_" class="st6" d="M16.8,12.7c-0.2,0.5-0.3,0.7-0.4,1.2c1.8-0.1,3.7-0.1,5.5-0.2c2.2-0.4,4.3-0.7,6.5-1
			c-1.4-0.1-2.7-0.1-4.1,0c-1.6,0-3.3,0.2-4.9,0.2C18.1,12.8,17.2,12.7,16.8,12.7z"/>
		
			<linearGradient id="XMLID_61_" gradientUnits="userSpaceOnUse" x1="19.9214" y1="35.3848" x2="21.1845" y2="35.3848" gradientTransform="matrix(-1.346898e-010 1 -1 -1.346898e-010 57.722 6.2169)">
			<stop  offset="0" style="stop-color:#0F0F0E"/>
			<stop  offset="1" style="stop-color:#010101"/>
		</linearGradient>
		<path id="XMLID_43_" class="st7" d="M16.8,27.3c-0.2-0.5-0.3-0.7-0.4-1.2c1.8,0.1,3.7,0.1,5.5,0.2c2.2,0.4,4.3,0.7,6.5,1
			c-1.4,0.1-2.7,0.1-4.1,0c-1.6,0-3.3-0.2-4.9-0.2C18.1,27.2,17.2,27.3,16.8,27.3z"/>
	</g>
	<g id="XMLID_39_">
		
			<linearGradient id="XMLID_62_" gradientUnits="userSpaceOnUse" x1="6.3119" y1="45.455" x2="7.7486" y2="45.455" gradientTransform="matrix(-1.346898e-010 1 -1 -1.346898e-010 57.722 6.2169)">
			<stop  offset="0" style="stop-color:#0F0F0E"/>
			<stop  offset="1" style="stop-color:#010101"/>
		</linearGradient>
		<path id="XMLID_41_" class="st8" d="M16.3,12.7c-0.2,0.5-0.3,0.7-0.5,1.2c-1.5,0-3.1,0.1-4.6,0.1c0,0-0.6-0.1-1.5-0.6
			c-1.1-0.5-1.4-0.8-1.4-0.8C10.9,12.5,13.6,12.5,16.3,12.7z"/>
		
			<linearGradient id="XMLID_63_" gradientUnits="userSpaceOnUse" x1="19.8236" y1="45.4548" x2="21.2597" y2="45.4548" gradientTransform="matrix(-1.346898e-010 1 -1 -1.346898e-010 57.722 6.2169)">
			<stop  offset="0" style="stop-color:#0F0F0E"/>
			<stop  offset="1" style="stop-color:#010101"/>
		</linearGradient>
		<path id="XMLID_40_" class="st9" d="M16.3,27.4c-0.2-0.5-0.3-0.7-0.5-1.2c-1.5,0-3.1-0.1-4.6-0.1c0,0-0.6,0.1-1.5,0.6
			c-1.1,0.5-1.4,0.8-1.4,0.8C10.9,27.5,13.6,27.5,16.3,27.4z"/>
	</g>
	<g id="XMLID_36_">
		<path id="XMLID_38_" class="st1" d="M37.1,13.4c0.6,0.8,0.9,1.2,1.5,2c0.2,0.2,0.4,0.3,0.7,0.4c-0.2-0.6-0.5-1-0.8-1.4
			c-0.6-0.7-1-1.2-1.5-1.6C36.9,12.9,37,13.2,37.1,13.4z"/>
		<path id="XMLID_37_" class="st1" d="M38.6,24.7c-0.6,0.8-0.9,1.2-1.5,2c-0.2,0.2-0.2,0.4-0.1,0.7c0.5-0.4,1-0.9,1.5-1.6
			c0.3-0.4,0.6-0.8,0.8-1.4C39.1,24.3,38.8,24.5,38.6,24.7z"/>
	</g>
	<path id="XMLID_35_" class="st10" d="M1,15.1c-0.1-0.8,0.4-1.2,0.4-1.9c0-0.1,0-0.2-0.1-0.3c-0.5,0.7-0.8,1.9-1,3
		C0.6,15.8,1.1,15.6,1,15.1z"/>
	<path id="XMLID_34_" class="st10" d="M1,24.6c0.1-0.6-0.4-0.7-0.7-0.8C0.4,25,0.7,26.2,1.2,27c0.1-0.1,0.2-0.3,0.2-0.5
		C1.3,25.8,0.9,25.4,1,24.6z"/>
	
		<linearGradient id="XMLID_64_" gradientUnits="userSpaceOnUse" x1="8.4846" y1="26.4152" x2="10.4975" y2="20.102" gradientTransform="matrix(-1.346898e-010 1 -1 -1.346898e-010 57.722 6.2169)">
		<stop  offset="0" style="stop-color:#191E1F"/>
		<stop  offset="1" style="stop-color:#16191B"/>
	</linearGradient>
	<path id="XMLID_33_" class="st11" d="M30.4,14.5c0,0,2.3,1.3,3.5,1.5c0.7,0.2,3-0.1,3-0.1s-2.2-0.1-2.9-0.3
		C32.9,15.4,30.4,14.5,30.4,14.5z"/>
	
		<linearGradient id="XMLID_65_" gradientUnits="userSpaceOnUse" x1="18.9259" y1="26.7917" x2="17.323" y2="20.4258" gradientTransform="matrix(-1.346898e-010 1 -1 -1.346898e-010 57.722 6.2169)">
		<stop  offset="0" style="stop-color:#191E1F"/>
		<stop  offset="1" style="stop-color:#16191B"/>
	</linearGradient>
	<path id="XMLID_32_" class="st12" d="M30.4,25.5c0,0,2.3-1.3,3.5-1.5c0.7-0.2,3,0.1,3,0.1s-2.2,0.1-2.9,0.3
		C32.9,24.6,30.4,25.5,30.4,25.5z"/>
	
		<linearGradient id="XMLID_66_" gradientUnits="userSpaceOnUse" x1="13.7075" y1="30.0509" x2="17.6364" y2="32.8446" gradientTransform="matrix(-1.346898e-010 1 -1 -1.346898e-010 57.722 6.2169)">
		<stop  offset="0" style="stop-color:#373C3A"/>
		<stop  offset="1" style="stop-color:#010101"/>
	</linearGradient>
	<path id="XMLID_31_" class="st13" d="M28.4,26.4c0.2-0.5,0.6-1.5,1-2.9c0.1-0.5,0.2-1.1,0.3-1.6c-1.8-1.5-3.9-2.8-6-3.9
		c0.1,1.8,0.1,3.6-0.1,5.3c-0.2,1.4-0.6,2.4-0.7,2.8c1.8,0.3,3.5,0.6,5.3,0.8C28.2,26.8,28.3,26.6,28.4,26.4z"/>
	<path id="XMLID_30_" class="st14" d="M22.6,20c0-1.8,0.1-3.7-0.7-5.5c-3.9,0-9.3-0.8-11.9,0.3c-1.1,0.4-1.1,3.2-1.2,4.5
		c0,0.6,0,0.8,0,1.4c0.1,1.3,0.2,4.1,1.2,4.5c2.6,1.1,8,0.3,11.9,0.3C22.6,23.7,22.6,21.8,22.6,20z"/>
	<path id="XMLID_29_" class="st14" d="M22.6,20.1c0-1.8,0.1-3.8-0.7-5.5c-3.9,0-9.3-0.8-11.9,0.3c-1.1,0.4-1.1,3.3-1.2,4.6
		c0,0.6,0,0.8,0,1.4c0.1,1.3,0.2,4.1,1.2,4.6c2.6,1.1,8,0.3,11.9,0.3C22.6,23.9,22.6,21.9,22.6,20.1z"/>
	<path id="XMLID_28_" class="st15" d="M1.3,20.8c0.1,2.1,0.3,4.3,1.4,6.2c0.4-0.3,0.6-0.5,1-0.9c-1-1.8-1.4-4-1.2-6.1l0,0
		c-0.1-2.1,0.2-4.3,1.2-6.1c-0.4-0.3-0.6-0.5-1-0.9c-1.1,1.9-1.3,4.1-1.4,6.2c0,0.2,0,0.8,0,0.8l0,0C1.3,20.3,1.3,20.6,1.3,20.8z"/>
	<path id="XMLID_27_" class="st16" d="M38.3,15.3c0,0-2.5-2.6-4.4-2.8c-1.5-0.2-4.6-0.3-4.6-0.3C29.3,12.2,38.3,15.3,38.3,15.3z"/>
	<path id="XMLID_26_" class="st16" d="M38.3,24.7c0,0-2.5,2.6-4.4,2.8c-1.5,0.2-4.6,0.3-4.6,0.3C29.3,27.8,38.3,24.7,38.3,24.7z"/>
	<g id="XMLID_22_">
		
			<linearGradient id="XMLID_67_" gradientUnits="userSpaceOnUse" x1="20.9132" y1="30.0394" x2="22.4674" y2="33.0488" gradientTransform="matrix(-1.346898e-010 1 -1 -1.346898e-010 57.722 6.2169)">
			<stop  offset="0" style="stop-color:#090A0A"/>
			<stop  offset="1" style="stop-color:#050606"/>
		</linearGradient>
		<path id="XMLID_25_" class="st17" d="M27.9,27.3c0,0-0.1,0.7-0.7,0.7c-0.6,0-1.8-0.6-1.1-0.7C26.9,27.3,27.7,27.2,27.9,27.3z"/>
		
			<linearGradient id="XMLID_68_" gradientUnits="userSpaceOnUse" x1="21.5142" y1="30.9196" x2="23.4736" y2="30.9196" gradientTransform="matrix(-1.346898e-010 1 -1 -1.346898e-010 57.722 6.2169)">
			<stop  offset="0" style="stop-color:#1E2224"/>
			<stop  offset="1" style="stop-color:#191C1E"/>
		</linearGradient>
		<path id="XMLID_24_" class="st18" d="M26.6,29.6c0.2-0.1,0.6-1.5,0.6-1.5c0.1-0.3-0.2-0.4-0.4-0.4c-0.2,0.8-0.4,1.2-0.6,1.9
			C26.4,29.7,26.5,29.7,26.6,29.6z"/>
		
			<linearGradient id="XMLID_69_" gradientUnits="userSpaceOnUse" x1="21.5165" y1="31.1813" x2="23.4756" y2="31.1813" gradientTransform="matrix(-1.346898e-010 1 -1 -1.346898e-010 57.722 6.2169)">
			<stop  offset="0" style="stop-color:#090A0A"/>
			<stop  offset="1" style="stop-color:#050606"/>
		</linearGradient>
		<path id="XMLID_23_" class="st19" d="M26.9,27.7c-0.1,0-0.3,0-0.3,0c-0.2,0.8-0.3,1.1-0.5,1.9c0,0,0.1,0,0.1,0
			C26.5,28.9,26.7,28.5,26.9,27.7z"/>
	</g>
	<g id="XMLID_18_">
		
			<linearGradient id="XMLID_70_" gradientUnits="userSpaceOnUse" x1="6.1295" y1="30.3014" x2="7.4742" y2="33.2532" gradientTransform="matrix(-1.346898e-010 1 -1 -1.346898e-010 57.722 6.2169)">
			<stop  offset="0" style="stop-color:#090A0A"/>
			<stop  offset="1" style="stop-color:#050606"/>
		</linearGradient>
		<path id="XMLID_21_" class="st20" d="M28,12.7c0,0-0.1-0.7-0.7-0.7c-0.6,0-1.8,0.7-1.1,0.7C27,12.7,27.7,12.8,28,12.7z"/>
		
			<linearGradient id="XMLID_71_" gradientUnits="userSpaceOnUse" x1="4.093" y1="30.892" x2="6.0526" y2="30.892" gradientTransform="matrix(-1.346898e-010 1 -1 -1.346898e-010 57.722 6.2169)">
			<stop  offset="0" style="stop-color:#191C1E"/>
			<stop  offset="1" style="stop-color:#1E2224"/>
		</linearGradient>
		<path id="XMLID_20_" class="st21" d="M27.3,11.9c0,0-0.4-1.3-0.6-1.5c-0.1-0.1-0.3-0.1-0.4,0c0.2,0.8,0.4,1.2,0.6,1.9
			C27.1,12.2,27.4,12.1,27.3,11.9z"/>
		
			<linearGradient id="XMLID_72_" gradientUnits="userSpaceOnUse" x1="4.0909" y1="31.1518" x2="6.0499" y2="31.1518" gradientTransform="matrix(-1.346898e-010 1 -1 -1.346898e-010 57.722 6.2169)">
			<stop  offset="0" style="stop-color:#090A0A"/>
			<stop  offset="1" style="stop-color:#050606"/>
		</linearGradient>
		<path id="XMLID_19_" class="st22" d="M26.3,10.3c-0.1,0-0.1,0-0.1,0c0.2,0.8,0.3,1.1,0.5,1.9c0,0,0.1,0,0.2,0
			C26.7,11.5,26.6,11.1,26.3,10.3z"/>
	</g>
	<path id="XMLID_17_" class="st23" d="M20.1,11.8c0-0.1-0.1-0.2-0.2-0.2c-0.6,0-0.9,0-1.5,0c-0.1,0-0.2,0.1-0.2,0.2
		C18.9,11.8,19.3,11.8,20.1,11.8z"/>
	<path id="XMLID_16_" class="st23" d="M12.4,11.4c0-0.1-0.1-0.2-0.2-0.2c-0.6,0-0.9,0-1.5,0c-0.1,0-0.2,0.1-0.2,0.2
		C11.2,11.4,11.6,11.4,12.4,11.4z"/>
	<path id="XMLID_15_" class="st23" d="M20.1,28.2c0,0.1-0.1,0.2-0.2,0.2c-0.6,0-0.9,0-1.5,0c-0.1,0-0.2-0.1-0.2-0.2
		C18.9,28.2,19.3,28.2,20.1,28.2z"/>
	<path id="XMLID_14_" class="st23" d="M12.4,28.6c0,0.1-0.1,0.2-0.2,0.2c-0.6,0-0.9,0-1.5,0c-0.1,0-0.2-0.1-0.2-0.2
		C11.2,28.6,11.6,28.6,12.4,28.6z"/>
	<g id="XMLID_5_">
		<g id="XMLID_10_">
			<path id="XMLID_13_" class="st24" d="M31,16.2c0,0.3,0.2,0.4,0.2,0.7c0,0,0,0,0,0c0,0,0,0,0,0C31.2,16.6,31.1,16.5,31,16.2
				C31,16.2,31,16.1,31,16.2C31,16.1,31,16.2,31,16.2z"/>
			<path id="XMLID_12_" class="st24" d="M31.1,16.9c0-0.3-0.2-0.4-0.2-0.7c0,0,0,0,0,0c0,0,0,0,0,0C30.8,16.5,31,16.6,31.1,16.9
				C31,16.9,31,16.9,31.1,16.9C31.1,16.9,31.1,16.9,31.1,16.9z"/>
			<path id="XMLID_11_" class="st24" d="M30.9,16.9c0-0.3-0.2-0.4-0.2-0.7c0,0,0,0,0,0c0,0,0,0,0,0C30.6,16.5,30.8,16.6,30.9,16.9
				C30.8,16.9,30.8,16.9,30.9,16.9C30.9,16.9,30.9,16.9,30.9,16.9z"/>
		</g>
		<g id="XMLID_6_">
			<path id="XMLID_9_" class="st24" d="M31,23.8c0-0.3,0.2-0.4,0.2-0.7c0,0,0,0,0,0c0,0,0,0,0,0C31.2,23.4,31.1,23.5,31,23.8
				C31,23.8,31,23.9,31,23.8C31,23.9,31,23.8,31,23.8z"/>
			<path id="XMLID_8_" class="st24" d="M31.1,23.1c0,0.3-0.2,0.4-0.2,0.7c0,0,0,0,0,0c0,0,0,0,0,0C30.8,23.5,31,23.4,31.1,23.1
				C31,23.1,31,23.1,31.1,23.1C31.1,23.1,31.1,23.1,31.1,23.1z"/>
			<path id="XMLID_7_" class="st24" d="M30.9,23.1c0,0.3-0.2,0.4-0.2,0.7c0,0,0,0,0,0c0,0,0,0,0,0C30.6,23.5,30.8,23.4,30.9,23.1
				C30.8,23.1,30.8,23.1,30.9,23.1C30.9,23.1,30.9,23.1,30.9,23.1z"/>
		</g>
	</g>
	<path id="XMLID_4_" class="st25" d="M0.3,22.4c0-1.6,0-3.2,0-4.8c0-0.1-0.1-0.3-0.2-0.3C0,18.8,0,20,0,20c0,0,0,1.2,0.1,2.7
		C0.2,22.7,0.3,22.5,0.3,22.4z"/>
	
		<linearGradient id="XMLID_73_" gradientUnits="userSpaceOnUse" x1="11.0584" y1="46.5401" x2="14.0042" y2="51.0573" gradientTransform="matrix(-1.346898e-010 1 -1 -1.346898e-010 57.722 6.2169)">
		<stop  offset="0" style="stop-color:#373C3A"/>
		<stop  offset="1" style="stop-color:#010101"/>
	</linearGradient>
	<path id="XMLID_3_" class="st26" d="M8.2,25.4c-0.5-1.8-0.6-3.6-0.7-5.4c0-0.5,0-1.1,0.1-1.6c-0.7-1.3-2.1-2.2-3.5-2.7
		c-0.1,0.4-0.3,0.9-0.4,1.5c-0.3,1.8-0.3,3.8,0,5.6c0.3,1.6,0.9,2.7,0.9,2.7S6.3,25.7,8.2,25.4z"/>
</g>
</svg>
