<?xml version="1.0" encoding="utf-8"?>
<!-- Generator: Adobe Illustrator 19.0.0, SVG Export Plug-In . SVG Version: 6.00 Build 0)  -->
<svg version="1.1" id="Layer_1" xmlns="http://www.w3.org/2000/svg" xmlns:xlink="http://www.w3.org/1999/xlink" x="0px" y="0px"
	 viewBox="0 0 40 40" style="enable-background:new 0 0 40 40;" xml:space="preserve">
<style type="text/css">
	.Drop_x0020_Shadow{fill:none;}
	.Round_x0020_Corners_x0020_2_x0020_pt{fill:#FFFFFF;stroke:#000000;stroke-miterlimit:10;}
	.Live_x0020_Reflect_x0020_X{fill:none;}
	.Bevel_x0020_Soft{fill:url(#SVGID_1_);}
	.Dusk{fill:#FFFFFF;}
	.Foliage_GS{fill:#FFDD00;}
	.Pompadour_GS{fill-rule:evenodd;clip-rule:evenodd;fill:#44ADE2;}
	.st0{fill:#F89521;}
	.st1{fill:url(#XMLID_76_);}
	.st2{fill:url(#XMLID_77_);}
	.st3{fill:url(#XMLID_78_);}
	.st4{fill:url(#XMLID_79_);}
	.st5{fill:url(#XMLID_80_);}
	.st6{fill:#6C0C18;}
	.st7{fill:#911A1E;}
	.st8{fill:url(#XMLID_81_);}
	.st9{fill:url(#XMLID_82_);}
	.st10{fill:url(#XMLID_83_);}
	.st11{fill:url(#XMLID_84_);}
	.st12{fill:url(#XMLID_85_);}
	.st13{fill:url(#XMLID_86_);}
	.st14{fill:url(#XMLID_87_);}
	.st15{fill:url(#XMLID_88_);}
	.st16{fill:#B72025;}
	.st17{fill:url(#XMLID_89_);}
	.st18{fill:url(#XMLID_90_);}
	.st19{fill:url(#XMLID_91_);}
	.st20{fill:url(#XMLID_92_);}
	.st21{fill:url(#XMLID_93_);}
	.st22{fill:url(#XMLID_94_);}
	.st23{fill:url(#XMLID_95_);}
	.st24{fill:url(#XMLID_96_);}
	.st25{fill:url(#XMLID_97_);}
	.st26{fill:url(#XMLID_98_);}
	.st27{fill:#5A5A5A;}
	.st28{fill:#AA1E28;}
	.st29{fill:url(#XMLID_99_);}
	.st30{fill:#531218;}
</style>
<linearGradient id="SVGID_1_" gradientUnits="userSpaceOnUse" x1="0" y1="0" x2="0.7071" y2="0.7071">
	<stop  offset="0" style="stop-color:#DEDFE3"/>
	<stop  offset="0.1738" style="stop-color:#D8D9DD"/>
	<stop  offset="0.352" style="stop-color:#C9CACD"/>
	<stop  offset="0.5323" style="stop-color:#B4B5B8"/>
	<stop  offset="0.7139" style="stop-color:#989A9C"/>
	<stop  offset="0.8949" style="stop-color:#797C7E"/>
	<stop  offset="1" style="stop-color:#656B6C"/>
</linearGradient>
<g id="XMLID_2_">
	<g id="XMLID_73_">
		<path id="XMLID_75_" class="st0" d="M0.1,14.2c-0.1,0-0.1-0.1-0.1-0.1l0-0.5c0-0.1,0.1-0.1,0.1-0.1h0.4c0.1,0,0.1,0.1,0.1,0.1v0.5
			c0,0.1-0.1,0.1-0.1,0.1H0.1z"/>
		<path id="XMLID_74_" class="st0" d="M0.1,26.6c-0.1,0-0.1-0.1-0.1-0.1l0-0.5c0-0.1,0.1-0.1,0.1-0.1h0.4c0.1,0,0.1,0.1,0.1,0.1v0.5
			c0,0.1-0.1,0.1-0.1,0.1H0.1z"/>
	</g>
	
		<linearGradient id="XMLID_76_" gradientUnits="userSpaceOnUse" x1="10.1754" y1="19.6235" x2="17.5601" y2="19.6235" gradientTransform="matrix(-1.346898e-010 1 -1 -1.346898e-010 58.4724 6.1349)">
		<stop  offset="0" style="stop-color:#535A57"/>
		<stop  offset="1" style="stop-color:#2D2E2E"/>
	</linearGradient>
	<path id="XMLID_72_" class="st1" d="M37.7,23.7h1.8c0.7-2.2,0.7-5.1,0-7.4h-1.8V23.7z"/>
	<g id="XMLID_63_">
		
			<radialGradient id="XMLID_77_" cx="13.8678" cy="52.7151" r="11.6499" gradientTransform="matrix(-1.346898e-010 1 -1 -1.346898e-010 58.4724 6.1349)" gradientUnits="userSpaceOnUse">
			<stop  offset="0" style="stop-color:#EE1F36"/>
			<stop  offset="1" style="stop-color:#A81F23"/>
		</radialGradient>
		<path id="XMLID_71_" class="st2" d="M35,27.9c1.6-0.2,1.6-0.5,2.3-1c0-0.2,0-0.5,0.1-0.7l1.4-1.9c0.1-0.2,0.4-0.3,0.6-0.4
			c0-0.1,0.1-0.2,0.1-0.3h-1.8v-7.4h1.8c0-0.1-0.1-0.2-0.1-0.3c-0.2,0-0.5-0.2-0.6-0.4l-1.4-1.9c-0.1-0.2-0.2-0.4-0.1-0.7
			c-0.7-0.5-0.7-0.8-2.3-1c-4.3-0.5-11.9,0.1-13.5,0.1c-1.1,0-20.1-0.7-20.8,0C-0.2,13-0.2,27,0.6,27.9c0.7,0.7,19.7,0,20.8,0
			C23.1,27.8,30.7,28.4,35,27.9z"/>
		
			<radialGradient id="XMLID_78_" cx="13.8494" cy="49.3806" r="9.6092" gradientTransform="matrix(-1.346898e-010 1 -1.0446 -1.406969e-010 58.315 6.1349)" gradientUnits="userSpaceOnUse">
			<stop  offset="0" style="stop-color:#EE243C"/>
			<stop  offset="1" style="stop-color:#D2202B"/>
		</radialGradient>
		<path id="XMLID_70_" class="st3" d="M21.7,12.6c-1.2,0-20.2-0.8-20.9,0c-0.9,0.9-0.7,14.2,0,14.8c0.8,0.7,19.8,0,20.9,0
			c1.6,0,8.9,0.5,13,0.1c2.7-0.3,2.3-0.9,3.5-2.4c1.7-2,1.7-8,0-10c-1.3-1.5-0.9-2.1-3.5-2.4C30.6,12.1,23.3,12.7,21.7,12.6z"/>
		
			<radialGradient id="XMLID_79_" cx="13.8651" cy="49.351" r="7.3881" gradientTransform="matrix(-1.346898e-010 1 -1 -1.346898e-010 58.4724 6.1349)" gradientUnits="userSpaceOnUse">
			<stop  offset="0" style="stop-color:#BD2028"/>
			<stop  offset="0.5567" style="stop-color:#BB2028"/>
			<stop  offset="0.8185" style="stop-color:#B31F26"/>
			<stop  offset="1" style="stop-color:#A81F23"/>
		</radialGradient>
		<path id="XMLID_69_" class="st4" d="M4.8,26.1h6.3c0.1,0,0.1,0.1,0.1,0.1V27h5.6V13h-5.6v0.8c0,0.1-0.1,0.1-0.1,0.1H4.8
			c-0.1,0-0.1-0.1-0.1-0.1V13h-2c-0.3,0-0.7,0.1-0.9,0.4c-0.3,0.3-0.4,0.6-0.4,0.9v11.3c0,0.4,0.1,0.7,0.4,1c0.3,0.3,0.6,0.4,1,0.4
			h1.9v-0.8C4.7,26.1,4.8,26.1,4.8,26.1z"/>
		
			<radialGradient id="XMLID_80_" cx="13.8649" cy="50.6221" r="8.0771" gradientTransform="matrix(-1.346898e-010 1 -1 -1.346898e-010 58.4724 6.1349)" gradientUnits="userSpaceOnUse">
			<stop  offset="0" style="stop-color:#BD2028"/>
			<stop  offset="0.5567" style="stop-color:#BB2028"/>
			<stop  offset="0.8185" style="stop-color:#B31F26"/>
			<stop  offset="1" style="stop-color:#A81F23"/>
		</radialGradient>
		<path id="XMLID_68_" class="st5" d="M4.8,13.9h6.3c0.1,0,0.1-0.1,0.1-0.1V13H4.7v0.8C4.7,13.9,4.8,13.9,4.8,13.9z"/>
		<path id="XMLID_67_" class="st6" d="M2.8,26.7c-0.3,0-0.6-0.1-0.8-0.3c-0.2-0.2-0.3-0.5-0.3-0.8V14.5c0-0.3,0.1-0.6,0.3-0.8
			c0.2-0.2,0.5-0.3,0.8-0.3h13.9v13.3H2.8z"/>
		<path id="XMLID_66_" class="st7" d="M4.8,13.9h6.3c0.1,0,0.1-0.1,0.1-0.1V13H4.7v0.8C4.7,13.9,4.8,13.9,4.8,13.9z"/>
		
			<radialGradient id="XMLID_81_" cx="13.8602" cy="50.6221" r="8.082" gradientTransform="matrix(-1.346898e-010 1 -1 -1.346898e-010 58.4724 6.1349)" gradientUnits="userSpaceOnUse">
			<stop  offset="0" style="stop-color:#BD2028"/>
			<stop  offset="0.5567" style="stop-color:#BB2028"/>
			<stop  offset="0.8185" style="stop-color:#B31F26"/>
			<stop  offset="1" style="stop-color:#A81F23"/>
		</radialGradient>
		<path id="XMLID_65_" class="st8" d="M11.2,26.2c0-0.1-0.1-0.1-0.1-0.1H4.8c-0.1,0-0.1,0.1-0.1,0.1V27h6.5V26.2z"/>
		<path id="XMLID_64_" class="st7" d="M11.2,26.2c0-0.1-0.1-0.1-0.1-0.1H4.8c-0.1,0-0.1,0.1-0.1,0.1V27h6.5V26.2z"/>
	</g>
	
		<linearGradient id="XMLID_82_" gradientUnits="userSpaceOnUse" x1="8.1067" y1="34.0823" x2="19.6291" y2="34.0823" gradientTransform="matrix(-1.346898e-010 1 -1 -1.346898e-010 58.4724 6.1349)">
		<stop  offset="0" style="stop-color:#010101"/>
		<stop  offset="1" style="stop-color:#1B1C1C"/>
	</linearGradient>
	<path id="XMLID_62_" class="st9" d="M25,16.9c-0.2-1.3-0.6-2.3-0.7-2.6l-0.6,0.1c0,0,0.5,1,0.8,2.7c0.2,1.4,0.2,4.6,0,6
		c-0.2,1.6-0.8,2.7-0.8,2.7l0.6,0.1c0.2-0.4,0.5-1.3,0.7-2.6C25.2,21.7,25.2,18.3,25,16.9z"/>
	
		<linearGradient id="XMLID_83_" gradientUnits="userSpaceOnUse" x1="7.1969" y1="28.3049" x2="20.5391" y2="28.3049" gradientTransform="matrix(-1.346898e-010 1 -1 -1.346898e-010 58.4724 6.1349)">
		<stop  offset="0" style="stop-color:#010101"/>
		<stop  offset="1" style="stop-color:#1B1C1C"/>
	</linearGradient>
	<path id="XMLID_61_" class="st10" d="M29.4,13.8c0.2,0.5,0.6,1.4,0.9,2.8c0.4,2,0.4,4.7,0,6.7c-0.3,1.4-0.7,2.3-0.9,2.8
		c-0.1,0.2-0.2,0.4-0.3,0.4l0,0c0,0,0.4,0.1,0.5,0c0.1-0.1,0.2-0.2,0.3-0.5c0.2-0.5,0.6-1.4,0.9-2.8c0.4-2,0.4-4.7,0-6.7
		c-0.3-1.4-0.7-2.3-0.9-2.8c-0.1-0.3-0.2-0.4-0.3-0.5c-0.1-0.1-0.5,0-0.5,0l0,0C29.2,13.5,29.3,13.6,29.4,13.8z"/>
	
		<linearGradient id="XMLID_84_" gradientUnits="userSpaceOnUse" x1="7.2545" y1="31.0404" x2="20.4811" y2="31.0404" gradientTransform="matrix(-1.346898e-010 1 -1 -1.346898e-010 58.4724 6.1349)">
		<stop  offset="0" style="stop-color:#373C3A"/>
		<stop  offset="1" style="stop-color:#0E0F0F"/>
	</linearGradient>
	<path id="XMLID_60_" class="st11" d="M25,16.9c0.2,1.5,0.2,4.8,0,6.3c-0.2,1.3-0.6,2.3-0.7,2.6l4.9,0.9c0.1-0.1,0.2-0.2,0.3-0.4
		c0.2-0.5,0.6-1.4,0.9-2.8c0.4-2,0.4-4.7,0-6.7c-0.3-1.4-0.7-2.3-0.9-2.8c-0.1-0.2-0.2-0.4-0.3-0.4l-4.9,0.9
		C24.4,14.6,24.8,15.5,25,16.9z"/>
	<g id="XMLID_57_">
		
			<linearGradient id="XMLID_85_" gradientUnits="userSpaceOnUse" x1="6.7441" y1="34.6677" x2="8.0468" y2="34.6677" gradientTransform="matrix(-1.346898e-010 1 -1 -1.346898e-010 58.4724 6.1349)">
			<stop  offset="0" style="stop-color:#373C3A"/>
			<stop  offset="1" style="stop-color:#010101"/>
		</linearGradient>
		<path id="XMLID_59_" class="st12" d="M21,13.1c-1.2,0-2,0-2.4-0.1l-0.4,1.1v0.1l5-0.2l6-1.1c0,0-1.5-0.1-3.7,0
			C24.2,13,22.3,13.1,21,13.1z"/>
		
			<linearGradient id="XMLID_86_" gradientUnits="userSpaceOnUse" x1="19.6891" y1="34.6677" x2="20.992" y2="34.6677" gradientTransform="matrix(-1.346898e-010 1 -1 -1.346898e-010 58.4724 6.1349)">
			<stop  offset="0" style="stop-color:#373C3A"/>
			<stop  offset="1" style="stop-color:#010101"/>
		</linearGradient>
		<path id="XMLID_58_" class="st13" d="M18.3,25.9l0.4,1.1c0.4,0,1.2-0.1,2.4-0.1c1.2,0,3.1,0.2,4.5,0.2c2.2,0.1,3.7,0,3.7,0l-6-1.1
			L18.3,25.9L18.3,25.9z"/>
	</g>
	<g id="XMLID_54_">
		
			<radialGradient id="XMLID_87_" cx="8.4316" cy="19.3983" r="1.2688" gradientTransform="matrix(-1.346898e-010 1 -1.0473 -1.410606e-010 58.6148 6.1349)" gradientUnits="userSpaceOnUse">
			<stop  offset="0" style="stop-color:#FFFFFF"/>
			<stop  offset="1" style="stop-color:#D3D6D5"/>
		</radialGradient>
		<path id="XMLID_56_" class="st14" d="M37.4,13.8l1.4,1.9c0.1,0.2,0.4,0.3,0.6,0.4c-0.2-0.5-0.4-1-0.7-1.4c-0.5-0.7-1-1.2-1.4-1.6
			C37.2,13.3,37.2,13.6,37.4,13.8z"/>
		
			<radialGradient id="XMLID_88_" cx="19.3041" cy="19.3983" r="1.2688" gradientTransform="matrix(-1.346898e-010 1 -1.0473 -1.410606e-010 58.6148 6.1349)" gradientUnits="userSpaceOnUse">
			<stop  offset="0" style="stop-color:#FFFFFF"/>
			<stop  offset="1" style="stop-color:#D3D6D5"/>
		</radialGradient>
		<path id="XMLID_55_" class="st15" d="M38.8,24.3l-1.4,1.9c-0.1,0.2-0.2,0.4-0.1,0.7c0.5-0.4,0.9-0.9,1.4-1.6
			c0.3-0.3,0.5-0.8,0.7-1.4C39.1,24,38.9,24.1,38.8,24.3z"/>
	</g>
	<path id="XMLID_53_" class="st16" d="M31.2,14.7c0,0,2.4,1.5,3.2,1.7c0.7,0.1,2.7-0.1,2.7-0.1s-2-0.1-2.6-0.3
		C33.7,15.8,31.2,14.7,31.2,14.7z"/>
	<path id="XMLID_52_" class="st16" d="M31.2,25.3c0,0,2.4-1.5,3.2-1.7c0.7-0.1,2.7,0.1,2.7,0.1s-2,0.1-2.6,0.3
		C33.7,24.2,31.2,25.3,31.2,25.3z"/>
	
		<linearGradient id="XMLID_89_" gradientUnits="userSpaceOnUse" x1="13.8421" y1="29.7168" x2="17.5458" y2="32.3503" gradientTransform="matrix(-1.346898e-010 1 -1 -1.346898e-010 58.4724 6.1349)">
		<stop  offset="0" style="stop-color:#373C3A"/>
		<stop  offset="1" style="stop-color:#010101"/>
	</linearGradient>
	<path id="XMLID_51_" class="st17" d="M29.4,26.2c0.2-0.5,0.6-1.4,0.9-2.8c0.1-0.5,0.2-1,0.2-1.6c-1.5-1.4-4.3-3.1-5.5-3.8
		c0.1,1.6,0.1,4-0.1,5.1c-0.2,1.3-0.6,2.3-0.7,2.6l4.9,0.9C29.2,26.5,29.3,26.4,29.4,26.2z"/>
	
		<linearGradient id="XMLID_90_" gradientUnits="userSpaceOnUse" x1="11.334" y1="33.4608" x2="25.8626" y2="57.3078" gradientTransform="matrix(-1.346898e-010 1 -1 -1.346898e-010 58.4724 6.1349)">
		<stop  offset="0" style="stop-color:#EE2F44"/>
		<stop  offset="1" style="stop-color:#E8233D"/>
	</linearGradient>
	<path id="XMLID_50_" class="st18" d="M18.2,25.4c2.6,0.1,5.2,0.1,5.2,0.1s0.7-1.4,0.7-5.5c0.1-4.1-0.7-5.5-0.7-5.5s-2.6,0-5.2,0.1
		V25.4z"/>
	
		<linearGradient id="XMLID_91_" gradientUnits="userSpaceOnUse" x1="5.3443" y1="16.7027" x2="8.8491" y2="26.7951" gradientTransform="matrix(-1.346898e-010 1 -1 -1.346898e-010 58.4724 6.1349)">
		<stop  offset="0" style="stop-color:#EE2F44"/>
		<stop  offset="1" style="stop-color:#E8233D"/>
	</linearGradient>
	<path id="XMLID_49_" class="st19" d="M38.5,15.7c0,0-0.4-2.5-3.2-2.7c-2.8-0.3-5.1-0.5-5.1-0.5S37,13.6,38.5,15.7z"/>
	
		<linearGradient id="XMLID_92_" gradientUnits="userSpaceOnUse" x1="47.2972" y1="16.7027" x2="50.8021" y2="26.7951" gradientTransform="matrix(1.346898e-010 -1 -1 -1.346898e-010 58.4724 75.838)">
		<stop  offset="0" style="stop-color:#EE2F44"/>
		<stop  offset="1" style="stop-color:#E8233D"/>
	</linearGradient>
	<path id="XMLID_48_" class="st20" d="M38.5,24.3c0,0-0.4,2.5-3.2,2.7c-2.8,0.3-5.1,0.5-5.1,0.5S37,26.5,38.5,24.3z"/>
	
		<linearGradient id="XMLID_93_" gradientUnits="userSpaceOnUse" x1="20.7557" y1="29.7801" x2="22.1782" y2="32.5343" gradientTransform="matrix(-1.346898e-010 1 -1 -1.346898e-010 58.4724 6.1349)">
		<stop  offset="0" style="stop-color:#373C3A"/>
		<stop  offset="1" style="stop-color:#1B1C1C"/>
	</linearGradient>
	<path id="XMLID_47_" class="st21" d="M28.9,27c0,0-0.1,0.6-0.7,0.7c-0.5,0-1.7-0.6-1-0.7C28,27,28.7,27,28.9,27z"/>
	
		<radialGradient id="XMLID_94_" cx="22.2641" cy="30.6091" r="0.7351" gradientTransform="matrix(-1.346898e-010 1 -1 -1.346898e-010 58.4724 6.1349)" gradientUnits="userSpaceOnUse">
		<stop  offset="0" style="stop-color:#EE243C"/>
		<stop  offset="1" style="stop-color:#D2202B"/>
	</radialGradient>
	<path id="XMLID_46_" class="st22" d="M27.7,29.3c0.2-0.1,0.6-1.4,0.6-1.4c0.1-0.3-0.1-0.3-0.3-0.4l-0.6,1.9
		C27.5,29.3,27.6,29.3,27.7,29.3z"/>
	
		<linearGradient id="XMLID_95_" gradientUnits="userSpaceOnUse" x1="21.3158" y1="30.8472" x2="23.1976" y2="30.8472" gradientTransform="matrix(-1.346898e-010 1 -1 -1.346898e-010 58.4724 6.1349)">
		<stop  offset="0" style="stop-color:#373C3A"/>
		<stop  offset="1" style="stop-color:#1B1C1C"/>
	</linearGradient>
	<path id="XMLID_45_" class="st23" d="M28,27.5c-0.1,0-0.2,0-0.2,0l-0.5,1.8c0,0,0.1,0,0.1,0L28,27.5z"/>
	
		<linearGradient id="XMLID_96_" gradientUnits="userSpaceOnUse" x1="6.4891" y1="30.0239" x2="7.73" y2="32.7478" gradientTransform="matrix(-1.346898e-010 1 -1 -1.346898e-010 58.4724 6.1349)">
		<stop  offset="0" style="stop-color:#373C3A"/>
		<stop  offset="1" style="stop-color:#1B1C1C"/>
	</linearGradient>
	<path id="XMLID_44_" class="st24" d="M29,13c0,0-0.1-0.7-0.7-0.7c-0.5,0-1.7,0.7-1,0.7C28,13,28.7,13,29,13z"/>
	
		<radialGradient id="XMLID_97_" cx="5.4678" cy="30.5836" r="0.7402" gradientTransform="matrix(-1.346898e-010 1 -1 -1.346898e-010 58.4724 6.1349)" gradientUnits="userSpaceOnUse">
		<stop  offset="0" style="stop-color:#EE243C"/>
		<stop  offset="1" style="stop-color:#D2202B"/>
	</radialGradient>
	<path id="XMLID_43_" class="st25" d="M28.3,12.2c0,0-0.4-1.3-0.6-1.4c-0.1-0.1-0.2-0.1-0.3,0l0.6,1.8
		C28.2,12.5,28.4,12.4,28.3,12.2z"/>
	
		<linearGradient id="XMLID_98_" gradientUnits="userSpaceOnUse" x1="4.5322" y1="30.8201" x2="6.4146" y2="30.8201" gradientTransform="matrix(-1.346898e-010 1 -1 -1.346898e-010 58.4724 6.1349)">
		<stop  offset="0" style="stop-color:#373C3A"/>
		<stop  offset="1" style="stop-color:#1B1C1C"/>
	</linearGradient>
	<path id="XMLID_42_" class="st26" d="M27.4,10.7C27.4,10.7,27.3,10.7,27.4,10.7l0.4,1.9c0,0,0.1,0,0.2,0L27.4,10.7z"/>
	<path id="XMLID_41_" class="st27" d="M21.7,12.2c0-0.1-0.1-0.2-0.2-0.2h-1.4c-0.1,0-0.2,0.1-0.2,0.2H21.7z"/>
	<path id="XMLID_40_" class="st27" d="M21.7,27.8c0,0.1-0.1,0.2-0.2,0.2h-1.4c-0.1,0-0.2-0.1-0.2-0.2H21.7z"/>
	<g id="XMLID_29_">
		<g id="XMLID_35_">
			<g id="XMLID_36_">
				<path id="XMLID_39_" class="st28" d="M31.7,16.3c0,0.3,0.2,0.4,0.2,0.7c0,0,0,0,0,0c0,0,0,0,0,0C32,16.7,31.8,16.6,31.7,16.3
					C31.8,16.3,31.8,16.2,31.7,16.3C31.7,16.2,31.7,16.3,31.7,16.3z"/>
				<path id="XMLID_38_" class="st28" d="M31.8,17c0-0.3-0.2-0.4-0.2-0.7c0,0,0,0,0,0c0,0,0,0,0,0C31.6,16.6,31.7,16.7,31.8,17
					C31.8,17,31.8,17,31.8,17C31.8,17,31.8,17,31.8,17z"/>
				<path id="XMLID_37_" class="st28" d="M31.7,17c0-0.3-0.2-0.4-0.2-0.7c0,0,0,0,0,0c0,0,0,0,0,0C31.4,16.6,31.6,16.7,31.7,17
					C31.6,17,31.6,17,31.7,17C31.7,17,31.7,17,31.7,17z"/>
			</g>
		</g>
		<g id="XMLID_30_">
			<g id="XMLID_31_">
				<path id="XMLID_34_" class="st28" d="M31.7,23.7c0-0.3,0.2-0.4,0.2-0.7c0,0,0,0,0,0c0,0,0,0,0,0C32,23.3,31.8,23.4,31.7,23.7
					C31.8,23.7,31.8,23.8,31.7,23.7C31.7,23.8,31.7,23.7,31.7,23.7z"/>
				<path id="XMLID_33_" class="st28" d="M31.8,23c0,0.3-0.2,0.4-0.2,0.7c0,0,0,0,0,0c0,0,0,0,0,0C31.6,23.4,31.7,23.3,31.8,23
					C31.8,23,31.8,23,31.8,23C31.8,23,31.8,23,31.8,23z"/>
				<path id="XMLID_32_" class="st28" d="M31.7,23c0,0.3-0.2,0.4-0.2,0.7c0,0,0,0,0,0c0,0,0,0,0,0C31.4,23.4,31.6,23.3,31.7,23
					C31.6,23,31.6,23,31.7,23C31.7,23,31.7,23,31.7,23z"/>
			</g>
		</g>
	</g>
	
		<linearGradient id="XMLID_99_" gradientUnits="userSpaceOnUse" x1="12.4007" y1="38.6803" x2="20.3608" y2="51.746" gradientTransform="matrix(-1.346898e-010 1 -1 -1.346898e-010 58.4724 6.1349)">
		<stop  offset="0" style="stop-color:#373C3A"/>
		<stop  offset="1" style="stop-color:#1B1C1C"/>
	</linearGradient>
	<polygon id="XMLID_28_" class="st29" points="18,24.6 18,20 18,20 18,15.4 17.3,15.1 17.3,20 17.3,20 17.3,24.9 	"/>
	<g id="XMLID_17_">
		<path id="XMLID_27_" class="st30" d="M15.4,14.2c-0.1,0-0.1,0.1-0.1,0.1v0.4c0,0.1,0.1,0.1,0.1,0.1h1.4v-0.6H15.4z"/>
		<path id="XMLID_26_" class="st30" d="M15.4,15.5c-0.1,0-0.1,0.1-0.1,0.1V16c0,0.1,0.1,0.1,0.1,0.1h1.4v-0.6H15.4z"/>
		<path id="XMLID_25_" class="st30" d="M15.4,16.7c-0.1,0-0.1,0.1-0.1,0.1v0.4c0,0.1,0.1,0.1,0.1,0.1h1.4v-0.6H15.4z"/>
		<path id="XMLID_24_" class="st30" d="M15.4,17.9c-0.1,0-0.1,0.1-0.1,0.1v0.4c0,0.1,0.1,0.1,0.1,0.1h1.4v-0.6H15.4z"/>
		<path id="XMLID_23_" class="st30" d="M15.4,19.1c-0.1,0-0.1,0.1-0.1,0.1v0.4c0,0.1,0.1,0.1,0.1,0.1h1.4v-0.6H15.4z"/>
		<path id="XMLID_22_" class="st30" d="M15.4,20.3c-0.1,0-0.1,0.1-0.1,0.1v0.4c0,0.1,0.1,0.1,0.1,0.1h1.4v-0.6H15.4z"/>
		<path id="XMLID_21_" class="st30" d="M15.4,21.5c-0.1,0-0.1,0.1-0.1,0.1V22c0,0.1,0.1,0.1,0.1,0.1h1.4v-0.6H15.4z"/>
		<path id="XMLID_20_" class="st30" d="M15.4,22.7c-0.1,0-0.1,0.1-0.1,0.1v0.4c0,0.1,0.1,0.1,0.1,0.1h1.4v-0.6H15.4z"/>
		<path id="XMLID_19_" class="st30" d="M15.4,23.9c-0.1,0-0.1,0.1-0.1,0.1v0.4c0,0.1,0.1,0.1,0.1,0.1h1.4v-0.6H15.4z"/>
		<path id="XMLID_18_" class="st30" d="M15.4,25.1c-0.1,0-0.1,0.1-0.1,0.1v0.4c0,0.1,0.1,0.1,0.1,0.1h1.4v-0.6H15.4z"/>
	</g>
	<g id="XMLID_3_">
		<rect id="XMLID_16_" x="2.5" y="15" class="st30" width="12" height="0.2"/>
		<rect id="XMLID_15_" x="2.5" y="15.8" class="st30" width="12" height="0.2"/>
		<rect id="XMLID_14_" x="2.5" y="16.7" class="st30" width="12" height="0.2"/>
		<rect id="XMLID_13_" x="2.5" y="17.5" class="st30" width="12" height="0.2"/>
		<rect id="XMLID_12_" x="2.5" y="18.3" class="st30" width="12" height="0.2"/>
		<rect id="XMLID_11_" x="2.5" y="19.1" class="st30" width="12" height="0.2"/>
		<rect id="XMLID_10_" x="2.5" y="19.9" class="st30" width="12" height="0.2"/>
		<rect id="XMLID_9_" x="2.5" y="20.7" class="st30" width="12" height="0.2"/>
		<rect id="XMLID_8_" x="2.5" y="21.5" class="st30" width="12" height="0.2"/>
		<rect id="XMLID_7_" x="2.5" y="22.3" class="st30" width="12" height="0.2"/>
		<rect id="XMLID_6_" x="2.5" y="23.1" class="st30" width="12" height="0.2"/>
		<rect id="XMLID_5_" x="2.5" y="24" class="st30" width="12" height="0.2"/>
		<rect id="XMLID_4_" x="2.5" y="24.8" class="st30" width="12" height="0.2"/>
	</g>
</g>
</svg>
