<?xml version="1.0" encoding="utf-8"?>
<!-- Generator: Adobe Illustrator 19.0.0, SVG Export Plug-In . SVG Version: 6.00 Build 0)  -->
<svg version="1.1" id="Layer_1" xmlns="http://www.w3.org/2000/svg" xmlns:xlink="http://www.w3.org/1999/xlink" x="0px" y="0px"
	 viewBox="0 0 40 40" style="enable-background:new 0 0 40 40;" xml:space="preserve">
<style type="text/css">
	.Drop_x0020_Shadow{fill:none;}
	.Round_x0020_Corners_x0020_2_x0020_pt{fill:#FFFFFF;stroke:#000000;stroke-miterlimit:10;}
	.Live_x0020_Reflect_x0020_X{fill:none;}
	.Bevel_x0020_Soft{fill:url(#SVGID_1_);}
	.Dusk{fill:#FFFFFF;}
	.Foliage_GS{fill:#FFDD00;}
	.Pompadour_GS{fill-rule:evenodd;clip-rule:evenodd;fill:#44ADE2;}
	.st0{fill:url(#XMLID_50_);}
	.st1{fill:url(#XMLID_51_);}
	.st2{fill:url(#XMLID_52_);}
	.st3{fill:url(#XMLID_53_);}
	.st4{fill:url(#XMLID_54_);}
	.st5{fill:url(#XMLID_55_);}
	.st6{fill:url(#XMLID_56_);}
	.st7{fill:url(#XMLID_57_);}
	.st8{fill:url(#XMLID_61_);}
	.st9{fill:url(#XMLID_62_);}
	.st10{fill:url(#XMLID_63_);}
	.st11{fill:url(#XMLID_66_);}
	.st12{fill:#5A4B43;}
	.st13{fill:url(#XMLID_67_);}
	.st14{fill:url(#XMLID_68_);}
	.st15{fill:url(#XMLID_69_);}
	.st16{fill:url(#XMLID_70_);}
	.st17{fill:url(#XMLID_71_);}
	.st18{fill:url(#XMLID_72_);}
	.st19{fill:url(#XMLID_74_);}
	.st20{fill:url(#XMLID_75_);}
	.st21{fill:url(#XMLID_76_);}
	.st22{fill:url(#XMLID_78_);}
	.st23{fill:url(#XMLID_79_);}
	.st24{fill:url(#XMLID_80_);}
	.st25{fill:url(#XMLID_81_);}
	.st26{fill:url(#XMLID_82_);}
	.st27{fill:#5A5A5A;}
	.st28{fill:#9E9E9E;}
	.st29{fill:url(#XMLID_83_);}
	.st30{fill:url(#XMLID_84_);}
	.st31{fill:url(#XMLID_85_);}
	.st32{fill:url(#XMLID_86_);}
	.st33{fill:#FDB515;}
	.st34{fill:#D7D6D6;}
</style>
<linearGradient id="SVGID_1_" gradientUnits="userSpaceOnUse" x1="0" y1="0" x2="0.7071" y2="0.7071">
	<stop  offset="0" style="stop-color:#DEDFE3"/>
	<stop  offset="0.1738" style="stop-color:#D8D9DD"/>
	<stop  offset="0.352" style="stop-color:#C9CACD"/>
	<stop  offset="0.5323" style="stop-color:#B4B5B8"/>
	<stop  offset="0.7139" style="stop-color:#989A9C"/>
	<stop  offset="0.8949" style="stop-color:#797C7E"/>
	<stop  offset="1" style="stop-color:#656B6C"/>
</linearGradient>
<g id="XMLID_49_">
	
		<radialGradient id="XMLID_50_" cx="-1.8056" cy="-4047.5139" r="22.0269" gradientTransform="matrix(-6.140421e-011 0.4559 -1.0603 -1.428158e-010 -4271.9902 20.8262)" gradientUnits="userSpaceOnUse">
		<stop  offset="0" style="stop-color:#F7F8F8"/>
		<stop  offset="1" style="stop-color:#A9ACAB"/>
	</radialGradient>
	<path id="XMLID_47_" class="st0" d="M33.6,28c1.8-0.2,2.7-0.5,3.4-1c-0.1-0.2,0-0.4,0.2-0.6l1.5-1.9c0.2-0.2,0.4-0.3,0.7-0.3
		c0-0.1,0.1-0.2,0.1-0.3h-1.9v-7.7h1.9c0-0.1-0.1-0.2-0.1-0.3c-0.3,0-0.5-0.1-0.7-0.3l-1.5-1.9C37,13.5,36.9,13.2,37,13
		c-0.7-0.5-1.6-0.8-3.4-1c-4.7-0.5-12,0.3-13.8,0.3c-9.6-0.1-15.5-0.2-17.5,0.4c-0.4,0.1-0.7,0.4-1,0.8c0,0.1,0.1,0.2,0.1,0.3
		c0,0.7-0.5,1-0.3,1.7c0.1,0.5-0.4,0.7-0.7,0.7c-0.1,0.4-0.1,0.9-0.2,1.3c0.1,0.1,0.2,0.2,0.2,0.3v4.3c0,0.1-0.1,0.2-0.2,0.3
		c0,0.3,0.1,0.6,0.1,1c0.3,0,0.8,0.2,0.7,0.7c-0.1,0.7,0.3,1.1,0.3,1.7c0,0.2-0.1,0.4-0.2,0.4c0.3,0.5,0.6,0.8,1.1,0.9
		c2,0.6,7.9,0.5,17.5,0.4C21.6,27.6,28.9,28.5,33.6,28z"/>
	
		<linearGradient id="XMLID_51_" gradientUnits="userSpaceOnUse" x1="9.4306" y1="19.8049" x2="17.1186" y2="19.8049" gradientTransform="matrix(-1.346898e-010 1 -1 -1.346898e-010 58.549 6.7282)">
		<stop  offset="0" style="stop-color:#373C3A"/>
		<stop  offset="1" style="stop-color:#1B1C1C"/>
	</linearGradient>
	<path id="XMLID_46_" class="st1" d="M37.5,23.8h1.9c0.8-2.2,0.8-5.5,0-7.7h-1.9V23.8z"/>
	
		<radialGradient id="XMLID_52_" cx="-1.8058" cy="-5934.0044" r="17.6132" gradientTransform="matrix(-6.140421e-011 0.4559 -1.9543 -2.632239e-010 -11576.5889 20.8262)" gradientUnits="userSpaceOnUse">
		<stop  offset="0" style="stop-color:#FFFFFF"/>
		<stop  offset="1" style="stop-color:#D3D6D5"/>
	</radialGradient>
	<path id="XMLID_45_" class="st2" d="M33.3,27.5c2.9-0.3,3.4-0.9,4.8-2.4c1.9-2,1.9-8.2,0-10.2c-1.4-1.5-1.9-2.1-4.8-2.4
		c-4.5-0.5-11.6,0.3-13.3,0.3c-9.3-0.1-14.9-0.2-16.9,0.4C0.8,13.8,1,20,1,20c0,0-0.1,6.2,2.1,6.8c2,0.5,7.6,0.5,16.9,0.4
		C21.7,27.2,28.8,28,33.3,27.5z"/>
	
		<linearGradient id="XMLID_53_" gradientUnits="userSpaceOnUse" x1="7.6459" y1="35.5798" x2="18.9036" y2="35.5798" gradientTransform="matrix(-1.346898e-010 1 -1 -1.346898e-010 58.549 6.7282)">
		<stop  offset="0" style="stop-color:#010101"/>
		<stop  offset="1" style="stop-color:#1B1C1C"/>
	</linearGradient>
	<path id="XMLID_44_" class="st3" d="M23.6,16.9c-0.2-1.3-0.6-2.2-0.8-2.6l-0.6,0.1c0,0,0.6,1,0.8,2.6c0.2,1.4,0.2,4.5,0,5.9
		c-0.3,1.6-0.8,2.6-0.8,2.6l0.6,0.1c0.2-0.3,0.6-1.3,0.8-2.6C23.8,21.6,23.8,18.4,23.6,16.9z"/>
	
		<linearGradient id="XMLID_54_" gradientUnits="userSpaceOnUse" x1="6.7568" y1="29.2763" x2="19.7926" y2="29.2763" gradientTransform="matrix(-1.346898e-010 1 -1 -1.346898e-010 58.549 6.7282)">
		<stop  offset="0" style="stop-color:#010101"/>
		<stop  offset="1" style="stop-color:#1B1C1C"/>
	</linearGradient>
	<path id="XMLID_43_" class="st4" d="M28.4,14c0.2,0.5,0.7,1.4,1,2.8c0.5,2,0.5,4.6,0,6.6c-0.3,1.4-0.7,2.2-1,2.8
		c-0.1,0.2-0.2,0.4-0.3,0.4l0,0c0,0,0.5,0.1,0.6,0c0.1-0.1,0.2-0.2,0.3-0.5c0.2-0.5,0.7-1.4,1-2.8c0.5-2,0.5-4.6,0-6.6
		c-0.3-1.4-0.7-2.2-1-2.8c-0.1-0.3-0.2-0.4-0.3-0.5c-0.1-0.1-0.6,0-0.6,0l0,0C28.2,13.6,28.3,13.8,28.4,14z"/>
	
		<linearGradient id="XMLID_55_" gradientUnits="userSpaceOnUse" x1="6.8133" y1="32.2611" x2="19.7362" y2="32.2611" gradientTransform="matrix(-1.346898e-010 1 -1 -1.346898e-010 58.549 6.7282)">
		<stop  offset="0" style="stop-color:#373C3A"/>
		<stop  offset="1" style="stop-color:#1B1C1C"/>
	</linearGradient>
	<path id="XMLID_42_" class="st5" d="M23.6,16.9c0.2,1.4,0.2,4.7,0,6.1c-0.2,1.3-0.6,2.2-0.8,2.6l5.3,0.8c0.1-0.1,0.2-0.2,0.3-0.4
		c0.2-0.5,0.7-1.4,1-2.8c0.5-2,0.5-4.6,0-6.6c-0.3-1.4-0.7-2.2-1-2.8c-0.1-0.2-0.2-0.4-0.3-0.4l-5.3,0.8
		C23,14.7,23.4,15.6,23.6,16.9z"/>
	
		<linearGradient id="XMLID_56_" gradientUnits="userSpaceOnUse" x1="7.2528" y1="52.6008" x2="19.2967" y2="52.6008" gradientTransform="matrix(-1.346898e-010 1 -1 -1.346898e-010 58.549 6.7282)">
		<stop  offset="0" style="stop-color:#010101"/>
		<stop  offset="1" style="stop-color:#1B1C1C"/>
	</linearGradient>
	<path id="XMLID_98_" class="st6" d="M8.3,25.7c0.2,0,0.5-0.1,0.7-0.2c0,0,0-0.1-0.1-0.2C8.6,24.7,8,23,8,20c0-2.8,0.6-4.7,0.8-5.3
		c0.1-0.2,0.1-0.2,0.1-0.2c-0.2-0.1-0.4-0.1-0.7-0.2C6.1,13.8,4,14,4,14s-0.6,1.2-0.9,3c-0.2,1.3-0.2,4.7,0,6C3.5,24.8,4,26,4,26
		S6.1,26.2,8.3,25.7z M4.6,25.6c0,0-0.6-1.1-0.9-2.7c-0.2-1.2-0.2-4.4,0-5.6c0.3-1.6,0.9-2.7,0.9-2.7s1.7-0.2,3.6,0.1
		c-0.3,1-0.7,2.9-0.7,5.4c0,2.7,0.4,4.5,0.6,5.4C6.2,25.7,4.6,25.6,4.6,25.6z"/>
	
		<linearGradient id="XMLID_57_" gradientUnits="userSpaceOnUse" x1="7.6742" y1="52.6982" x2="18.8756" y2="52.6982" gradientTransform="matrix(-1.346898e-010 1 -1 -1.346898e-010 58.549 6.7282)">
		<stop  offset="0" style="stop-color:#373C3A"/>
		<stop  offset="1" style="stop-color:#1B1C1C"/>
	</linearGradient>
	<path id="XMLID_39_" class="st7" d="M8.2,14.6c-1.9-0.3-3.6-0.1-3.6-0.1S4,15.6,3.7,17.2c-0.2,1.2-0.2,4.4,0,5.6
		c0.3,1.6,0.9,2.7,0.9,2.7s1.7,0.2,3.6-0.1c-0.3-1-0.6-2.7-0.6-5.4C7.5,17.5,7.9,15.6,8.2,14.6z"/>
	<g id="XMLID_94_">
		
			<linearGradient id="XMLID_61_" gradientUnits="userSpaceOnUse" x1="6.3145" y1="36.2306" x2="7.5883" y2="36.2306" gradientTransform="matrix(-1.346898e-010 1 -1 -1.346898e-010 58.549 6.7282)">
			<stop  offset="0" style="stop-color:#373C3A"/>
			<stop  offset="1" style="stop-color:#1B1C1C"/>
		</linearGradient>
		<path id="XMLID_38_" class="st8" d="M16.7,13.2l-0.4,1.1l5.5-0.2l6.5-1c0,0-1.7-0.1-4.1,0c-1.5,0.1-3.6,0.2-4.9,0.2
			C18,13.3,17.2,13.3,16.7,13.2z"/>
		
			<linearGradient id="XMLID_62_" gradientUnits="userSpaceOnUse" x1="18.9613" y1="36.2306" x2="20.2352" y2="36.2306" gradientTransform="matrix(-1.346898e-010 1 -1 -1.346898e-010 58.549 6.7282)">
			<stop  offset="0" style="stop-color:#373C3A"/>
			<stop  offset="1" style="stop-color:#1B1C1C"/>
		</linearGradient>
		<path id="XMLID_37_" class="st9" d="M16.7,26.8l-0.4-1.1l5.5,0.2l6.5,1c0,0-1.7,0.1-4.1,0c-1.5-0.1-3.6-0.2-4.9-0.2
			C18,26.7,17.2,26.7,16.7,26.8z"/>
	</g>
	<g id="XMLID_91_">
		
			<linearGradient id="XMLID_63_" gradientUnits="userSpaceOnUse" x1="6.4051" y1="46.3173" x2="7.7221" y2="46.3173" gradientTransform="matrix(-1.346898e-010 1 -1 -1.346898e-010 58.549 6.7282)">
			<stop  offset="0" style="stop-color:#373C3A"/>
			<stop  offset="1" style="stop-color:#1B1C1C"/>
		</linearGradient>
		<path id="XMLID_36_" class="st10" d="M16.2,13.2l-0.5,1.1l-4.6,0.1c0,0-0.6-0.1-1.5-0.5c-1.1-0.5-1.4-0.7-1.4-0.7
			S14.5,13.1,16.2,13.2z"/>
		
			<linearGradient id="XMLID_66_" gradientUnits="userSpaceOnUse" x1="18.8275" y1="46.3173" x2="20.1444" y2="46.3173" gradientTransform="matrix(-1.346898e-010 1 -1 -1.346898e-010 58.549 6.7282)">
			<stop  offset="0" style="stop-color:#373C3A"/>
			<stop  offset="1" style="stop-color:#1B1C1C"/>
		</linearGradient>
		<path id="XMLID_35_" class="st11" d="M16.2,26.8l-0.5-1.1l-4.6-0.1c0,0-0.6,0.1-1.5,0.5c-1.1,0.5-1.4,0.7-1.4,0.7
			S14.5,26.9,16.2,26.8z"/>
	</g>
	<path id="XMLID_34_" class="st12" d="M1,15.5c-0.1-0.7,0.3-1.1,0.3-1.7c0-0.1,0-0.2-0.1-0.3c-0.5,0.7-0.8,1.7-1,2.7
		C0.6,16.2,1.1,16,1,15.5z"/>
	<path id="XMLID_33_" class="st12" d="M1,24.2c0.1-0.5-0.4-0.7-0.7-0.7c0.2,1.1,0.4,2.1,0.9,2.9c0.1-0.1,0.2-0.2,0.2-0.4
		C1.3,25.2,0.8,24.9,1,24.2z"/>
	
		<linearGradient id="XMLID_67_" gradientUnits="userSpaceOnUse" x1="8.1663" y1="27.211" x2="10.1739" y2="20.9148" gradientTransform="matrix(-1.346898e-010 1 -1 -1.346898e-010 58.549 6.7282)">
		<stop  offset="0" style="stop-color:#D2DBDA"/>
		<stop  offset="1" style="stop-color:#B5B6B6"/>
	</linearGradient>
	<path id="XMLID_32_" class="st13" d="M30.4,14.8c0,0,2.6,1.3,3.5,1.4c0.7,0.1,3-0.1,3-0.1s-2.2-0.1-2.9-0.3
		C33.1,15.7,30.4,14.8,30.4,14.8z"/>
	
		<linearGradient id="XMLID_68_" gradientUnits="userSpaceOnUse" x1="18.2261" y1="27.5913" x2="16.6259" y2="21.2361" gradientTransform="matrix(-1.346898e-010 1 -1 -1.346898e-010 58.549 6.7282)">
		<stop  offset="0" style="stop-color:#D2DBDA"/>
		<stop  offset="1" style="stop-color:#B5B6B6"/>
	</linearGradient>
	<path id="XMLID_31_" class="st14" d="M30.4,25.2c0,0,2.6-1.3,3.5-1.4c0.7-0.1,3,0.1,3,0.1s-2.2,0.1-2.9,0.3
		C33.1,24.3,30.4,25.2,30.4,25.2z"/>
	
		<linearGradient id="XMLID_69_" gradientUnits="userSpaceOnUse" x1="19.37" y1="28.546" x2="17.2367" y2="20.0733" gradientTransform="matrix(-1.346898e-010 1 -1 -1.346898e-010 58.549 6.7282)">
		<stop  offset="0" style="stop-color:#D2DBDA"/>
		<stop  offset="1" style="stop-color:#B5B6B6"/>
	</linearGradient>
	<path id="XMLID_30_" class="st15" d="M29.4,26.8c0,0,3.4-2.1,4.7-2.4c1-0.2,3.9,0.1,3.9,0.1s-2.8,0.2-3.8,0.4
		C33,25.4,29.4,26.8,29.4,26.8z"/>
	
		<linearGradient id="XMLID_70_" gradientUnits="userSpaceOnUse" x1="-113.447" y1="28.546" x2="-115.5804" y2="20.0733" gradientTransform="matrix(1.346898e-010 -1 -1 -1.346898e-010 58.549 -99.5394)">
		<stop  offset="0" style="stop-color:#D2DBDA"/>
		<stop  offset="1" style="stop-color:#B5B6B6"/>
	</linearGradient>
	<path id="XMLID_29_" class="st16" d="M29.4,13.2c0,0,3.4,2.1,4.7,2.4c1,0.2,3.9-0.1,3.9-0.1s-2.8-0.2-3.8-0.4
		C33,14.6,29.4,13.2,29.4,13.2z"/>
	
		<linearGradient id="XMLID_71_" gradientUnits="userSpaceOnUse" x1="13.1232" y1="30.9119" x2="16.9164" y2="33.6091" gradientTransform="matrix(-1.346898e-010 1 -1 -1.346898e-010 58.549 6.7282)">
		<stop  offset="0" style="stop-color:#373C3A"/>
		<stop  offset="1" style="stop-color:#010101"/>
	</linearGradient>
	<path id="XMLID_28_" class="st17" d="M28.4,26c0.2-0.5,0.7-1.4,1-2.8c0.1-0.5,0.2-1,0.3-1.5c-1.7-1.4-4.7-3-6-3.7
		c0.1,1.6,0.1,3.9-0.1,5c-0.2,1.3-0.6,2.2-0.8,2.6l5.3,0.8C28.2,26.4,28.3,26.3,28.4,26z"/>
	
		<linearGradient id="XMLID_72_" gradientUnits="userSpaceOnUse" x1="9.3805" y1="35.9613" x2="24.483" y2="60.7503" gradientTransform="matrix(-1.346898e-010 1 -1 -1.346898e-010 58.549 6.7282)">
		<stop  offset="0" style="stop-color:#F7F8F8"/>
		<stop  offset="1" style="stop-color:#DCDBDB"/>
	</linearGradient>
	<path id="XMLID_27_" class="st18" d="M22.6,20c0.1-4-0.7-5.4-0.7-5.4S11,14.7,9.9,15c-0.7,0.2-1.1,2.7-1.2,4.3v1.3
		c0.1,1.6,0.5,4.1,1.2,4.3c1.1,0.3,11.9,0.4,11.9,0.4S22.7,24,22.6,20z"/>
	
		<linearGradient id="XMLID_74_" gradientUnits="userSpaceOnUse" x1="4.4747" y1="16.4497" x2="8.3847" y2="27.7087" gradientTransform="matrix(-1.346898e-010 1 -1 -1.346898e-010 58.549 6.7282)">
		<stop  offset="0" style="stop-color:#F7F8F8"/>
		<stop  offset="1" style="stop-color:#DCDBDB"/>
	</linearGradient>
	<path id="XMLID_26_" class="st19" d="M38.3,15.5c0,0-1.4-2.4-4.4-2.7c-3.1-0.3-4.7-0.2-4.7-0.2S36.7,13.5,38.3,15.5z"/>
	
		<linearGradient id="XMLID_75_" gradientUnits="userSpaceOnUse" x1="47.6146" y1="16.4496" x2="51.5247" y2="27.7088" gradientTransform="matrix(1.346898e-010 -1 -1 -1.346898e-010 58.549 76.4313)">
		<stop  offset="0" style="stop-color:#F7F8F8"/>
		<stop  offset="1" style="stop-color:#DCDBDB"/>
	</linearGradient>
	<path id="XMLID_25_" class="st20" d="M38.3,24.5c0,0-1.4,2.4-4.4,2.7c-3.1,0.3-4.7,0.2-4.7,0.2S36.7,26.6,38.3,24.5z"/>
	<g id="XMLID_77_">
		
			<linearGradient id="XMLID_76_" gradientUnits="userSpaceOnUse" x1="19.9594" y1="30.8998" x2="21.5055" y2="33.8932" gradientTransform="matrix(-1.346898e-010 1 -1 -1.346898e-010 58.549 6.7282)">
			<stop  offset="0" style="stop-color:#373C3A"/>
			<stop  offset="1" style="stop-color:#1B1C1C"/>
		</linearGradient>
		<path id="XMLID_24_" class="st21" d="M27.9,26.9c0,0-0.1,0.6-0.7,0.6c-0.6,0-1.8-0.6-1-0.6C26.9,26.9,27.7,26.8,27.9,26.9z"/>
		
			<linearGradient id="XMLID_78_" gradientUnits="userSpaceOnUse" x1="20.5515" y1="31.7902" x2="22.39" y2="31.7902" gradientTransform="matrix(-1.346898e-010 1 -1 -1.346898e-010 58.549 6.7282)">
			<stop  offset="0" style="stop-color:#FFFFFF"/>
			<stop  offset="1" style="stop-color:#D3D6D5"/>
		</linearGradient>
		<path id="XMLID_23_" class="st22" d="M26.6,29.1c0.2-0.1,0.6-1.4,0.6-1.4c0.1-0.2-0.2-0.3-0.4-0.4l-0.6,1.8
			C26.4,29.1,26.5,29.1,26.6,29.1z"/>
		
			<linearGradient id="XMLID_79_" gradientUnits="userSpaceOnUse" x1="20.5518" y1="32.0501" x2="22.3901" y2="32.0501" gradientTransform="matrix(-1.346898e-010 1 -1 -1.346898e-010 58.549 6.7282)">
			<stop  offset="0" style="stop-color:#373C3A"/>
			<stop  offset="1" style="stop-color:#1B1C1C"/>
		</linearGradient>
		<path id="XMLID_22_" class="st23" d="M26.9,27.3c-0.1,0-0.3,0-0.3,0l-0.5,1.8c0,0,0.1,0,0.1,0L26.9,27.3z"/>
	</g>
	<g id="XMLID_73_">
		
			<linearGradient id="XMLID_80_" gradientUnits="userSpaceOnUse" x1="6.0548" y1="31.1494" x2="7.4033" y2="34.1095" gradientTransform="matrix(-1.346898e-010 1 -1 -1.346898e-010 58.549 6.7282)">
			<stop  offset="0" style="stop-color:#373C3A"/>
			<stop  offset="1" style="stop-color:#1B1C1C"/>
		</linearGradient>
		<path id="XMLID_21_" class="st24" d="M27.9,13.1c0,0-0.1-0.7-0.7-0.7c-0.6,0-1.8,0.7-1,0.7C26.9,13.1,27.7,13.2,27.9,13.1z"/>
		
			<linearGradient id="XMLID_81_" gradientUnits="userSpaceOnUse" x1="4.1539" y1="31.7625" x2="5.9924" y2="31.7625" gradientTransform="matrix(-1.346898e-010 1 -1 -1.346898e-010 58.549 6.7282)">
			<stop  offset="0" style="stop-color:#D3D6D5"/>
			<stop  offset="1" style="stop-color:#FFFFFF"/>
		</linearGradient>
		<path id="XMLID_20_" class="st25" d="M27.3,12.3c0,0-0.4-1.3-0.6-1.4c-0.1-0.1-0.3-0.1-0.4,0l0.6,1.8
			C27.1,12.7,27.4,12.6,27.3,12.3z"/>
		
			<linearGradient id="XMLID_82_" gradientUnits="userSpaceOnUse" x1="4.1538" y1="32.0204" x2="5.9922" y2="32.0204" gradientTransform="matrix(-1.346898e-010 1 -1 -1.346898e-010 58.549 6.7282)">
			<stop  offset="0" style="stop-color:#373C3A"/>
			<stop  offset="1" style="stop-color:#1B1C1C"/>
		</linearGradient>
		<path id="XMLID_19_" class="st26" d="M26.3,10.9c-0.1,0-0.1,0-0.1,0l0.5,1.8c0,0,0.1,0,0.2,0L26.3,10.9z"/>
	</g>
	<path id="XMLID_18_" class="st27" d="M20,12.4c0-0.1-0.1-0.2-0.2-0.2h-1.5c-0.1,0-0.2,0.1-0.2,0.2H20z"/>
	<path id="XMLID_17_" class="st27" d="M12.3,12.3c0-0.1-0.1-0.2-0.2-0.2h-1.5c-0.1,0-0.2,0.1-0.2,0.2H12.3z"/>
	<path id="XMLID_16_" class="st27" d="M20,27.6c0,0.1-0.1,0.2-0.2,0.2h-1.5c-0.1,0-0.2-0.1-0.2-0.2H20z"/>
	<path id="XMLID_15_" class="st27" d="M12.3,27.7c0,0.1-0.1,0.2-0.2,0.2h-1.5c-0.1,0-0.2-0.1-0.2-0.2H12.3z"/>
	<g id="XMLID_58_">
		<g id="XMLID_64_">
			<g id="XMLID_65_">
				<path id="XMLID_14_" class="st28" d="M31,16.4c0,0.3,0.2,0.4,0.2,0.7c0,0,0,0,0,0c0,0,0,0,0,0C31.3,16.8,31.1,16.6,31,16.4
					C31.1,16.4,31,16.3,31,16.4C31,16.3,31,16.4,31,16.4z"/>
				<path id="XMLID_13_" class="st28" d="M31.1,17c0-0.3-0.2-0.4-0.2-0.7c0,0,0,0,0,0c0,0,0,0,0,0C30.8,16.6,31,16.8,31.1,17
					C31,17.1,31,17.1,31.1,17C31.1,17.1,31.1,17.1,31.1,17z"/>
				<path id="XMLID_12_" class="st28" d="M30.9,17c0-0.3-0.2-0.4-0.2-0.7c0,0,0,0,0,0c0,0,0,0,0,0C30.6,16.6,30.8,16.8,30.9,17
					C30.8,17.1,30.9,17.1,30.9,17C30.9,17.1,30.9,17.1,30.9,17z"/>
			</g>
		</g>
		<g id="XMLID_59_">
			<g id="XMLID_60_">
				<path id="XMLID_11_" class="st28" d="M31,23.6c0-0.3,0.2-0.4,0.2-0.7c0,0,0,0,0,0c0,0,0,0,0,0C31.3,23.2,31.1,23.4,31,23.6
					C31.1,23.6,31,23.7,31,23.6C31,23.7,31,23.6,31,23.6z"/>
				<path id="XMLID_10_" class="st28" d="M31.1,23c0,0.3-0.2,0.4-0.2,0.7c0,0,0,0,0,0c0,0,0,0,0,0C30.8,23.4,31,23.2,31.1,23
					C31,22.9,31,22.9,31.1,23C31.1,22.9,31.1,22.9,31.1,23z"/>
				<path id="XMLID_9_" class="st28" d="M30.9,23c0,0.3-0.2,0.4-0.2,0.7c0,0,0,0,0,0c0,0,0,0,0,0C30.6,23.4,30.8,23.2,30.9,23
					C30.8,22.9,30.9,22.9,30.9,23C30.9,22.9,30.9,22.9,30.9,23z"/>
			</g>
		</g>
	</g>
	
		<linearGradient id="XMLID_83_" gradientUnits="userSpaceOnUse" x1="10.8002" y1="58.4026" x2="15.744" y2="58.4026" gradientTransform="matrix(-1.346898e-010 1 -1 -1.346898e-010 58.549 6.7282)">
		<stop  offset="0" style="stop-color:#373C3A"/>
		<stop  offset="1" style="stop-color:#1B1C1C"/>
	</linearGradient>
	<path id="XMLID_8_" class="st29" d="M0.3,22.2v-4.3c0-0.1-0.1-0.2-0.2-0.3C0,18.9,0,20,0,20c0,0,0,1.1,0.1,2.5
		C0.2,22.4,0.3,22.3,0.3,22.2z"/>
	
		<linearGradient id="XMLID_84_" gradientUnits="userSpaceOnUse" x1="10.5254" y1="47.3215" x2="13.494" y2="51.8736" gradientTransform="matrix(-1.346898e-010 1 -1 -1.346898e-010 58.549 6.7282)">
		<stop  offset="0" style="stop-color:#373C3A"/>
		<stop  offset="1" style="stop-color:#010101"/>
	</linearGradient>
	<path id="XMLID_7_" class="st30" d="M8.2,25.4c-0.3-1-0.6-2.7-0.6-5.4c0-0.6,0-1.1,0.1-1.6c-0.7-1.6-2.9-2.5-3.5-2.7
		c-0.1,0.4-0.3,0.9-0.4,1.5c-0.2,1.2-0.2,4.4,0,5.6c0.3,1.6,0.9,2.7,0.9,2.7S6.2,25.7,8.2,25.4z"/>
	
		<linearGradient id="XMLID_85_" gradientUnits="userSpaceOnUse" x1="8.7861" y1="35.4386" x2="12.3256" y2="40.8662" gradientTransform="matrix(-1.346898e-010 1 -1 -1.346898e-010 58.549 6.7282)">
		<stop  offset="0" style="stop-color:#373C3A"/>
		<stop  offset="1" style="stop-color:#1B1C1C"/>
	</linearGradient>
	<path id="XMLID_6_" class="st31" d="M14.6,23.8c-0.5,0-1-0.6-1-1.4v-4.8c0-0.8,0.4-1.4,1-1.4h3.3c0.5,0,1,0.6,1,1.4v4.8
		c0,0.8-0.4,1.4-1,1.4H14.6z"/>
	
		<linearGradient id="XMLID_86_" gradientUnits="userSpaceOnUse" x1="9.3096" y1="36.2414" x2="12.436" y2="41.0356" gradientTransform="matrix(-1.346898e-010 1 -1 -1.346898e-010 58.549 6.7282)">
		<stop  offset="0" style="stop-color:#1B1C1C"/>
		<stop  offset="1" style="stop-color:#373C3A"/>
	</linearGradient>
	<path id="XMLID_5_" class="st32" d="M14.8,23.5c-0.5,0-0.8-0.6-0.8-1.3v-4.4c0-0.7,0.4-1.3,0.8-1.3h2.9c0.5,0,0.8,0.6,0.8,1.3v4.4
		c0,0.7-0.4,1.3-0.8,1.3H14.8z"/>
	<path id="XMLID_4_" class="st33" d="M37,13c-0.1,0.2,0,0.4,0.2,0.6l0.2,0.3l0.5-0.1C37.6,13.5,37.3,13.3,37,13z"/>
	<path id="XMLID_3_" class="st34" d="M37.9,13.9L37.4,14l1.3,1.6c0.2,0.2,0.4,0.3,0.7,0.3c-0.2-0.5-0.5-1-0.8-1.3
		C38.3,14.3,38.1,14.1,37.9,13.9z"/>
	<path id="XMLID_2_" class="st33" d="M37.9,26.1l-0.6,0l-0.2,0.3C37,26.5,36.9,26.8,37,27C37.3,26.7,37.6,26.5,37.9,26.1z"/>
	<path id="XMLID_1_" class="st34" d="M38.5,25.5c0.3-0.3,0.6-0.8,0.8-1.3c-0.3,0-0.5,0.1-0.7,0.3l-1.3,1.6l0.6,0
		C38.1,25.9,38.3,25.7,38.5,25.5z"/>
</g>
</svg>
