<?xml version="1.0" encoding="utf-8"?>
<!-- Generator: Adobe Illustrator 19.0.0, SVG Export Plug-In . SVG Version: 6.00 Build 0)  -->
<svg version="1.1" id="Layer_1" xmlns="http://www.w3.org/2000/svg" xmlns:xlink="http://www.w3.org/1999/xlink" x="0px" y="0px"
	 viewBox="0 0 40 40" style="enable-background:new 0 0 40 40;" xml:space="preserve">
<style type="text/css">
	.Drop_x0020_Shadow{fill:none;}
	.Round_x0020_Corners_x0020_2_x0020_pt{fill:#FFFFFF;stroke:#000000;stroke-miterlimit:10;}
	.Live_x0020_Reflect_x0020_X{fill:none;}
	.Bevel_x0020_Soft{fill:url(#SVGID_1_);}
	.Dusk{fill:#FFFFFF;}
	.Foliage_GS{fill:#FFDD00;}
	.Pompadour_GS{fill-rule:evenodd;clip-rule:evenodd;fill:#44ADE2;}
	.st0{fill:#BE202E;}
	.st1{fill:url(#XMLID_58_);}
	.st2{fill:url(#XMLID_59_);}
	.st3{fill:url(#XMLID_60_);}
	.st4{fill:url(#XMLID_61_);}
	.st5{fill:url(#XMLID_62_);}
	.st6{fill:url(#XMLID_63_);}
	.st7{fill:url(#XMLID_64_);}
	.st8{fill:url(#XMLID_65_);}
	.st9{fill:url(#XMLID_66_);}
	.st10{fill:url(#XMLID_67_);}
	.st11{fill:url(#XMLID_68_);}
	.st12{fill:url(#XMLID_69_);}
	.st13{fill:url(#XMLID_70_);}
	.st14{fill:url(#XMLID_71_);}
	.st15{fill:url(#XMLID_72_);}
	.st16{fill:url(#XMLID_73_);}
	.st17{fill:url(#XMLID_74_);}
	.st18{fill:url(#XMLID_75_);}
	.st19{fill:url(#XMLID_76_);}
	.st20{fill:url(#XMLID_77_);}
	.st21{fill:#5A5A5A;}
	.st22{fill:#7B7B7B;}
	.st23{fill:url(#XMLID_78_);}
	.st24{fill:url(#XMLID_79_);}
	.st25{fill:#D3D3D3;}
	.st26{fill:url(#XMLID_80_);}
	.st27{fill:url(#XMLID_81_);}
	.st28{fill:url(#XMLID_82_);}
</style>
<linearGradient id="SVGID_1_" gradientUnits="userSpaceOnUse" x1="0" y1="0" x2="0.7071" y2="0.7071">
	<stop  offset="0" style="stop-color:#DEDFE3"/>
	<stop  offset="0.1738" style="stop-color:#D8D9DD"/>
	<stop  offset="0.352" style="stop-color:#C9CACD"/>
	<stop  offset="0.5323" style="stop-color:#B4B5B8"/>
	<stop  offset="0.7139" style="stop-color:#989A9C"/>
	<stop  offset="0.8949" style="stop-color:#797C7E"/>
	<stop  offset="1" style="stop-color:#656B6C"/>
</linearGradient>
<g id="XMLID_2_">
	<g id="XMLID_55_">
		<path id="XMLID_57_" class="st0" d="M0.1,14C0.1,14,0,13.9,0,13.9l0-0.6c0-0.1,0.1-0.1,0.1-0.1h0.4c0.1,0,0.1,0.1,0.1,0.1v0.6
			c0,0.1-0.1,0.1-0.1,0.1H0.1z"/>
		<path id="XMLID_56_" class="st0" d="M0.1,26.8c-0.1,0-0.1-0.1-0.1-0.1l0-0.6C0,26.1,0.1,26,0.1,26h0.4c0.1,0,0.1,0.1,0.1,0.1v0.6
			c0,0.1-0.1,0.1-0.1,0.1H0.1z"/>
	</g>
	
		<radialGradient id="XMLID_58_" cx="13.7848" cy="19.1633" r="2.8302" gradientTransform="matrix(-1.346898e-010 1 -1 -1.346898e-010 58.0122 6.2182)" gradientUnits="userSpaceOnUse">
		<stop  offset="0" style="stop-color:#F7F8F8"/>
		<stop  offset="1" style="stop-color:#A9ACAB"/>
	</radialGradient>
	<path id="XMLID_54_" class="st1" d="M37.7,23.8h1.8c0.7-2.3,0.7-5.3,0-7.7h-1.8V23.8z"/>
	
		<radialGradient id="XMLID_59_" cx="19.2258" cy="-3943.8523" r="11.6981" gradientTransform="matrix(-1.398484e-010 1.0383 -1.9425 -2.616349e-010 -7643.1553 0.1599)" gradientUnits="userSpaceOnUse">
		<stop  offset="0" style="stop-color:#F7F8F8"/>
		<stop  offset="1" style="stop-color:#A9ACAB"/>
	</radialGradient>
	<path id="XMLID_53_" class="st2" d="M35,28.2c1.6-0.2,1.6-0.5,2.3-1.1c0-0.2,0-0.5,0.1-0.7l1.4-2c0.1-0.2,0.4-0.3,0.6-0.4
		c0-0.1,0.1-0.2,0.1-0.3h-1.8v-7.7h1.8c0-0.1-0.1-0.2-0.1-0.3c-0.2,0-0.5-0.2-0.6-0.4l-1.4-2c-0.1-0.2-0.2-0.5-0.1-0.7
		c-0.7-0.6-0.7-0.9-2.3-1.1c-4.3-0.5-11.9-0.4-13.5-0.4c-1.1,0-20.1-0.3-20.8,0.5c-0.9,0.9-0.9,15.5,0,16.4
		c0.7,0.7,19.7,0.5,20.8,0.5C23.1,28.6,30.7,28.7,35,28.2z"/>
	
		<radialGradient id="XMLID_60_" cx="19.4368" cy="-3658.0247" r="11.8359" gradientTransform="matrix(-1.398484e-010 1.0383 -1.8993 -2.558217e-010 -6926.2236 0.1599)" gradientUnits="userSpaceOnUse">
		<stop  offset="0" style="stop-color:#FFFFFF"/>
		<stop  offset="1" style="stop-color:#D3D6D5"/>
	</radialGradient>
	<path id="XMLID_52_" class="st3" d="M21.7,12.4c-1.2,0-20.2-0.8-20.9,0c-0.9,0.9-0.7,14.8,0,15.4c0.8,0.7,19.8,0,20.9,0
		c1.6,0,8.9,0.5,13,0.1c2.7-0.3,2.3-1,3.5-2.5c1.7-2.1,1.7-8.3,0-10.4c-1.3-1.6-0.9-2.2-3.5-2.5C30.6,11.8,23.3,12.4,21.7,12.4z"/>
	
		<linearGradient id="XMLID_61_" gradientUnits="userSpaceOnUse" x1="7.8031" y1="33.6223" x2="19.7664" y2="33.6223" gradientTransform="matrix(-1.346898e-010 1 -1 -1.346898e-010 58.0122 6.2182)">
		<stop  offset="0" style="stop-color:#010101"/>
		<stop  offset="1" style="stop-color:#1B1C1C"/>
	</linearGradient>
	<path id="XMLID_51_" class="st4" d="M25,16.8c-0.2-1.4-0.6-2.4-0.7-2.7l-0.6,0.1c0,0,0.5,1.1,0.8,2.8c0.2,1.5,0.2,4.8,0,6.2
		c-0.2,1.7-0.8,2.8-0.8,2.8l0.6,0.1c0.2-0.4,0.5-1.4,0.7-2.7C25.2,21.7,25.2,18.3,25,16.8z"/>
	
		<linearGradient id="XMLID_62_" gradientUnits="userSpaceOnUse" x1="6.8587" y1="27.8447" x2="20.7113" y2="27.8447" gradientTransform="matrix(-1.346898e-010 1 -1 -1.346898e-010 58.0122 6.2182)">
		<stop  offset="0" style="stop-color:#010101"/>
		<stop  offset="1" style="stop-color:#1B1C1C"/>
	</linearGradient>
	<path id="XMLID_50_" class="st5" d="M29.4,13.6c0.2,0.5,0.6,1.5,0.9,2.9c0.4,2.1,0.4,4.9,0,7c-0.3,1.5-0.7,2.4-0.9,2.9
		c-0.1,0.2-0.2,0.4-0.3,0.5l0,0c0,0,0.4,0.1,0.5,0c0.1-0.1,0.2-0.2,0.3-0.5c0.2-0.5,0.6-1.5,0.9-2.9c0.4-2.1,0.4-4.9,0-7
		c-0.3-1.5-0.7-2.4-0.9-2.9c-0.1-0.3-0.2-0.4-0.3-0.5c-0.1-0.1-0.5,0-0.5,0l0,0C29.2,13.2,29.3,13.4,29.4,13.6z"/>
	
		<linearGradient id="XMLID_63_" gradientUnits="userSpaceOnUse" x1="6.9186" y1="30.5804" x2="20.6509" y2="30.5804" gradientTransform="matrix(-1.346898e-010 1 -1 -1.346898e-010 58.0122 6.2182)">
		<stop  offset="0" style="stop-color:#373C3A"/>
		<stop  offset="1" style="stop-color:#0E0F0F"/>
	</linearGradient>
	<path id="XMLID_49_" class="st6" d="M25,16.8c0.2,1.5,0.2,5,0,6.5c-0.2,1.4-0.6,2.4-0.7,2.7l4.9,0.9c0.1-0.1,0.2-0.2,0.3-0.5
		c0.2-0.5,0.6-1.5,0.9-2.9c0.4-2.1,0.4-4.9,0-7c-0.3-1.5-0.7-2.4-0.9-2.9c-0.1-0.2-0.2-0.4-0.3-0.5L24.3,14
		C24.4,14.4,24.8,15.4,25,16.8z"/>
	<g id="XMLID_46_">
		
			<linearGradient id="XMLID_64_" gradientUnits="userSpaceOnUse" x1="6.3885" y1="34.2076" x2="7.7407" y2="34.2076" gradientTransform="matrix(-1.346898e-010 1 -1 -1.346898e-010 58.0122 6.2182)">
			<stop  offset="0" style="stop-color:#373C3A"/>
			<stop  offset="1" style="stop-color:#010101"/>
		</linearGradient>
		<path id="XMLID_48_" class="st7" d="M21,12.9c-1.2,0-2,0-2.4-0.1l-0.4,1.1V14l5-0.2l6-1.1c0,0-1.5-0.1-3.7,0
			C24.2,12.7,22.3,12.9,21,12.9z"/>
		
			<linearGradient id="XMLID_65_" gradientUnits="userSpaceOnUse" x1="19.8288" y1="34.2076" x2="21.1812" y2="34.2076" gradientTransform="matrix(-1.346898e-010 1 -1 -1.346898e-010 58.0122 6.2182)">
			<stop  offset="0" style="stop-color:#373C3A"/>
			<stop  offset="1" style="stop-color:#010101"/>
		</linearGradient>
		<path id="XMLID_47_" class="st8" d="M18.3,26.1l0.4,1.1c0.4,0,1.2-0.1,2.4-0.1c1.2,0,3.1,0.2,4.5,0.2c2.2,0.1,3.7,0,3.7,0l-6-1.1
			L18.3,26.1L18.3,26.1z"/>
	</g>
	<g id="XMLID_43_">
		
			<radialGradient id="XMLID_66_" cx="8.1408" cy="-51.0118" r="1.3212" gradientTransform="matrix(-1.346898e-010 1 -1.0087 -1.358629e-010 -13.1572 6.2182)" gradientUnits="userSpaceOnUse">
			<stop  offset="0" style="stop-color:#8B8A8A"/>
			<stop  offset="1" style="stop-color:#474848"/>
		</radialGradient>
		<path id="XMLID_45_" class="st9" d="M37.4,13.5l1.4,2c0.1,0.2,0.4,0.3,0.6,0.4c-0.2-0.6-0.4-1.1-0.7-1.4c-0.5-0.7-1-1.2-1.4-1.6
			C37.2,13.1,37.2,13.3,37.4,13.5z"/>
		
			<radialGradient id="XMLID_67_" cx="19.4289" cy="-51.0118" r="1.3211" gradientTransform="matrix(-1.346898e-010 1 -1.0087 -1.358629e-010 -13.1572 6.2182)" gradientUnits="userSpaceOnUse">
			<stop  offset="0" style="stop-color:#8B8A8A"/>
			<stop  offset="1" style="stop-color:#474848"/>
		</radialGradient>
		<path id="XMLID_44_" class="st10" d="M38.8,24.5l-1.4,2c-0.1,0.2-0.2,0.5-0.1,0.7c0.5-0.4,0.9-0.9,1.4-1.6
			c0.3-0.4,0.5-0.8,0.7-1.4C39.1,24.2,38.9,24.3,38.8,24.5z"/>
	</g>
	
		<linearGradient id="XMLID_68_" gradientUnits="userSpaceOnUse" x1="13.7849" y1="29.2135" x2="17.5814" y2="31.913" gradientTransform="matrix(-1.346898e-010 1 -1 -1.346898e-010 58.0122 6.2182)">
		<stop  offset="0" style="stop-color:#373C3A"/>
		<stop  offset="1" style="stop-color:#010101"/>
	</linearGradient>
	<path id="XMLID_42_" class="st11" d="M29.4,26.4c0.2-0.5,0.6-1.5,0.9-2.9c0.1-0.5,0.2-1.1,0.2-1.6c-1.5-1.5-4.3-3.2-5.5-3.9
		c0.1,1.7,0.1,4.1-0.1,5.3c-0.2,1.4-0.6,2.4-0.7,2.7l4.9,0.9C29.2,26.8,29.3,26.6,29.4,26.4z"/>
	
		<linearGradient id="XMLID_69_" gradientUnits="userSpaceOnUse" x1="7.3838" y1="36.0339" x2="42.9421" y2="94.3987" gradientTransform="matrix(-1.346898e-010 1 -1 -1.346898e-010 58.0122 6.2182)">
		<stop  offset="0" style="stop-color:#F7F8F8"/>
		<stop  offset="1" style="stop-color:#DCDBDB"/>
	</linearGradient>
	<path id="XMLID_41_" class="st12" d="M1.2,26.4c2.6,0,13.9,1,13.9,1s1.5-1.7,2.2-1.7c3.2,0,5.5,0,5.5,0s1.4-1.4,1.2-5.7
		c0.2-4.3-1.2-5.7-1.2-5.7s-2.3,0-5.5,0c-0.7,0-2.2-1.7-2.2-1.7s-11.2,1-13.8,1c0,0-0.5,2.4-0.5,6.4C0.7,23.5,1.2,26.4,1.2,26.4z"/>
	
		<linearGradient id="XMLID_70_" gradientUnits="userSpaceOnUse" x1="5.1687" y1="16.7342" x2="8.6657" y2="26.804" gradientTransform="matrix(-1.346898e-010 1 -1 -1.346898e-010 58.0122 6.2182)">
		<stop  offset="0" style="stop-color:#F7F8F8"/>
		<stop  offset="1" style="stop-color:#DCDBDB"/>
	</linearGradient>
	<path id="XMLID_40_" class="st13" d="M38,15.6c0,0-0.4-2.5-3.2-2.8c-2.8-0.3-5.1-0.5-5.1-0.5S36.5,13.4,38,15.6z"/>
	
		<linearGradient id="XMLID_71_" gradientUnits="userSpaceOnUse" x1="47.2873" y1="16.7343" x2="50.7842" y2="26.804" gradientTransform="matrix(1.346898e-010 -1 -1 -1.346898e-010 58.0122 75.9213)">
		<stop  offset="0" style="stop-color:#F7F8F8"/>
		<stop  offset="1" style="stop-color:#DCDBDB"/>
	</linearGradient>
	<path id="XMLID_39_" class="st14" d="M38,24.4c0,0-0.4,2.5-3.2,2.8c-2.8,0.3-5.1,0.5-5.1,0.5S36.5,26.6,38,24.4z"/>
	
		<linearGradient id="XMLID_72_" gradientUnits="userSpaceOnUse" x1="20.9511" y1="29.3152" x2="22.3758" y2="32.0736" gradientTransform="matrix(-1.346898e-010 1 -1 -1.346898e-010 58.0122 6.2182)">
		<stop  offset="0" style="stop-color:#373C3A"/>
		<stop  offset="1" style="stop-color:#1B1C1C"/>
	</linearGradient>
	<path id="XMLID_38_" class="st15" d="M28.9,27.3c0,0-0.1,0.7-0.7,0.7c-0.5,0-1.7-0.7-1-0.7C28,27.3,28.7,27.2,28.9,27.3z"/>
	
		<radialGradient id="XMLID_73_" cx="27.507" cy="30.1489" r="0.7351" gradientTransform="matrix(-1.398484e-010 1.0383 -1 -1.346898e-010 58.0122 0.1599)" gradientUnits="userSpaceOnUse">
		<stop  offset="0" style="stop-color:#FFFFFF"/>
		<stop  offset="1" style="stop-color:#D3D6D5"/>
	</radialGradient>
	<path id="XMLID_37_" class="st16" d="M27.7,29.6c0.2-0.1,0.6-1.5,0.6-1.5c0.1-0.3-0.1-0.4-0.3-0.4l-0.6,1.9
		C27.5,29.7,27.6,29.7,27.7,29.6z"/>
	
		<linearGradient id="XMLID_74_" gradientUnits="userSpaceOnUse" x1="21.5173" y1="30.387" x2="23.4714" y2="30.387" gradientTransform="matrix(-1.346898e-010 1 -1 -1.346898e-010 58.0122 6.2182)">
		<stop  offset="0" style="stop-color:#373C3A"/>
		<stop  offset="1" style="stop-color:#1B1C1C"/>
	</linearGradient>
	<path id="XMLID_36_" class="st17" d="M28,27.8c-0.1,0-0.2,0-0.2,0l-0.5,1.9c0,0,0.1,0,0.1,0L28,27.8z"/>
	
		<linearGradient id="XMLID_75_" gradientUnits="userSpaceOnUse" x1="6.1265" y1="29.5645" x2="7.3696" y2="32.2933" gradientTransform="matrix(-1.346898e-010 1 -1 -1.346898e-010 58.0122 6.2182)">
		<stop  offset="0" style="stop-color:#373C3A"/>
		<stop  offset="1" style="stop-color:#1B1C1C"/>
	</linearGradient>
	<path id="XMLID_35_" class="st18" d="M29,12.7c0,0-0.1-0.7-0.7-0.7c-0.5,0-1.7,0.7-1,0.7C28,12.7,28.7,12.8,29,12.7z"/>
	
		<radialGradient id="XMLID_76_" cx="10.7115" cy="30.1235" r="0.7402" gradientTransform="matrix(-1.398484e-010 1.0383 -1 -1.346898e-010 58.0122 0.1599)" gradientUnits="userSpaceOnUse">
		<stop  offset="0" style="stop-color:#FFFFFF"/>
		<stop  offset="1" style="stop-color:#D3D6D5"/>
	</radialGradient>
	<path id="XMLID_34_" class="st19" d="M28.3,11.9c0,0-0.4-1.3-0.6-1.5c-0.1-0.1-0.2-0.1-0.3,0l0.6,1.9
		C28.2,12.2,28.4,12.1,28.3,11.9z"/>
	
		<linearGradient id="XMLID_77_" gradientUnits="userSpaceOnUse" x1="4.0921" y1="30.3599" x2="6.0464" y2="30.3599" gradientTransform="matrix(-1.346898e-010 1 -1 -1.346898e-010 58.0122 6.2182)">
		<stop  offset="0" style="stop-color:#373C3A"/>
		<stop  offset="1" style="stop-color:#1B1C1C"/>
	</linearGradient>
	<path id="XMLID_33_" class="st20" d="M27.4,10.3C27.4,10.4,27.3,10.4,27.4,10.3l0.4,1.9c0,0,0.1,0,0.2,0L27.4,10.3z"/>
	<path id="XMLID_32_" class="st21" d="M21.7,11.4c0-0.1-0.1-0.2-0.2-0.2h-1.4c-0.1,0-0.2,0.1-0.2,0.2H21.7z"/>
	<path id="XMLID_31_" class="st21" d="M21.7,28.6c0,0.1-0.1,0.2-0.2,0.2h-1.4c-0.1,0-0.2-0.1-0.2-0.2H21.7z"/>
	<g id="XMLID_20_">
		<g id="XMLID_26_">
			<g id="XMLID_27_">
				<path id="XMLID_30_" class="st22" d="M31.4,15.4c0,0.3,0.2,0.5,0.2,0.8c0,0,0,0,0,0c0,0,0,0,0,0C31.7,15.9,31.5,15.7,31.4,15.4
					C31.5,15.4,31.4,15.4,31.4,15.4C31.4,15.4,31.4,15.4,31.4,15.4z"/>
				<path id="XMLID_29_" class="st22" d="M31.5,16.3c0-0.3-0.2-0.5-0.2-0.8c0,0,0,0,0,0c0,0,0,0,0,0C31.2,15.7,31.4,15.9,31.5,16.3
					C31.4,16.3,31.4,16.3,31.5,16.3C31.5,16.3,31.5,16.3,31.5,16.3z"/>
				<path id="XMLID_28_" class="st22" d="M31.3,16.3c0-0.3-0.2-0.5-0.2-0.8c0,0,0,0,0,0c0,0,0,0,0,0C31,15.7,31.2,15.9,31.3,16.3
					C31.2,16.3,31.2,16.3,31.3,16.3C31.3,16.3,31.3,16.3,31.3,16.3z"/>
			</g>
		</g>
		<g id="XMLID_21_">
			<g id="XMLID_22_">
				<path id="XMLID_25_" class="st22" d="M31.4,24.6c0-0.3,0.2-0.5,0.2-0.8c0,0,0,0,0,0c0,0,0,0,0,0C31.7,24.1,31.5,24.2,31.4,24.6
					C31.5,24.6,31.4,24.6,31.4,24.6C31.4,24.6,31.4,24.6,31.4,24.6z"/>
				<path id="XMLID_24_" class="st22" d="M31.5,23.7c0,0.3-0.2,0.5-0.2,0.8c0,0,0,0,0,0c0,0,0,0,0,0C31.2,24.2,31.4,24.1,31.5,23.7
					C31.4,23.7,31.4,23.7,31.5,23.7C31.5,23.7,31.5,23.7,31.5,23.7z"/>
				<path id="XMLID_23_" class="st22" d="M31.3,23.7c0,0.3-0.2,0.5-0.2,0.8c0,0,0,0,0,0c0,0,0,0,0,0C31,24.2,31.2,24.1,31.3,23.7
					C31.2,23.7,31.2,23.7,31.3,23.7C31.3,23.7,31.3,23.7,31.3,23.7z"/>
			</g>
		</g>
	</g>
	
		<linearGradient id="XMLID_78_" gradientUnits="userSpaceOnUse" x1="9.2799" y1="32.9032" x2="12.8347" y2="38.3543" gradientTransform="matrix(-1.346898e-010 1 -1 -1.346898e-010 58.0122 6.2182)">
		<stop  offset="0" style="stop-color:#373C3A"/>
		<stop  offset="1" style="stop-color:#1B1C1C"/>
	</linearGradient>
	<path id="XMLID_19_" class="st23" d="M16.6,23.9c-0.5,0-1-0.6-1-1.4v-5c0-0.8,0.4-1.4,1-1.4h3.3c0.5,0,1,0.6,1,1.4v5
		c0,0.8-0.4,1.4-1,1.4H16.6z"/>
	
		<linearGradient id="XMLID_79_" gradientUnits="userSpaceOnUse" x1="10.7269" y1="37.9072" x2="17.3518" y2="42.0328" gradientTransform="matrix(-1.346898e-010 1 -1 -1.346898e-010 58.0122 6.2182)">
		<stop  offset="0" style="stop-color:#373C3A"/>
		<stop  offset="1" style="stop-color:#0E0F0F"/>
	</linearGradient>
	<path id="XMLID_18_" class="st24" d="M16.8,23.5c-0.5,0-0.8-0.6-0.8-1.3v-4.5c0-0.7,0.4-1.3,0.8-1.3h2.9c0.5,0,0.8,0.6,0.8,1.3v4.5
		c0,0.7-0.4,1.3-0.8,1.3H16.8z"/>
	<g id="XMLID_6_">
		<path id="XMLID_17_" class="st25" d="M2.7,15.8c-0.1,0-0.2-0.1-0.2-0.2l0,0c0-0.1,0.1-0.2,0.2-0.2h10.4c0.1,0,0.2,0.1,0.2,0.2l0,0
			c0,0.1-0.1,0.2-0.2,0.2H2.7z"/>
		<path id="XMLID_16_" class="st25" d="M2.7,16.7c-0.1,0-0.2-0.1-0.2-0.2l0,0c0-0.1,0.1-0.2,0.2-0.2h10.4c0.1,0,0.2,0.1,0.2,0.2l0,0
			c0,0.1-0.1,0.2-0.2,0.2H2.7z"/>
		<path id="XMLID_15_" class="st25" d="M2.7,17.5c-0.1,0-0.2-0.1-0.2-0.2l0,0c0-0.1,0.1-0.2,0.2-0.2h10.4c0.1,0,0.2,0.1,0.2,0.2l0,0
			c0,0.1-0.1,0.2-0.2,0.2H2.7z"/>
		<path id="XMLID_14_" class="st25" d="M2.7,18.4c-0.1,0-0.2-0.1-0.2-0.2l0,0c0-0.1,0.1-0.2,0.2-0.2h10.4c0.1,0,0.2,0.1,0.2,0.2l0,0
			c0,0.1-0.1,0.2-0.2,0.2H2.7z"/>
		<path id="XMLID_13_" class="st25" d="M2.7,19.3c-0.1,0-0.2-0.1-0.2-0.2l0,0c0-0.1,0.1-0.2,0.2-0.2h10.4c0.1,0,0.2,0.1,0.2,0.2l0,0
			c0,0.1-0.1,0.2-0.2,0.2H2.7z"/>
		<path id="XMLID_12_" class="st25" d="M2.7,20.1c-0.1,0-0.2-0.1-0.2-0.2l0,0c0-0.1,0.1-0.2,0.2-0.2h10.4c0.1,0,0.2,0.1,0.2,0.2l0,0
			c0,0.1-0.1,0.2-0.2,0.2H2.7z"/>
		<path id="XMLID_11_" class="st25" d="M2.7,21c-0.1,0-0.2-0.1-0.2-0.2l0,0c0-0.1,0.1-0.2,0.2-0.2h10.4c0.1,0,0.2,0.1,0.2,0.2l0,0
			c0,0.1-0.1,0.2-0.2,0.2H2.7z"/>
		<path id="XMLID_10_" class="st25" d="M2.7,21.9c-0.1,0-0.2-0.1-0.2-0.2l0,0c0-0.1,0.1-0.2,0.2-0.2h10.4c0.1,0,0.2,0.1,0.2,0.2l0,0
			c0,0.1-0.1,0.2-0.2,0.2H2.7z"/>
		<path id="XMLID_9_" class="st25" d="M2.7,22.7c-0.1,0-0.2-0.1-0.2-0.2l0,0c0-0.1,0.1-0.2,0.2-0.2h10.4c0.1,0,0.2,0.1,0.2,0.2l0,0
			c0,0.1-0.1,0.2-0.2,0.2H2.7z"/>
		<path id="XMLID_8_" class="st25" d="M2.7,23.6c-0.1,0-0.2-0.1-0.2-0.2l0,0c0-0.1,0.1-0.2,0.2-0.2h10.4c0.1,0,0.2,0.1,0.2,0.2l0,0
			c0,0.1-0.1,0.2-0.2,0.2H2.7z"/>
		<path id="XMLID_7_" class="st25" d="M2.7,24.4c-0.1,0-0.2-0.1-0.2-0.2l0,0c0-0.1,0.1-0.2,0.2-0.2h10.4c0.1,0,0.2,0.1,0.2,0.2l0,0
			c0,0.1-0.1,0.2-0.2,0.2H2.7z"/>
	</g>
	
		<linearGradient id="XMLID_80_" gradientUnits="userSpaceOnUse" x1="6.3684" y1="41.1018" x2="7.7413" y2="41.1018" gradientTransform="matrix(-1.346898e-010 1 -1 -1.346898e-010 58.0122 6.2182)">
		<stop  offset="0" style="stop-color:#373C3A"/>
		<stop  offset="1" style="stop-color:#010101"/>
	</linearGradient>
	<path id="XMLID_5_" class="st26" d="M17.9,14v-1.2l-1.9-0.2C15.9,12.6,16.6,14,17.9,14z"/>
	
		<linearGradient id="XMLID_81_" gradientUnits="userSpaceOnUse" x1="367.1444" y1="41.1018" x2="368.5179" y2="41.1018" gradientTransform="matrix(1.346898e-010 -1 -1 -1.346898e-010 58.0122 394.5541)">
		<stop  offset="0" style="stop-color:#373C3A"/>
		<stop  offset="1" style="stop-color:#010101"/>
	</linearGradient>
	<path id="XMLID_4_" class="st27" d="M17.9,26v1.2l-1.9,0.2C15.9,27.4,16.6,26,17.9,26z"/>
	
		<linearGradient id="XMLID_82_" gradientUnits="userSpaceOnUse" x1="12.8904" y1="38.6346" x2="15.7865" y2="41.1734" gradientTransform="matrix(-1.346898e-010 1 -1 -1.346898e-010 58.0122 6.2182)">
		<stop  offset="0" style="stop-color:#373C3A"/>
		<stop  offset="1" style="stop-color:#010101"/>
	</linearGradient>
	<path id="XMLID_3_" class="st28" d="M20.3,22.9c-0.2-0.3-0.5-0.6-0.8-0.9c-0.7-0.5-1.4-0.8-1.8-1.6c-0.3-0.5-0.3-1.1-0.7-1.6
		c-0.2-0.3-0.5-0.6-0.9-0.8c-0.1,0-0.1,0-0.2-0.1v4.3c0,0.7,0.4,1.3,0.8,1.3h2.9C19.9,23.5,20.2,23.3,20.3,22.9z"/>
</g>
</svg>
