<?xml version="1.0" encoding="utf-8"?>
<!-- Generator: Adobe Illustrator 19.0.0, SVG Export Plug-In . SVG Version: 6.00 Build 0)  -->
<svg version="1.1" id="Layer_1" xmlns="http://www.w3.org/2000/svg" xmlns:xlink="http://www.w3.org/1999/xlink" x="0px" y="0px"
	 viewBox="0 0 40 40" style="enable-background:new 0 0 40 40;" xml:space="preserve">
<style type="text/css">
	.Drop_x0020_Shadow{fill:none;}
	.Round_x0020_Corners_x0020_2_x0020_pt{fill:#FFFFFF;stroke:#000000;stroke-miterlimit:10;}
	.Live_x0020_Reflect_x0020_X{fill:none;}
	.Bevel_x0020_Soft{fill:url(#SVGID_1_);}
	.Dusk{fill:#FFFFFF;}
	.Foliage_GS{fill:#FFDD00;}
	.Pompadour_GS{fill-rule:evenodd;clip-rule:evenodd;fill:#44ADE2;}
	.st0{fill:url(#XMLID_45_);}
	.st1{fill:url(#XMLID_46_);}
	.st2{fill:url(#XMLID_50_);}
	.st3{fill:url(#XMLID_51_);}
	.st4{fill:url(#XMLID_52_);}
	.st5{fill:url(#XMLID_55_);}
	.st6{fill:url(#XMLID_56_);}
	.st7{fill:url(#XMLID_57_);}
	.st8{fill:url(#XMLID_58_);}
	.st9{fill:url(#XMLID_59_);}
	.st10{fill:url(#XMLID_60_);}
	.st11{fill:url(#XMLID_61_);}
	.st12{fill:url(#XMLID_63_);}
	.st13{fill:url(#XMLID_64_);}
	.st14{fill:#941B1E;}
	.st15{fill:url(#XMLID_65_);}
	.st16{fill:url(#XMLID_67_);}
	.st17{fill:url(#XMLID_68_);}
	.st18{fill:url(#XMLID_69_);}
	.st19{fill:url(#XMLID_70_);}
	.st20{fill:url(#XMLID_71_);}
	.st21{fill:url(#XMLID_72_);}
	.st22{fill:url(#XMLID_73_);}
	.st23{fill:url(#XMLID_74_);}
	.st24{fill:url(#XMLID_75_);}
	.st25{fill:url(#XMLID_76_);}
	.st26{fill:url(#XMLID_77_);}
	.st27{fill:url(#XMLID_78_);}
	.st28{fill:#5A5A5A;}
	.st29{fill:#9E9E9E;}
	.st30{fill:url(#XMLID_80_);}
	.st31{fill:url(#XMLID_81_);}
</style>
<linearGradient id="SVGID_1_" gradientUnits="userSpaceOnUse" x1="0" y1="0" x2="0.7071" y2="0.7071">
	<stop  offset="0" style="stop-color:#DEDFE3"/>
	<stop  offset="0.1738" style="stop-color:#D8D9DD"/>
	<stop  offset="0.352" style="stop-color:#C9CACD"/>
	<stop  offset="0.5323" style="stop-color:#B4B5B8"/>
	<stop  offset="0.7139" style="stop-color:#989A9C"/>
	<stop  offset="0.8949" style="stop-color:#797C7E"/>
	<stop  offset="1" style="stop-color:#656B6C"/>
</linearGradient>
<g id="XMLID_44_">
	
		<radialGradient id="XMLID_45_" cx="19.3847" cy="-4052.7117" r="11.2136" gradientTransform="matrix(-1.346898e-010 1 -2.0828 -2.805332e-010 -8421.3135 0.6186)" gradientUnits="userSpaceOnUse">
		<stop  offset="0" style="stop-color:#F7F8F8"/>
		<stop  offset="1" style="stop-color:#A9ACAB"/>
	</radialGradient>
	<path id="XMLID_42_" class="st0" d="M33.6,28.9c1.8-0.2,2.7-0.5,3.4-1.1c-0.1-0.2,0-0.5,0.2-0.7l1.5-2.1c0.2-0.2,0.4-0.4,0.7-0.4
		c0-0.1,0.1-0.2,0.1-0.3h-1.9v-8.6h1.9c0-0.1-0.1-0.2-0.1-0.3c-0.3,0-0.5-0.2-0.7-0.4l-1.5-2.1c-0.2-0.2-0.2-0.5-0.2-0.7
		c-0.7-0.6-1.6-0.9-3.4-1.1c-4.7-0.5-12,0.4-13.8,0.4c-9.6-0.1-15.5-0.2-17.5,0.4c-0.4,0.1-0.7,0.4-1,0.8c0,0.1,0.1,0.2,0.1,0.3
		c0,0.7-0.5,1.1-0.3,1.9c0.1,0.5-0.4,0.7-0.7,0.8c-0.1,0.5-0.1,1-0.2,1.4c0.1,0.1,0.2,0.2,0.2,0.3v4.8c0,0.1-0.1,0.3-0.2,0.3
		c0,0.3,0.1,0.7,0.1,1.1c0.3,0.1,0.8,0.2,0.7,0.8c-0.1,0.8,0.3,1.2,0.3,1.9c0,0.2-0.1,0.4-0.2,0.5c0.3,0.5,0.6,0.9,1.1,1
		c2,0.6,7.9,0.6,17.5,0.4C21.6,28.5,28.9,29.4,33.6,28.9z"/>
	
		<linearGradient id="XMLID_46_" gradientUnits="userSpaceOnUse" x1="15.0921" y1="0.952" x2="23.6771" y2="0.952" gradientTransform="matrix(-1.346898e-010 1 -1 -1.346898e-010 39.6961 0.6186)">
		<stop  offset="0" style="stop-color:#535A57"/>
		<stop  offset="1" style="stop-color:#2D2E2E"/>
	</linearGradient>
	<path id="XMLID_41_" class="st1" d="M37.5,24.3h1.9c0.8-2.4,0.8-6.1,0-8.6h-1.9V24.3z"/>
	
		<radialGradient id="XMLID_50_" cx="19.3847" cy="-5936.6978" r="8.9666" gradientTransform="matrix(-1.346898e-010 1 -3.8388 -5.170512e-010 -22769.7539 0.6186)" gradientUnits="userSpaceOnUse">
		<stop  offset="0" style="stop-color:#FFFFFF"/>
		<stop  offset="1" style="stop-color:#D3D6D5"/>
	</radialGradient>
	<path id="XMLID_40_" class="st2" d="M33.3,28.4c2.9-0.3,3.4-1,4.8-2.6c1.9-2.2,1.9-9.2,0-11.4c-1.4-1.6-1.9-2.3-4.8-2.6
		C28.8,11.1,21.7,12,20,12c-9.3-0.1-14.9-0.2-16.9,0.4C0.8,13.1,1,20,1,20c0,0-0.1,6.9,2.1,7.6c2,0.6,7.6,0.5,16.9,0.4
		C21.7,28,28.8,28.9,33.3,28.4z"/>
	
		<linearGradient id="XMLID_51_" gradientUnits="userSpaceOnUse" x1="13.0991" y1="16.7269" x2="25.6701" y2="16.7269" gradientTransform="matrix(-1.346898e-010 1 -1 -1.346898e-010 39.6961 0.6186)">
		<stop  offset="0" style="stop-color:#010101"/>
		<stop  offset="1" style="stop-color:#1B1C1C"/>
	</linearGradient>
	<path id="XMLID_39_" class="st3" d="M23.6,16.6c-0.2-1.4-0.6-2.5-0.8-2.9l-0.6,0.1c0,0,0.6,1.1,0.8,2.9c0.2,1.5,0.2,5,0,6.5
		c-0.3,1.8-0.8,2.9-0.8,2.9l0.6,0.1c0.2-0.4,0.6-1.4,0.8-2.9C23.8,21.8,23.8,18.2,23.6,16.6z"/>
	
		<linearGradient id="XMLID_52_" gradientUnits="userSpaceOnUse" x1="12.1063" y1="10.4234" x2="26.663" y2="10.4234" gradientTransform="matrix(-1.346898e-010 1 -1 -1.346898e-010 39.6961 0.6186)">
		<stop  offset="0" style="stop-color:#010101"/>
		<stop  offset="1" style="stop-color:#1B1C1C"/>
	</linearGradient>
	<path id="XMLID_38_" class="st4" d="M28.4,13.3c0.2,0.6,0.7,1.5,1,3.1c0.5,2.2,0.5,5.1,0,7.3c-0.3,1.5-0.7,2.5-1,3.1
		c-0.1,0.2-0.2,0.4-0.3,0.5l0,0c0,0,0.5,0.1,0.6,0c0.1-0.1,0.2-0.2,0.3-0.5c0.2-0.6,0.7-1.5,1-3.1c0.5-2.2,0.5-5.1,0-7.3
		c-0.3-1.5-0.7-2.5-1-3.1c-0.1-0.3-0.2-0.5-0.3-0.5c-0.1-0.1-0.6,0-0.6,0l0,0C28.2,12.9,28.3,13,28.4,13.3z"/>
	
		<linearGradient id="XMLID_55_" gradientUnits="userSpaceOnUse" x1="12.1695" y1="13.4082" x2="26.5999" y2="13.4082" gradientTransform="matrix(-1.346898e-010 1 -1 -1.346898e-010 39.6961 0.6186)">
		<stop  offset="0" style="stop-color:#373C3A"/>
		<stop  offset="1" style="stop-color:#1B1C1C"/>
	</linearGradient>
	<path id="XMLID_37_" class="st5" d="M23.6,16.6c0.2,1.6,0.2,5.2,0,6.8c-0.2,1.4-0.6,2.5-0.8,2.9l5.3,0.9c0.1-0.1,0.2-0.2,0.3-0.5
		c0.2-0.6,0.7-1.5,1-3.1c0.5-2.2,0.5-5.1,0-7.3c-0.3-1.5-0.7-2.5-1-3.1c-0.1-0.2-0.2-0.4-0.3-0.5l-5.3,0.9
		C23,14.1,23.4,15.1,23.6,16.6z"/>
	
		<linearGradient id="XMLID_56_" gradientUnits="userSpaceOnUse" x1="13.2786" y1="33.7478" x2="25.4907" y2="33.7478" gradientTransform="matrix(-1.346898e-010 1 -1 -1.346898e-010 39.6961 0.6186)">
		<stop  offset="0" style="stop-color:#010101"/>
		<stop  offset="1" style="stop-color:#1B1C1C"/>
	</linearGradient>
	<path id="XMLID_89_" class="st6" d="M8.3,25.8c0.2,0,0.5-0.1,0.7-0.2c0,0,0-0.1-0.1-0.2C8.6,24.8,8,23.1,8,20
		c0-2.8,0.6-4.7,0.8-5.4c0.1-0.2,0.1-0.2,0.1-0.2c-0.2-0.1-0.4-0.1-0.7-0.2C6.1,13.7,4,14,4,14s-0.6,1.2-0.9,3
		c-0.2,1.4-0.2,4.8,0,6.1c0.3,1.8,0.9,3,0.9,3S6.1,26.3,8.3,25.8z M4.6,25.6c0,0-0.6-1.1-0.9-2.8c-0.2-1.3-0.2-4.4,0-5.7
		c0.3-1.6,0.9-2.8,0.9-2.8s1.7-0.2,3.6,0.1c-0.3,1-0.7,3-0.7,5.5c0,2.8,0.4,4.6,0.6,5.5C6.2,25.8,4.6,25.6,4.6,25.6z"/>
	
		<linearGradient id="XMLID_57_" gradientUnits="userSpaceOnUse" x1="13.7058" y1="33.8452" x2="25.0638" y2="33.8452" gradientTransform="matrix(-1.346898e-010 1 -1 -1.346898e-010 39.6961 0.6186)">
		<stop  offset="0" style="stop-color:#373C3A"/>
		<stop  offset="1" style="stop-color:#1B1C1C"/>
	</linearGradient>
	<path id="XMLID_34_" class="st7" d="M8.2,14.5c-1.9-0.3-3.6-0.1-3.6-0.1S4,15.5,3.7,17.2c-0.2,1.3-0.2,4.4,0,5.7
		c0.3,1.6,0.9,2.8,0.9,2.8s1.7,0.2,3.6-0.1c-0.3-1-0.6-2.8-0.6-5.5C7.5,17.4,7.9,15.5,8.2,14.5z"/>
	<g id="XMLID_85_">
		
			<linearGradient id="XMLID_58_" gradientUnits="userSpaceOnUse" x1="11.6123" y1="17.3778" x2="13.0347" y2="17.3778" gradientTransform="matrix(-1.346898e-010 1 -1 -1.346898e-010 39.6961 0.6186)">
			<stop  offset="0" style="stop-color:#373C3A"/>
			<stop  offset="1" style="stop-color:#1B1C1C"/>
		</linearGradient>
		<path id="XMLID_33_" class="st8" d="M16.7,12.4l-0.4,1.2l5.5-0.2l6.5-1.2c0,0-1.7-0.1-4.1,0c-1.5,0.1-3.6,0.2-4.9,0.2
			C18,12.5,17.2,12.5,16.7,12.4z"/>
		
			<linearGradient id="XMLID_59_" gradientUnits="userSpaceOnUse" x1="25.7345" y1="17.3778" x2="27.1571" y2="17.3778" gradientTransform="matrix(-1.346898e-010 1 -1 -1.346898e-010 39.6961 0.6186)">
			<stop  offset="0" style="stop-color:#373C3A"/>
			<stop  offset="1" style="stop-color:#1B1C1C"/>
		</linearGradient>
		<path id="XMLID_32_" class="st9" d="M16.7,27.6l-0.4-1.2l5.5,0.2l6.5,1.2c0,0-1.7,0.1-4.1,0c-1.5-0.1-3.6-0.2-4.9-0.2
			C18,27.5,17.2,27.5,16.7,27.6z"/>
	</g>
	<g id="XMLID_82_">
		
			<linearGradient id="XMLID_60_" gradientUnits="userSpaceOnUse" x1="11.7136" y1="27.4644" x2="13.1843" y2="27.4644" gradientTransform="matrix(-1.346898e-010 1 -1 -1.346898e-010 39.6961 0.6186)">
			<stop  offset="0" style="stop-color:#373C3A"/>
			<stop  offset="1" style="stop-color:#1B1C1C"/>
		</linearGradient>
		<path id="XMLID_31_" class="st10" d="M16.2,12.4l-0.5,1.3l-4.6,0.1c0,0-0.6-0.1-1.5-0.6c-1.1-0.5-1.4-0.8-1.4-0.8
			S14.5,12.3,16.2,12.4z"/>
		
			<linearGradient id="XMLID_61_" gradientUnits="userSpaceOnUse" x1="25.5852" y1="27.4644" x2="27.0557" y2="27.4644" gradientTransform="matrix(-1.346898e-010 1 -1 -1.346898e-010 39.6961 0.6186)">
			<stop  offset="0" style="stop-color:#373C3A"/>
			<stop  offset="1" style="stop-color:#1B1C1C"/>
		</linearGradient>
		<path id="XMLID_30_" class="st11" d="M16.2,27.6l-0.5-1.3l-4.6-0.1c0,0-0.6,0.1-1.5,0.6c-1.1,0.5-1.4,0.8-1.4,0.8
			S14.5,27.8,16.2,27.6z"/>
	</g>
	<g id="XMLID_79_">
		
			<radialGradient id="XMLID_63_" cx="13.1896" cy="1.6178" r="1.3843" gradientTransform="matrix(-1.346898e-010 1 -1.0473 -1.410606e-010 39.8385 0.6186)" gradientUnits="userSpaceOnUse">
			<stop  offset="0" style="stop-color:#FFFFFF"/>
			<stop  offset="1" style="stop-color:#D3D6D5"/>
		</radialGradient>
		<path id="XMLID_29_" class="st12" d="M37.1,12.9l1.5,2.1c0.2,0.2,0.4,0.4,0.7,0.4c-0.2-0.6-0.5-1.1-0.8-1.5
			c-0.6-0.7-1-1.3-1.6-1.7C36.9,12.5,37,12.7,37.1,12.9z"/>
		
			<radialGradient id="XMLID_64_" cx="25.5797" cy="1.6178" r="1.3842" gradientTransform="matrix(-1.346898e-010 1 -1.0473 -1.410606e-010 39.8385 0.6186)" gradientUnits="userSpaceOnUse">
			<stop  offset="0" style="stop-color:#FFFFFF"/>
			<stop  offset="1" style="stop-color:#D3D6D5"/>
		</radialGradient>
		<path id="XMLID_28_" class="st13" d="M38.7,25l-1.5,2.1c-0.2,0.2-0.2,0.5-0.2,0.7c0.5-0.4,1-1,1.6-1.7c0.3-0.4,0.6-0.9,0.8-1.5
			C39.1,24.6,38.8,24.8,38.7,25z"/>
	</g>
	<path id="XMLID_27_" class="st14" d="M1,15c-0.1-0.8,0.3-1.2,0.3-1.9c0-0.1,0-0.2-0.1-0.3c-0.5,0.8-0.8,1.9-1,3.1
		C0.6,15.7,1.1,15.5,1,15z"/>
	<path id="XMLID_26_" class="st14" d="M1,24.6c0.1-0.6-0.4-0.8-0.7-0.8c0.2,1.2,0.4,2.4,0.9,3.2c0.1-0.1,0.2-0.3,0.2-0.5
		C1.3,25.8,0.8,25.5,1,24.6z"/>
	
		<linearGradient id="XMLID_65_" gradientUnits="userSpaceOnUse" x1="13.8143" y1="8.3977" x2="15.8365" y2="2.0554" gradientTransform="matrix(-1.346898e-010 1 -1 -1.346898e-010 39.6961 0.6186)">
		<stop  offset="0" style="stop-color:#D2DBDA"/>
		<stop  offset="1" style="stop-color:#B5B6B6"/>
	</linearGradient>
	<path id="XMLID_25_" class="st15" d="M30.4,14.2c0,0,2.6,1.4,3.5,1.6c0.7,0.1,3-0.1,3-0.1s-2.2-0.2-2.9-0.3
		C33.1,15.2,30.4,14.2,30.4,14.2z"/>
	
		<linearGradient id="XMLID_67_" gradientUnits="userSpaceOnUse" x1="24.7921" y1="8.7736" x2="23.1825" y2="2.381" gradientTransform="matrix(-1.346898e-010 1 -1 -1.346898e-010 39.6961 0.6186)">
		<stop  offset="0" style="stop-color:#D2DBDA"/>
		<stop  offset="1" style="stop-color:#B5B6B6"/>
	</linearGradient>
	<path id="XMLID_24_" class="st16" d="M30.4,25.8c0,0,2.6-1.4,3.5-1.6c0.7-0.1,3,0.1,3,0.1s-2.2,0.2-2.9,0.3
		C33.1,24.8,30.4,25.8,30.4,25.8z"/>
	
		<linearGradient id="XMLID_68_" gradientUnits="userSpaceOnUse" x1="19.3564" y1="11.9639" x2="23.3972" y2="14.8372" gradientTransform="matrix(-1.346898e-010 1 -1 -1.346898e-010 39.6961 0.6186)">
		<stop  offset="0" style="stop-color:#373C3A"/>
		<stop  offset="1" style="stop-color:#010101"/>
	</linearGradient>
	<path id="XMLID_23_" class="st17" d="M28.4,26.7c0.2-0.6,0.7-1.5,1-3.1c0.1-0.5,0.2-1.1,0.3-1.7c-1.7-1.5-4.7-3.4-6-4.1
		c0.1,1.8,0.1,4.3-0.1,5.6c-0.2,1.4-0.6,2.5-0.8,2.9l5.3,0.9C28.2,27.1,28.3,27,28.4,26.7z"/>
	
		<linearGradient id="XMLID_69_" gradientUnits="userSpaceOnUse" x1="15.3413" y1="16.8258" x2="31.0299" y2="42.5768" gradientTransform="matrix(-1.346898e-010 1 -1 -1.346898e-010 39.6961 0.6186)">
		<stop  offset="0" style="stop-color:#F7F8F8"/>
		<stop  offset="1" style="stop-color:#DCDBDB"/>
	</linearGradient>
	<path id="XMLID_22_" class="st18" d="M22.6,20c0.1-4.5-0.7-6-0.7-6S11,14.1,9.9,14.4c-0.7,0.2-1.1,3.1-1.2,4.8v1.5
		c0.1,1.8,0.5,4.6,1.2,4.8C11,25.9,21.9,26,21.9,26S22.7,24.5,22.6,20z"/>
	
		<linearGradient id="XMLID_70_" gradientUnits="userSpaceOnUse" x1="17.2881" y1="33.5562" x2="24.7629" y2="45.825" gradientTransform="matrix(-1.346898e-010 1 -1 -1.346898e-010 39.6961 0.6186)">
		<stop  offset="0" style="stop-color:#F7F8F8"/>
		<stop  offset="1" style="stop-color:#DCDBDB"/>
	</linearGradient>
	<path id="XMLID_21_" class="st19" d="M1.3,20.8c0.1,4.4,1.4,6.3,1.4,6.3l1-0.9C2.2,23.5,2.5,20,2.5,20l0,0c0,0-0.3-3.5,1.2-6.2
		l-1-0.9c0,0-1.2,1.9-1.4,6.3c0,0.2,0,0.8,0,0.8v0C1.3,20.3,1.3,20.6,1.3,20.8z"/>
	
		<linearGradient id="XMLID_71_" gradientUnits="userSpaceOnUse" x1="9.9365" y1="-2.2819" x2="13.7894" y2="8.8127" gradientTransform="matrix(-1.346898e-010 1 -1 -1.346898e-010 39.6961 0.6186)">
		<stop  offset="0" style="stop-color:#F7F8F8"/>
		<stop  offset="1" style="stop-color:#DCDBDB"/>
	</linearGradient>
	<path id="XMLID_20_" class="st20" d="M38.3,15c0,0-1.4-2.7-4.4-3c-3.1-0.3-4.7-0.3-4.7-0.3S36.7,12.7,38.3,15z"/>
	
		<linearGradient id="XMLID_72_" gradientUnits="userSpaceOnUse" x1="40.8551" y1="-2.2818" x2="44.7079" y2="8.8126" gradientTransform="matrix(1.346898e-010 -1 -1 -1.346898e-010 39.6961 70.3217)">
		<stop  offset="0" style="stop-color:#F7F8F8"/>
		<stop  offset="1" style="stop-color:#DCDBDB"/>
	</linearGradient>
	<path id="XMLID_19_" class="st21" d="M38.3,25c0,0-1.4,2.7-4.4,3c-3.1,0.3-4.7,0.3-4.7,0.3S36.7,27.3,38.3,25z"/>
	<g id="XMLID_66_">
		
			<linearGradient id="XMLID_73_" gradientUnits="userSpaceOnUse" x1="26.8993" y1="12.033" x2="28.4513" y2="15.038" gradientTransform="matrix(-1.346898e-010 1 -1 -1.346898e-010 39.6961 0.6186)">
			<stop  offset="0" style="stop-color:#373C3A"/>
			<stop  offset="1" style="stop-color:#1B1C1C"/>
		</linearGradient>
		<path id="XMLID_18_" class="st22" d="M27.9,27.7c0,0-0.1,0.7-0.7,0.7c-0.6,0-1.8-0.7-1-0.7C26.9,27.7,27.7,27.6,27.9,27.7z"/>
		
			<linearGradient id="XMLID_74_" gradientUnits="userSpaceOnUse" x1="27.5103" y1="12.9373" x2="29.5634" y2="12.9373" gradientTransform="matrix(-1.346898e-010 1 -1 -1.346898e-010 39.6961 0.6186)">
			<stop  offset="0" style="stop-color:#FFFFFF"/>
			<stop  offset="1" style="stop-color:#D3D6D5"/>
		</linearGradient>
		<path id="XMLID_17_" class="st23" d="M26.6,30.1c0.2-0.2,0.6-1.6,0.6-1.6c0.1-0.3-0.2-0.4-0.4-0.4l-0.6,2
			C26.4,30.2,26.5,30.2,26.6,30.1z"/>
		
			<linearGradient id="XMLID_75_" gradientUnits="userSpaceOnUse" x1="27.5105" y1="13.1971" x2="29.5635" y2="13.1971" gradientTransform="matrix(-1.346898e-010 1 -1 -1.346898e-010 39.6961 0.6186)">
			<stop  offset="0" style="stop-color:#373C3A"/>
			<stop  offset="1" style="stop-color:#1B1C1C"/>
		</linearGradient>
		<path id="XMLID_16_" class="st24" d="M26.9,28.1c-0.1,0-0.3,0-0.3,0l-0.5,2c0,0,0.1,0,0.1,0.1L26.9,28.1z"/>
	</g>
	<g id="XMLID_62_">
		
			<linearGradient id="XMLID_76_" gradientUnits="userSpaceOnUse" x1="11.334" y1="12.299" x2="12.6878" y2="15.2708" gradientTransform="matrix(-1.346898e-010 1 -1 -1.346898e-010 39.6961 0.6186)">
			<stop  offset="0" style="stop-color:#373C3A"/>
			<stop  offset="1" style="stop-color:#1B1C1C"/>
		</linearGradient>
		<path id="XMLID_15_" class="st25" d="M27.9,12.3c0,0-0.1-0.7-0.7-0.8c-0.6,0-1.8,0.7-1,0.8C26.9,12.3,27.7,12.4,27.9,12.3z"/>
		
			<linearGradient id="XMLID_77_" gradientUnits="userSpaceOnUse" x1="9.1998" y1="12.9097" x2="11.2527" y2="12.9097" gradientTransform="matrix(-1.346898e-010 1 -1 -1.346898e-010 39.6961 0.6186)">
			<stop  offset="0" style="stop-color:#D3D6D5"/>
			<stop  offset="1" style="stop-color:#FFFFFF"/>
		</linearGradient>
		<path id="XMLID_14_" class="st26" d="M27.3,11.4c0,0-0.4-1.4-0.6-1.6c-0.1-0.1-0.3-0.1-0.4,0l0.6,2C27.1,11.8,27.4,11.7,27.3,11.4
			z"/>
		
			<linearGradient id="XMLID_78_" gradientUnits="userSpaceOnUse" x1="9.1996" y1="13.1676" x2="11.2525" y2="13.1676" gradientTransform="matrix(-1.346898e-010 1 -1 -1.346898e-010 39.6961 0.6186)">
			<stop  offset="0" style="stop-color:#373C3A"/>
			<stop  offset="1" style="stop-color:#1B1C1C"/>
		</linearGradient>
		<path id="XMLID_13_" class="st27" d="M26.3,9.8c-0.1,0-0.1,0-0.1,0l0.5,2c0,0,0.1,0,0.2,0L26.3,9.8z"/>
	</g>
	<path id="XMLID_12_" class="st28" d="M20,11.5c0-0.1-0.1-0.2-0.2-0.2h-1.5c-0.1,0-0.2,0.1-0.2,0.2H20z"/>
	<path id="XMLID_11_" class="st28" d="M12.3,11.4c0-0.1-0.1-0.2-0.2-0.2h-1.5c-0.1,0-0.2,0.1-0.2,0.2H12.3z"/>
	<path id="XMLID_10_" class="st28" d="M20,28.5c0,0.1-0.1,0.2-0.2,0.2h-1.5c-0.1,0-0.2-0.1-0.2-0.2H20z"/>
	<path id="XMLID_9_" class="st28" d="M12.3,28.6c0,0.1-0.1,0.2-0.2,0.2h-1.5c-0.1,0-0.2-0.1-0.2-0.2H12.3z"/>
	<g id="XMLID_47_">
		<g id="XMLID_53_">
			<g id="XMLID_54_">
				<path id="XMLID_8_" class="st29" d="M31,16c0,0.3,0.2,0.4,0.2,0.7c0,0,0,0,0,0c0,0,0,0,0,0C31.3,16.4,31.1,16.3,31,16
					C31.1,15.9,31,15.9,31,16C31,15.9,31,15.9,31,16z"/>
				<path id="XMLID_7_" class="st29" d="M31.1,16.7c0-0.3-0.2-0.4-0.2-0.7c0,0,0,0,0,0c0,0,0,0,0,0C30.8,16.3,31,16.4,31.1,16.7
					C31,16.7,31,16.7,31.1,16.7C31.1,16.7,31.1,16.7,31.1,16.7z"/>
				<path id="XMLID_6_" class="st29" d="M30.9,16.7c0-0.3-0.2-0.4-0.2-0.7c0,0,0,0,0,0s0,0,0,0C30.6,16.3,30.8,16.4,30.9,16.7
					C30.8,16.7,30.9,16.7,30.9,16.7C30.9,16.7,30.9,16.7,30.9,16.7z"/>
			</g>
		</g>
		<g id="XMLID_48_">
			<g id="XMLID_49_">
				<path id="XMLID_5_" class="st29" d="M31,24c0-0.3,0.2-0.4,0.2-0.7c0,0,0,0,0,0c0,0,0,0,0,0C31.3,23.6,31.1,23.7,31,24
					C31.1,24.1,31,24.1,31,24C31,24.1,31,24.1,31,24z"/>
				<path id="XMLID_4_" class="st29" d="M31.1,23.3c0,0.3-0.2,0.4-0.2,0.7c0,0,0,0,0,0c0,0,0,0,0,0C30.8,23.7,31,23.6,31.1,23.3
					C31,23.3,31,23.3,31.1,23.3C31.1,23.3,31.1,23.3,31.1,23.3z"/>
				<path id="XMLID_3_" class="st29" d="M30.9,23.3c0,0.3-0.2,0.4-0.2,0.7c0,0,0,0,0,0s0,0,0,0C30.6,23.7,30.8,23.6,30.9,23.3
					C30.8,23.3,30.9,23.3,30.9,23.3C30.9,23.3,30.9,23.3,30.9,23.3z"/>
			</g>
		</g>
	</g>
	
		<linearGradient id="XMLID_80_" gradientUnits="userSpaceOnUse" x1="16.6213" y1="39.5496" x2="22.1419" y2="39.5496" gradientTransform="matrix(-1.346898e-010 1 -1 -1.346898e-010 39.6961 0.6186)">
		<stop  offset="0" style="stop-color:#373C3A"/>
		<stop  offset="1" style="stop-color:#1B1C1C"/>
	</linearGradient>
	<path id="XMLID_2_" class="st30" d="M0.3,22.4v-4.8c0-0.1-0.1-0.3-0.2-0.3C0,18.8,0,20,0,20c0,0,0,1.2,0.1,2.8
		C0.2,22.7,0.3,22.6,0.3,22.4z"/>
	
		<linearGradient id="XMLID_81_" gradientUnits="userSpaceOnUse" x1="16.6151" y1="28.425" x2="19.61" y2="33.0175" gradientTransform="matrix(-1.346898e-010 1 -1 -1.346898e-010 39.6961 0.6186)">
		<stop  offset="0" style="stop-color:#373C3A"/>
		<stop  offset="1" style="stop-color:#010101"/>
	</linearGradient>
	<path id="XMLID_1_" class="st31" d="M8.2,25.5c-0.3-1-0.6-2.8-0.6-5.5c0-0.6,0-1.1,0.1-1.6c-0.7-1.6-2.9-2.5-3.5-2.8
		c-0.1,0.4-0.3,0.9-0.4,1.5c-0.2,1.3-0.2,4.4,0,5.7c0.3,1.6,0.9,2.8,0.9,2.8S6.2,25.8,8.2,25.5z"/>
</g>
</svg>
