<svg height="512pt" viewBox="0 -2 512.00102 512" width="512pt" xmlns="http://www.w3.org/2000/svg"><path d="m502.835938 196.40625c0 66.101562-34.15625 124.226562-85.773438 157.691406-7.777344 5.046875-14.269531 11.824219-18.839844 19.886719l-67.445312 119.148437c-.152344.261719-.308594.515626-.480469.773438-7.203125 11.457031-24.230469 11.203125-31.011719-.773438l-67.445312-119.148437c-4.558594-8.050781-11.042969-14.832031-18.808594-19.859375-52.363281-33.929688-86.761719-93.226562-85.785156-160.488281 1.453125-101.113281 83.996094-183.613281 185.109375-185.015625 6.054687-.082032 12.050781.121094 17.960937.597656 96.574219 7.769531 172.519532 88.609375 172.519532 187.1875zm0 0" fill="#44bfd7"/><path d="m502.835938 196.40625c0 66.101562-34.15625 124.226562-85.773438 157.691406-7.777344 5.046875-14.269531 11.824219-18.839844 19.886719l-67.445312 119.148437c-.152344.261719-.308594.515626-.480469.773438-.171875-.257812-.324219-.511719-.476563-.773438l-67.449218-119.148437c-4.558594-8.050781-11.042969-14.832031-18.804688-19.859375-52.363281-33.929688-86.765625-93.226562-85.789062-160.488281 1.394531-96.890625 77.238281-176.679688 172.539062-184.417969 96.574219 7.769531 172.519532 88.609375 172.519532 187.1875zm0 0" fill="#7cd2e3"/><path d="m453.699219 196.183594c0 76.601562-62.109375 138.667968-138.667969 138.667968-76.585938 0-138.667969-62.082031-138.667969-138.667968 0-82.320313 71.457031-146.878906 153.933594-137.824219 69.402344 7.601563 123.402344 66.40625 123.402344 137.824219zm0 0" fill="#c2eaf2"/><path d="m453.699219 196.183594c0 71.425781-54 130.230468-123.402344 137.832031-69.398437-7.601563-123.402344-66.40625-123.402344-137.832031 0-71.417969 54.003907-130.222656 123.402344-137.824219 69.402344 7.601563 123.402344 66.40625 123.402344 137.824219zm0 0" fill="#def4f8"/><path d="m373.769531 194.726562-49.148437 83.386719-11.132813 18.886719c-4.691406 7.960938-16.925781 3.054688-14.808593-5.941406l15.46875-65.820313c1.179687-5.066406-2.65625-9.921875-7.855469-9.921875h-39.988281c-5.820313 0-9.730469-5.972656-7.398438-11.296875l47.183594-109.753906c1.28125-2.933594 4.179687-4.835937 7.386718-4.835937h28.621094c5.769532 0 9.675782 5.882812 7.4375 11.195312l-28.355468 70.734375c-2.238282 5.324219 1.671874 11.195313 7.441406 11.195313h38.195312c6.238282 0 10.117188 6.789062 6.953125 12.171874zm0 0" fill="#f29500"/><path d="m373.769531 194.726562-49.148437 83.386719 12.425781-52.875c1.183594-5.066406-2.65625-9.921875-7.855469-9.921875h-39.988281c-5.820313 0-9.730469-5.972656-7.398437-11.296875l47.183593-109.753906c1.28125-2.933594 4.183594-4.835937 7.386719-4.835937h5.722656c5.769532 0 9.675782 5.882812 7.4375 11.195312l-28.355468 70.734375c-2.238282 5.324219 1.671874 11.195313 7.441406 11.195313h38.195312c6.238282 0 10.117188 6.789062 6.953125 12.171874zm0 0" fill="#ffa90b"/><path d="m67.777344 245.429688c0-4.214844-3.417969-7.632813-7.632813-7.632813h-39.925781c-4.214844 0-7.632812 3.417969-7.632812 7.632813 0 4.21875 3.417968 7.636718 7.632812 7.636718h39.925781c4.214844 0 7.632813-3.417968 7.632813-7.636718zm0 0"/><path d="m129.226562 355.789062h24.972657c4.21875 0 7.632812-3.417968 7.632812-7.632812s-3.414062-7.632812-7.632812-7.632812h-24.972657c-4.21875 0-7.632812 3.417968-7.632812 7.632812s3.414062 7.632812 7.632812 7.632812zm0 0"/><path d="m124.230469 294.328125c0-4.21875-3.417969-7.636719-7.632813-7.636719h-62.816406c-4.214844 0-7.632812 3.417969-7.632812 7.636719 0 4.214844 3.417968 7.632813 7.632812 7.632813h62.816406c4.214844 0 7.632813-3.417969 7.632813-7.632813zm0 0"/><path d="m214.089844 462.421875c0-4.21875-3.414063-7.632813-7.632813-7.632813h-75.167969c-4.214843 0-7.632812 3.414063-7.632812 7.632813 0 4.214844 3.417969 7.632813 7.632812 7.632813h75.167969c4.21875 0 7.632813-3.417969 7.632813-7.632813zm0 0"/><path d="m271.710938 493.246094h-59.269532c-4.214844 0-7.632812 3.417968-7.632812 7.632812s3.417968 7.632813 7.632812 7.632813h59.269532c4.214843 0 7.632812-3.417969 7.632812-7.632813s-3.417969-7.632812-7.632812-7.632812zm0 0"/><path d="m150.679688 408.589844c0-4.214844-3.414063-7.632813-7.632813-7.632813h-45.910156c-4.21875 0-7.632813 3.417969-7.632813 7.632813s3.414063 7.632812 7.632813 7.632812h45.910156c4.21875 0 7.632813-3.417968 7.632813-7.632812zm0 0"/><path d="m216.589844 416.222656c4.214844 0 7.632812-3.417968 7.632812-7.632812s-3.417968-7.632813-7.632812-7.632813h-30.371094c-4.21875 0-7.632812 3.417969-7.632812 7.632813s3.414062 7.632812 7.632812 7.632812zm0 0"/><path d="m88.761719 194.101562c0-4.214843-3.414063-7.632812-7.632813-7.632812h-73.496094c-4.214843 0-7.632812 3.417969-7.632812 7.632812 0 4.214844 3.417969 7.632813 7.632812 7.632813h73.496094c4.21875 0 7.632813-3.417969 7.632813-7.632813zm0 0"/><path d="m313.773438.0195312c-106.160157 1.4804688-192.660157 88.6484378-192.660157 195.4218748 0 66.535156 33.382813 127.886719 89.296875 164.121094 6.785156 4.394531 12.425782 10.347656 16.3125 17.214844l29.644532 52.371094c2.078124 3.667968 6.734374 4.957031 10.402343 2.882812 3.671875-2.078125 4.960938-6.734375 2.882813-10.40625l-29.644532-52.371094c-5.09375-8.996094-12.457031-16.777344-21.296874-22.503906-51.628907-33.460938-83.230469-90.828125-82.308594-153.96875 1.398437-97.128906 82.164062-177.515625 180.15625-177.515625 99.351562 0 180.175781 80.828125 180.175781 180.175781 0 61.320313-30.765625 117.875-82.292969 151.285156-8.867187 5.75-16.242187 13.539063-21.332031 22.53125l-67.449219 119.148438c-4.003906 7.074219-14.191406 7.082031-18.203125 0l-22.761719-40.210938c-2.074218-3.667968-6.734374-4.957031-10.402343-2.882812-3.667969 2.078125-4.957031 6.734375-2.882813 10.40625l22.761719 40.207031c9.855469 17.40625 34.914063 17.417969 44.773437 0l67.449219-119.148437c3.882813-6.863282 9.539063-12.824219 16.351563-17.242188 55.890625-36.234375 89.253906-97.578125 89.253906-164.09375 0-108.644531-89.128906-196.9375-198.226562-195.4218748zm0 0"/><path d="m323.535156 341.859375c93.191406-4.433594 158.546875-93.179687 135.132813-183.589844-1.125-4.351562-5.566407-6.96875-9.921875-5.84375-4.351563 1.128907-6.96875 5.570313-5.839844 9.925781 20.792969 80.289063-37.183594 159.296876-120.144531 163.242188-41.773438 1.984375-81.316407-15.816406-107.59375-48.160156-2.832031-3.492188-7.960938-4.023438-11.453125-1.1875-3.488282 2.835937-4.019532 7.960937-1.183594 11.453125 29.632812 36.480469 74.195312 56.398437 121.003906 54.160156zm0 0"/><path d="m316.667969 64.691406c49.074219 0 93.535156 27.160156 116.023437 70.878906 2.058594 4 6.96875 5.574219 10.964844 3.515626 4-2.054688 5.574219-6.964844 3.515625-10.964844-12.175781-23.664063-30.59375-43.617188-53.269531-57.695313-98.988282-61.464843-229.6875 12.378907-223.988282 131.773438.976563 20.507812 6.074219 40.152343 15.15625 58.390625 2.003907 4.03125 6.894532 5.664062 10.917969 3.660156 4.023438-2.003906 5.664063-6.890625 3.660157-10.914062-42.035157-84.441407 17.792968-188.644532 117.019531-188.644532zm0 0"/><path d="m291.246094 289.304688c-4.148438 17.648437 19.773437 26.910156 28.816406 11.566406 65.367188-110.90625 62.464844-104.261719 62.464844-110.230469 0-8.664063-7.050782-15.714844-15.714844-15.714844h-38.195312c-1 0-1.976563 3.328125 27.984374-71.40625 4.316407-10.398437-3.394531-21.71875-14.503906-21.71875h-28.621094c-6.234374 0-11.882812 3.691407-14.402343 9.453125l-12.40625 28.859375c-1.667969 3.871094.125 8.363281 3.996093 10.027344 3.875 1.667969 8.363282-.125 10.027344-3.996094l12.386719-28.816406c.070313-.160156.226563-.261719.398437-.261719h28.621094c.402344 0 .445313.425782.445313.433594 0 .089844-.054688.199219-.089844.289062l-28.339844 70.683594c-4.316406 10.40625 3.398438 21.71875 14.507813 21.71875 39.804687 0 39.167968-.359375 38.566406.660156-64.59375 109.589844-60.476562 103.535157-61.121094 102.242188 0-1.1875 15.929688-65.890625 15.929688-69.71875 0-8.652344-7.046875-15.6875-15.707032-15.6875h-39.992187c-.402344 0-.445313-.429688-.445313-.433594 0-.113281 22.734376-52.953125 22.777344-53.058594 1.667969-3.875-.125-8.363281-3.996094-10.027343-3.871093-1.664063-8.363281.125-10.027343 3.996093l-22.695313 52.792969c-4.566406 10.445313 3.15625 21.996094 14.386719 21.996094 41.101563 0 40.632813-.375 40.414063.539063zm0 0"/></svg>