<?xml version="1.0" encoding="utf-8"?>
<!-- Generator: Adobe Illustrator 19.0.0, SVG Export Plug-In . SVG Version: 6.00 Build 0)  -->
<svg version="1.1" id="Layer_1" xmlns="http://www.w3.org/2000/svg" xmlns:xlink="http://www.w3.org/1999/xlink" x="0px" y="0px"
	 viewBox="0 0 40 40" style="enable-background:new 0 0 40 40;" xml:space="preserve">
<style type="text/css">
	.Round_x0020_Corners_x0020_2_x0020_pt{fill:#FFFFFF;stroke:#231F20;stroke-miterlimit:10;}
	.Live_x0020_Reflect_x0020_X{fill:none;}
	.Bevel_x0020_Soft{fill:url(#SVGID_1_);}
	.Dusk{fill:#FFFFFF;}
	.Pompadour_GS{fill-rule:evenodd;clip-rule:evenodd;fill:#44ADE2;}
	.st0{fill:#F29106;}
	.st1{fill:url(#SVGID_2_);}
	.st2{fill:url(#SVGID_3_);}
	.st3{fill:url(#SVGID_4_);}
	.st4{fill:url(#SVGID_5_);}
	.st5{fill:url(#SVGID_6_);}
	.st6{fill:url(#SVGID_7_);}
	.st7{fill:url(#SVGID_8_);}
	.st8{fill:url(#SVGID_9_);}
	.st9{fill:url(#SVGID_10_);}
	.st10{fill:url(#SVGID_11_);}
	.st11{fill:url(#SVGID_12_);}
	.st12{fill:url(#SVGID_13_);}
	.st13{fill:url(#SVGID_14_);}
	.st14{fill:url(#SVGID_15_);}
	.st15{fill:url(#SVGID_16_);}
	.st16{fill:url(#SVGID_17_);}
	.st17{fill:url(#SVGID_18_);}
	.st18{fill:url(#SVGID_19_);}
	.st19{fill:url(#SVGID_20_);}
	.st20{fill:url(#SVGID_21_);}
	.st21{fill:url(#SVGID_22_);}
	.st22{fill:url(#SVGID_23_);}
	.st23{fill:url(#SVGID_24_);}
	.st24{fill:#595959;}
	.st25{fill:#9E9E9E;}
	.st26{fill:url(#SVGID_25_);}
	.st27{fill:url(#SVGID_26_);}
	.st28{fill:url(#SVGID_27_);}
	.st29{fill:url(#SVGID_28_);}
	.st30{fill:url(#SVGID_29_);}
	.st31{fill:url(#SVGID_30_);}
	.st32{fill:url(#SVGID_31_);}
	.st33{fill:url(#SVGID_32_);}
	.st34{fill:url(#SVGID_33_);}
	.st35{fill:url(#SVGID_34_);}
	.st36{fill:url(#SVGID_35_);}
	.st37{fill:url(#SVGID_36_);}
	.st38{fill:url(#SVGID_37_);}
	.st39{fill:url(#SVGID_38_);}
	.st40{fill:url(#SVGID_39_);}
	.st41{fill:url(#SVGID_40_);}
	.st42{fill:url(#SVGID_41_);}
</style>
<linearGradient id="SVGID_1_" gradientUnits="userSpaceOnUse" x1="-205" y1="-205" x2="-204.2929" y2="-204.2929">
	<stop  offset="0" style="stop-color:#DEDFE3"/>
	<stop  offset="0.1783" style="stop-color:#DADBDF"/>
	<stop  offset="0.3611" style="stop-color:#CECFD3"/>
	<stop  offset="0.546" style="stop-color:#B9BCBF"/>
	<stop  offset="0.7324" style="stop-color:#9CA0A2"/>
	<stop  offset="0.9181" style="stop-color:#787D7E"/>
	<stop  offset="1" style="stop-color:#656B6C"/>
</linearGradient>
<g>
	<g>
		<path class="st0" d="M33.6,28c1.8-0.2,2.7-0.5,3.4-1c-0.1-0.2,0-0.4,0.2-0.6l1.5-1.9c0.2-0.2,0.4-0.3,0.7-0.3
			c0-0.1,0.1-0.2,0.1-0.3l-1.9,0v-7.7h1.9c0-0.1-0.1-0.2-0.1-0.3c-0.3,0-0.5-0.1-0.7-0.3l-1.5-1.9C37,13.5,36.9,13.2,37,13
			c-0.7-0.5-1.6-0.8-3.4-1c-4.7-0.5-12,0.3-13.8,0.3c-9.6-0.1-15.5-0.2-17.5,0.4c-0.4,0.1-0.7,0.4-1,0.8c0,0.1,0.1,0.2,0.1,0.3
			c0,0.7-0.5,1-0.3,1.7c0.1,0.5-0.4,0.7-0.7,0.7c-0.1,0.4-0.1,0.9-0.2,1.3c0.1,0.1,0.2,0.2,0.2,0.3v4.3c0,0.1-0.1,0.2-0.2,0.3
			c0,0.3,0.1,0.6,0.1,1c0.3,0,0.8,0.2,0.7,0.7c-0.1,0.7,0.3,1.1,0.3,1.7c0,0.2-0.1,0.4-0.2,0.4c0.3,0.5,0.6,0.8,1.1,0.9
			c2,0.6,7.9,0.5,17.5,0.4C21.6,27.6,28.9,28.5,33.6,28z"/>
		
			<linearGradient id="SVGID_2_" gradientUnits="userSpaceOnUse" x1="349.8433" y1="286.4127" x2="357.5313" y2="286.4127" gradientTransform="matrix(-1.346898e-010 1 -1 -1.346898e-010 325.1566 -333.6845)">
			<stop  offset="0" style="stop-color:#363B39"/>
			<stop  offset="1" style="stop-color:#1B1C1C"/>
		</linearGradient>
		<path class="st1" d="M37.5,23.8l1.9,0c0.8-2.2,0.8-5.5,0-7.7h-1.9V23.8z"/>
		
			<radialGradient id="SVGID_3_" cx="353.6836" cy="-5873.3735" r="8.0297" gradientTransform="matrix(-1.346898e-010 1 -4.2867 -5.773746e-010 -25157.1699 -333.6806)" gradientUnits="userSpaceOnUse">
			<stop  offset="0.4691" style="stop-color:#FFE43F"/>
			<stop  offset="0.6065" style="stop-color:#FEE13D"/>
			<stop  offset="0.7154" style="stop-color:#FDD735"/>
			<stop  offset="0.8145" style="stop-color:#FAC629"/>
			<stop  offset="0.9073" style="stop-color:#F6AF18"/>
			<stop  offset="0.9958" style="stop-color:#F09101"/>
			<stop  offset="1" style="stop-color:#F08F00"/>
		</radialGradient>
		<path class="st2" d="M33.3,27.5c2.9-0.3,3.4-0.9,4.8-2.4c1.9-2,1.9-8.2,0-10.2c-1.4-1.5-1.9-2.1-4.8-2.4
			c-4.5-0.5-11.6,0.3-13.3,0.3c-9.3-0.1-14.9-0.2-16.9,0.4C0.8,13.8,1,20,1,20c0,0-0.1,6.2,2.1,6.8c2,0.5,7.6,0.5,16.9,0.4
			C21.7,27.2,28.8,28,33.3,27.5z"/>
		
			<linearGradient id="SVGID_4_" gradientUnits="userSpaceOnUse" x1="348.059" y1="302.1872" x2="359.316" y2="302.1872" gradientTransform="matrix(-1.346898e-010 1 -1 -1.346898e-010 325.1566 -333.6845)">
			<stop  offset="0" style="stop-color:#000000"/>
			<stop  offset="1" style="stop-color:#1B1C1C"/>
		</linearGradient>
		<path class="st3" d="M23.6,16.9c-0.2-1.3-0.6-2.2-0.8-2.6l-0.6,0.1c0,0,0.6,1,0.8,2.6c0.2,1.4,0.2,4.5,0,5.9
			c-0.3,1.6-0.8,2.6-0.8,2.6l0.6,0.1c0.2-0.3,0.6-1.3,0.8-2.6C23.8,21.6,23.8,18.4,23.6,16.9z"/>
		
			<linearGradient id="SVGID_5_" gradientUnits="userSpaceOnUse" x1="347.1697" y1="295.8839" x2="360.2052" y2="295.8839" gradientTransform="matrix(-1.346898e-010 1 -1 -1.346898e-010 325.1566 -333.6845)">
			<stop  offset="0" style="stop-color:#000000"/>
			<stop  offset="1" style="stop-color:#1B1C1C"/>
		</linearGradient>
		<path class="st4" d="M28.4,14c0.2,0.5,0.7,1.4,1,2.8c0.5,2,0.5,4.6,0,6.6c-0.3,1.4-0.7,2.2-1,2.8c-0.1,0.2-0.2,0.4-0.3,0.4l0,0
			c0,0,0.5,0.1,0.6,0c0.1-0.1,0.2-0.2,0.3-0.5c0.2-0.5,0.7-1.4,1-2.8c0.5-2,0.5-4.6,0-6.6c-0.3-1.4-0.7-2.2-1-2.8
			c-0.1-0.3-0.2-0.4-0.3-0.5c-0.1-0.1-0.6,0-0.6,0l0,0C28.2,13.6,28.3,13.8,28.4,14z"/>
		
			<linearGradient id="SVGID_6_" gradientUnits="userSpaceOnUse" x1="347.2262" y1="298.8686" x2="360.1487" y2="298.8686" gradientTransform="matrix(-1.346898e-010 1 -1 -1.346898e-010 325.1566 -333.6845)">
			<stop  offset="0" style="stop-color:#363B39"/>
			<stop  offset="1" style="stop-color:#1B1C1C"/>
		</linearGradient>
		<path class="st5" d="M23.6,16.9c0.2,1.4,0.2,4.7,0,6.1c-0.2,1.3-0.6,2.2-0.8,2.6l5.3,0.8c0.1-0.1,0.2-0.2,0.3-0.4
			c0.2-0.5,0.7-1.4,1-2.8c0.5-2,0.5-4.6,0-6.6c-0.3-1.4-0.7-2.2-1-2.8c-0.1-0.2-0.2-0.4-0.3-0.4l-5.3,0.8
			C23,14.7,23.4,15.6,23.6,16.9z"/>
		
			<linearGradient id="SVGID_7_" gradientUnits="userSpaceOnUse" x1="347.6655" y1="319.208" x2="359.7093" y2="319.208" gradientTransform="matrix(-1.346898e-010 1 -1 -1.346898e-010 325.1566 -333.6845)">
			<stop  offset="0" style="stop-color:#000000"/>
			<stop  offset="1" style="stop-color:#1B1C1C"/>
		</linearGradient>
		<path class="st6" d="M8.3,25.7c0.2,0,0.5-0.1,0.7-0.2c0,0,0-0.1-0.1-0.2C8.6,24.7,8,23,8,20c0-2.8,0.6-4.7,0.8-5.3
			c0.1-0.2,0.1-0.2,0.1-0.2c-0.2-0.1-0.4-0.1-0.7-0.2C6.1,13.8,4,14,4,14s-0.6,1.2-0.9,3c-0.2,1.3-0.2,4.7,0,6C3.5,24.8,4,26,4,26
			S6.1,26.2,8.3,25.7z M4.6,25.6c0,0-0.6-1.1-0.9-2.7c-0.2-1.2-0.2-4.4,0-5.6c0.3-1.6,0.9-2.7,0.9-2.7s1.7-0.2,3.6,0.1
			c-0.3,1-0.7,2.9-0.7,5.4c0,2.7,0.4,4.5,0.6,5.4C6.2,25.7,4.6,25.6,4.6,25.6z"/>
		
			<linearGradient id="SVGID_8_" gradientUnits="userSpaceOnUse" x1="348.0871" y1="319.3053" x2="359.2882" y2="319.3053" gradientTransform="matrix(-1.346898e-010 1 -1 -1.346898e-010 325.1566 -333.6845)">
			<stop  offset="0" style="stop-color:#363B39"/>
			<stop  offset="1" style="stop-color:#1B1C1C"/>
		</linearGradient>
		<path class="st7" d="M8.2,14.6c-1.9-0.3-3.6-0.1-3.6-0.1S4,15.6,3.7,17.2c-0.2,1.2-0.2,4.4,0,5.6c0.3,1.6,0.9,2.7,0.9,2.7
			s1.7,0.2,3.6-0.1c-0.3-1-0.6-2.7-0.6-5.4C7.5,17.5,7.9,15.6,8.2,14.6z"/>
		<g>
			
				<linearGradient id="SVGID_9_" gradientUnits="userSpaceOnUse" x1="346.727" y1="302.8382" x2="348.0009" y2="302.8382" gradientTransform="matrix(-1.346898e-010 1 -1 -1.346898e-010 325.1566 -333.6845)">
				<stop  offset="0" style="stop-color:#363B39"/>
				<stop  offset="1" style="stop-color:#1B1C1C"/>
			</linearGradient>
			<path class="st8" d="M16.7,13.2l-0.4,1.1l5.5-0.2l6.5-1c0,0-1.7-0.1-4.1,0c-1.5,0.1-3.6,0.2-4.9,0.2C18,13.3,17.2,13.3,16.7,13.2
				z"/>
			
				<linearGradient id="SVGID_10_" gradientUnits="userSpaceOnUse" x1="359.3741" y1="302.8382" x2="360.6479" y2="302.8382" gradientTransform="matrix(-1.346898e-010 1 -1 -1.346898e-010 325.1566 -333.6845)">
				<stop  offset="0" style="stop-color:#363B39"/>
				<stop  offset="1" style="stop-color:#1B1C1C"/>
			</linearGradient>
			<path class="st9" d="M16.7,26.8l-0.4-1.1l5.5,0.2l6.5,1c0,0-1.7,0.1-4.1,0c-1.5-0.1-3.6-0.2-4.9-0.2C18,26.7,17.2,26.7,16.7,26.8
				z"/>
		</g>
		<g>
			
				<linearGradient id="SVGID_11_" gradientUnits="userSpaceOnUse" x1="346.8177" y1="312.9247" x2="348.1348" y2="312.9247" gradientTransform="matrix(-1.346898e-010 1 -1 -1.346898e-010 325.1566 -333.6845)">
				<stop  offset="0" style="stop-color:#363B39"/>
				<stop  offset="1" style="stop-color:#1B1C1C"/>
			</linearGradient>
			<path class="st10" d="M16.2,13.2l-0.5,1.1l-4.6,0.1c0,0-0.6-0.1-1.5-0.5c-1.1-0.5-1.4-0.7-1.4-0.7S14.5,13.1,16.2,13.2z"/>
			
				<linearGradient id="SVGID_12_" gradientUnits="userSpaceOnUse" x1="359.2406" y1="312.9247" x2="360.5569" y2="312.9247" gradientTransform="matrix(-1.346898e-010 1 -1 -1.346898e-010 325.1566 -333.6845)">
				<stop  offset="0" style="stop-color:#363B39"/>
				<stop  offset="1" style="stop-color:#1B1C1C"/>
			</linearGradient>
			<path class="st11" d="M16.2,26.8l-0.5-1.1l-4.6-0.1c0,0-0.6,0.1-1.5,0.5c-1.1,0.5-1.4,0.7-1.4,0.7S14.5,26.9,16.2,26.8z"/>
		</g>
		
			<radialGradient id="SVGID_13_" cx="12.416" cy="158.6666" r="1.0337" gradientTransform="matrix(-1.346898e-010 1 -1 -1.346898e-010 159.4708 2.4483)" gradientUnits="userSpaceOnUse">
			<stop  offset="0" style="stop-color:#F1623A"/>
			<stop  offset="7.475293e-002" style="stop-color:#E65A36"/>
			<stop  offset="0.3179" style="stop-color:#C8452D"/>
			<stop  offset="0.5568" style="stop-color:#B23626"/>
			<stop  offset="0.7873" style="stop-color:#A52D21"/>
			<stop  offset="1" style="stop-color:#A12A20"/>
		</radialGradient>
		<path class="st12" d="M1,15.5c-0.1-0.7,0.3-1.1,0.3-1.7c0-0.1,0-0.2-0.1-0.3c-0.5,0.7-0.8,1.7-1,2.7C0.6,16.2,1.1,16,1,15.5z"/>
		
			<radialGradient id="SVGID_14_" cx="22.4367" cy="158.6943" r="1.0936" gradientTransform="matrix(-1.346898e-010 1 -1 -1.346898e-010 159.4708 2.4483)" gradientUnits="userSpaceOnUse">
			<stop  offset="0" style="stop-color:#F1623A"/>
			<stop  offset="7.475293e-002" style="stop-color:#E65A36"/>
			<stop  offset="0.3179" style="stop-color:#C8452D"/>
			<stop  offset="0.5568" style="stop-color:#B23626"/>
			<stop  offset="0.7873" style="stop-color:#A52D21"/>
			<stop  offset="1" style="stop-color:#A12A20"/>
		</radialGradient>
		<path class="st13" d="M1,24.2c0.1-0.5-0.4-0.7-0.7-0.7c0.2,1.1,0.4,2.1,0.9,2.9c0.1-0.1,0.2-0.2,0.2-0.4C1.3,25.2,0.8,24.9,1,24.2
			z"/>
		
			<linearGradient id="SVGID_15_" gradientUnits="userSpaceOnUse" x1="359.1988" y1="295.5749" x2="356.742" y2="285.8175" gradientTransform="matrix(-1.346898e-010 1 -1 -1.346898e-010 325.1566 -333.6845)">
			<stop  offset="0" style="stop-color:#FFFFFF"/>
			<stop  offset="1" style="stop-color:#DBDBDB"/>
		</linearGradient>
		<path class="st14" d="M28.6,25.2c0,0,4-1.3,5.5-1.4c1.1-0.1,4.7,0.1,4.7,0.1s-3.4,0.1-4.5,0.3C32.8,24.3,28.6,25.2,28.6,25.2z"/>
		
			<linearGradient id="SVGID_16_" gradientUnits="userSpaceOnUse" x1="481.4438" y1="295.5749" x2="478.9869" y2="285.8175" gradientTransform="matrix(1.346898e-010 -1 -1 -1.346898e-010 325.1566 496.1163)">
			<stop  offset="0" style="stop-color:#FFFFFF"/>
			<stop  offset="1" style="stop-color:#DBDBDB"/>
		</linearGradient>
		<path class="st15" d="M28.6,15c0,0,4,1.3,5.5,1.4c1.1,0.1,4.7-0.1,4.7-0.1s-3.4-0.1-4.5-0.3C32.8,15.9,28.6,15,28.6,15z"/>
		
			<linearGradient id="SVGID_17_" gradientUnits="userSpaceOnUse" x1="353.5359" y1="297.5194" x2="357.3289" y2="300.2164" gradientTransform="matrix(-1.346898e-010 1 -1 -1.346898e-010 325.1566 -333.6845)">
			<stop  offset="0" style="stop-color:#363B39"/>
			<stop  offset="1" style="stop-color:#000000"/>
		</linearGradient>
		<path class="st16" d="M28.4,26c0.2-0.5,0.7-1.4,1-2.8c0.1-0.5,0.2-1,0.3-1.5c-1.7-1.4-4.7-3-6-3.7c0.1,1.6,0.1,3.9-0.1,5
			c-0.2,1.3-0.6,2.2-0.8,2.6l5.3,0.8C28.2,26.4,28.3,26.3,28.4,26z"/>
		
			<linearGradient id="SVGID_18_" gradientUnits="userSpaceOnUse" x1="348.3263" y1="309.3624" x2="359.0483" y2="309.3624" gradientTransform="matrix(-1.346898e-010 1 -1 -1.346898e-010 325.1563 -333.6845)">
			<stop  offset="0" style="stop-color:#FFE43F"/>
			<stop  offset="0.2587" style="stop-color:#FEE13D"/>
			<stop  offset="0.4639" style="stop-color:#FDD735"/>
			<stop  offset="0.6506" style="stop-color:#FAC629"/>
			<stop  offset="0.8254" style="stop-color:#F6AF18"/>
			<stop  offset="0.9921" style="stop-color:#F09101"/>
			<stop  offset="1" style="stop-color:#F08F00"/>
		</linearGradient>
		<path class="st17" d="M22.8,20c0.1-4-0.9-5.4-0.9-5.4S11,14.7,9.9,15c-0.7,0.2-1.1,2.7-1.2,4.3l0,1.3c0.1,1.6,0.5,4.1,1.2,4.3
			c1.1,0.3,11.9,0.4,11.9,0.4S22.9,24,22.8,20z"/>
		
			<linearGradient id="SVGID_19_" gradientUnits="userSpaceOnUse" x1="344.8874" y1="283.057" x2="348.7974" y2="294.3161" gradientTransform="matrix(-1.346898e-010 1 -1 -1.346898e-010 325.1566 -333.6845)">
			<stop  offset="0" style="stop-color:#F7F7F7"/>
			<stop  offset="1" style="stop-color:#DBDBDB"/>
		</linearGradient>
		<path class="st18" d="M38.3,15.5c0,0-1.4-2.4-4.4-2.7c-3.1-0.3-4.7-0.2-4.7-0.2S36.7,13.5,38.3,15.5z"/>
		
			<linearGradient id="SVGID_20_" gradientUnits="userSpaceOnUse" x1="-292.7972" y1="283.0564" x2="-288.8872" y2="294.3153" gradientTransform="matrix(1.346898e-010 -1 -1 -1.346898e-010 325.1559 -263.9804)">
			<stop  offset="0" style="stop-color:#F7F7F7"/>
			<stop  offset="1" style="stop-color:#DBDBDB"/>
		</linearGradient>
		<path class="st19" d="M38.3,24.5c0,0-1.4,2.4-4.4,2.7c-3.1,0.3-4.7,0.2-4.7,0.2S36.7,26.6,38.3,24.5z"/>
		<g>
			
				<linearGradient id="SVGID_21_" gradientUnits="userSpaceOnUse" x1="360.3719" y1="297.507" x2="361.9182" y2="300.5011" gradientTransform="matrix(-1.346898e-010 1 -1 -1.346898e-010 325.1566 -333.6845)">
				<stop  offset="0" style="stop-color:#363B39"/>
				<stop  offset="1" style="stop-color:#1B1C1C"/>
			</linearGradient>
			<path class="st20" d="M27.9,26.9c0,0-0.1,0.6-0.7,0.6c-0.6,0-1.8-0.6-1-0.6C26.9,26.9,27.7,26.8,27.9,26.9z"/>
			<path class="st0" d="M26.6,29.1c0.2-0.1,0.6-1.4,0.6-1.4c0.1-0.2-0.2-0.3-0.4-0.4l-0.6,1.8C26.4,29.1,26.5,29.1,26.6,29.1z"/>
			
				<linearGradient id="SVGID_22_" gradientUnits="userSpaceOnUse" x1="360.9643" y1="298.6577" x2="362.8029" y2="298.6577" gradientTransform="matrix(-1.346898e-010 1 -1 -1.346898e-010 325.1566 -333.6845)">
				<stop  offset="0" style="stop-color:#363B39"/>
				<stop  offset="1" style="stop-color:#1B1C1C"/>
			</linearGradient>
			<path class="st21" d="M26.9,27.3c-0.1,0-0.3,0-0.3,0l-0.5,1.8c0,0,0.1,0,0.1,0L26.9,27.3z"/>
		</g>
		<g>
			
				<linearGradient id="SVGID_23_" gradientUnits="userSpaceOnUse" x1="346.4673" y1="297.757" x2="347.8159" y2="300.7173" gradientTransform="matrix(-1.346898e-010 1 -1 -1.346898e-010 325.1566 -333.6845)">
				<stop  offset="0" style="stop-color:#363B39"/>
				<stop  offset="1" style="stop-color:#1B1C1C"/>
			</linearGradient>
			<path class="st22" d="M27.9,13.1c0,0-0.1-0.7-0.7-0.7c-0.6,0-1.8,0.7-1,0.7C26.9,13.1,27.7,13.2,27.9,13.1z"/>
			<path class="st0" d="M27.3,12.3c0,0-0.4-1.3-0.6-1.4c-0.1-0.1-0.3-0.1-0.4,0l0.6,1.8C27.1,12.7,27.4,12.6,27.3,12.3z"/>
			
				<linearGradient id="SVGID_24_" gradientUnits="userSpaceOnUse" x1="344.5667" y1="298.6281" x2="346.4051" y2="298.6281" gradientTransform="matrix(-1.346898e-010 1 -1 -1.346898e-010 325.1566 -333.6845)">
				<stop  offset="0" style="stop-color:#363B39"/>
				<stop  offset="1" style="stop-color:#1B1C1C"/>
			</linearGradient>
			<path class="st23" d="M26.3,10.9c-0.1,0-0.1,0-0.1,0l0.5,1.8c0,0,0.1,0,0.2,0L26.3,10.9z"/>
		</g>
		<path class="st24" d="M20,12.4c0-0.1-0.1-0.2-0.2-0.2h-1.5c-0.1,0-0.2,0.1-0.2,0.2H20z"/>
		<path class="st24" d="M12.3,12.3c0-0.1-0.1-0.2-0.2-0.2h-1.5c-0.1,0-0.2,0.1-0.2,0.2L12.3,12.3z"/>
		<path class="st24" d="M20,27.6c0,0.1-0.1,0.2-0.2,0.2h-1.5c-0.1,0-0.2-0.1-0.2-0.2H20z"/>
		<path class="st24" d="M12.3,27.7c0,0.1-0.1,0.2-0.2,0.2h-1.5c-0.1,0-0.2-0.1-0.2-0.2L12.3,27.7z"/>
		<g>
			<g>
				<g>
					<path class="st25" d="M31,16.4c0,0.3,0.2,0.4,0.2,0.7c0,0,0,0,0,0s0,0,0,0C31.3,16.8,31.1,16.6,31,16.4
						C31.1,16.4,31,16.3,31,16.4C31,16.3,31,16.4,31,16.4z"/>
					<path class="st25" d="M31.1,17c0-0.3-0.2-0.4-0.2-0.7c0,0,0,0,0,0c0,0,0,0,0,0C30.8,16.6,31,16.8,31.1,17
						C31,17.1,31,17.1,31.1,17C31.1,17.1,31.1,17.1,31.1,17z"/>
					<path class="st25" d="M30.9,17c0-0.3-0.2-0.4-0.2-0.7c0,0,0,0,0,0c0,0,0,0,0,0C30.6,16.6,30.8,16.8,30.9,17
						C30.8,17.1,30.9,17.1,30.9,17C30.9,17.1,30.9,17.1,30.9,17z"/>
				</g>
			</g>
			<g>
				<g>
					<path class="st25" d="M31,23.6c0-0.3,0.2-0.4,0.2-0.7c0,0,0,0,0,0s0,0,0,0C31.3,23.2,31.1,23.4,31,23.6
						C31.1,23.6,31,23.7,31,23.6C31,23.7,31,23.6,31,23.6z"/>
					<path class="st25" d="M31.1,23c0,0.3-0.2,0.4-0.2,0.7c0,0,0,0,0,0c0,0,0,0,0,0C30.8,23.4,31,23.2,31.1,23
						C31,22.9,31,22.9,31.1,23C31.1,22.9,31.1,22.9,31.1,23z"/>
					<path class="st25" d="M30.9,23c0,0.3-0.2,0.4-0.2,0.7c0,0,0,0,0,0c0,0,0,0,0,0C30.6,23.4,30.8,23.2,30.9,23
						C30.8,22.9,30.9,22.9,30.9,23C30.9,22.9,30.9,22.9,30.9,23z"/>
				</g>
			</g>
		</g>
		
			<linearGradient id="SVGID_25_" gradientUnits="userSpaceOnUse" x1="351.2128" y1="325.01" x2="356.1564" y2="325.01" gradientTransform="matrix(-1.346898e-010 1 -1 -1.346898e-010 325.1566 -333.6845)">
			<stop  offset="0" style="stop-color:#363B39"/>
			<stop  offset="1" style="stop-color:#1B1C1C"/>
		</linearGradient>
		<path class="st26" d="M0.3,22.2v-4.3c0-0.1-0.1-0.2-0.2-0.3C0,18.9,0,20,0,20c0,0,0,1.1,0.1,2.5C0.2,22.4,0.3,22.3,0.3,22.2z"/>
		
			<linearGradient id="SVGID_26_" gradientUnits="userSpaceOnUse" x1="350.9384" y1="313.9287" x2="353.9068" y2="318.4806" gradientTransform="matrix(-1.346898e-010 1 -1 -1.346898e-010 325.1566 -333.6845)">
			<stop  offset="0" style="stop-color:#363B39"/>
			<stop  offset="1" style="stop-color:#000000"/>
		</linearGradient>
		<path class="st27" d="M8.2,25.4c-0.3-1-0.6-2.7-0.6-5.4c0-0.6,0-1.1,0.1-1.6c-0.7-1.6-2.9-2.5-3.5-2.7c-0.1,0.4-0.3,0.9-0.4,1.5
			c-0.2,1.2-0.2,4.4,0,5.6c0.3,1.6,0.9,2.7,0.9,2.7S6.2,25.7,8.2,25.4z"/>
		<g>
			
				<linearGradient id="SVGID_27_" gradientUnits="userSpaceOnUse" x1="281.8235" y1="124.1694" x2="284.8663" y2="124.1694" gradientTransform="matrix(5.020000e-002 -0.9987 -0.9987 -5.020000e-002 147.7362 303.5583)">
				<stop  offset="0" style="stop-color:#9C9C9C"/>
				<stop  offset="1" style="stop-color:#5A5C5C"/>
			</linearGradient>
			<path class="st28" d="M36.6,12.8c0.4,0.2,0.8,0.5,1.1,0.8c0.8,0.7,1.3,1.6,1.7,2.4C38.6,15.8,37.4,15.2,36.6,12.8z"/>
			
				<linearGradient id="SVGID_28_" gradientUnits="userSpaceOnUse" x1="281.9793" y1="124.1555" x2="284.616" y2="124.1555" gradientTransform="matrix(5.020000e-002 -0.9987 -0.9987 -5.020000e-002 147.7362 303.5583)">
				<stop  offset="0" style="stop-color:#FFFFFF"/>
				<stop  offset="1" style="stop-color:#878787"/>
			</linearGradient>
			<path class="st29" d="M36.8,13c0.7,1.9,1.7,2.5,2.4,2.8c-0.4-0.9-0.9-1.6-1.6-2.2C37.3,13.4,37.1,13.2,36.8,13z"/>
		</g>
		<g>
			
				<linearGradient id="SVGID_29_" gradientUnits="userSpaceOnUse" x1="159.4484" y1="118.0182" x2="162.4911" y2="118.0182" gradientTransform="matrix(5.020000e-002 0.9987 -0.9987 5.020000e-002 147.7362 -140.9976)">
				<stop  offset="0" style="stop-color:#9C9C9C"/>
				<stop  offset="1" style="stop-color:#5A5C5C"/>
			</linearGradient>
			<path class="st30" d="M36.6,27.3c0.4-0.2,0.8-0.5,1.1-0.8c0.8-0.7,1.3-1.6,1.7-2.4C38.6,24.2,37.4,24.9,36.6,27.3z"/>
			
				<linearGradient id="SVGID_30_" gradientUnits="userSpaceOnUse" x1="159.6042" y1="118.0043" x2="162.2409" y2="118.0043" gradientTransform="matrix(5.020000e-002 0.9987 -0.9987 5.020000e-002 147.7362 -140.9976)">
				<stop  offset="0" style="stop-color:#FFFFFF"/>
				<stop  offset="1" style="stop-color:#878787"/>
			</linearGradient>
			<path class="st31" d="M36.8,27c0.7-1.9,1.7-2.5,2.4-2.8c-0.4,0.9-0.9,1.6-1.6,2.2C37.3,26.6,37.1,26.8,36.8,27z"/>
		</g>
		<g>
			<path d="M33.8,21.5h0.3v0.6h1.7v0.4h-1.7V23h-0.3V21.5z"/>
			<path d="M35.8,19.7V20c0,0,0,0.1,0,0.1c0,0,0,0-0.1,0l-0.4,0.1v0.8l0.4,0.1c0,0,0,0,0.1,0c0,0,0,0,0,0.1v0.3l-2-0.8v-0.4
				L35.8,19.7z M35,21v-0.6l-0.7,0.2c0,0-0.1,0-0.1,0c0,0-0.1,0-0.1,0c0,0,0.1,0,0.1,0c0,0,0.1,0,0.1,0L35,21z"/>
			<path d="M34.8,19l-1,0.6v-0.4c0,0,0,0,0-0.1c0,0,0,0,0,0l0.7-0.5c0,0,0,0,0,0c0,0,0,0,0,0l-0.7-0.4c0,0-0.1,0-0.1-0.1v-0.4l1,0.6
				l1-0.7v0.4c0,0,0,0,0,0.1c0,0,0,0,0,0L35,18.8c0,0,0,0,0,0c0,0,0,0,0,0l0.7,0.4c0,0,0,0,0,0c0,0,0,0,0,0.1v0.3L34.8,19z"/>
			<path d="M35.8,17.2v0.4h-2v-0.4H35.8z"/>
		</g>
		
			<linearGradient id="SVGID_31_" gradientUnits="userSpaceOnUse" x1="17.5545" y1="139.3488" x2="17.5545" y2="149.1007" gradientTransform="matrix(-1.346898e-010 1 -1 -1.346898e-010 159.4708 2.4483)">
			<stop  offset="0" style="stop-color:#F19706"/>
			<stop  offset="0.1441" style="stop-color:#FEDF3B"/>
			<stop  offset="0.8644" style="stop-color:#FDDB38"/>
			<stop  offset="0.8954" style="stop-color:#FBCF2F"/>
			<stop  offset="0.9511" style="stop-color:#F6B018"/>
			<stop  offset="1" style="stop-color:#F08F00"/>
		</linearGradient>
		<path class="st32" d="M18.9,20.7l0.7,0.9c0.2-0.1,0.4-0.4,0.4-0.7v-1.8c0-0.3-0.2-0.5-0.4-0.7l-0.7,0.9h-7.5l-0.7-0.9
			c-0.2,0.1-0.4,0.4-0.4,0.6v1.8c0,0.3,0.2,0.5,0.4,0.6l0.7-0.9H18.9z"/>
		
			<linearGradient id="SVGID_32_" gradientUnits="userSpaceOnUse" x1="15.9377" y1="144.2853" x2="18.8541" y2="144.2853" gradientTransform="matrix(-1.346898e-010 1 -1 -1.346898e-010 159.4708 2.4483)">
			<stop  offset="0" style="stop-color:#363B39"/>
			<stop  offset="1" style="stop-color:#1B1C1C"/>
		</linearGradient>
		<polygon class="st33" points="19.3,18.4 11.1,18.4 11.1,18.4 19.3,18.4 		"/>
		
			<radialGradient id="SVGID_33_" cx="18.6918" cy="144.3141" r="3.209" gradientTransform="matrix(-1.346898e-010 1 -1 -1.346898e-010 159.4708 2.4483)" gradientUnits="userSpaceOnUse">
			<stop  offset="0" style="stop-color:#F7F7F7"/>
			<stop  offset="1" style="stop-color:#DBDBDB"/>
		</radialGradient>
		<path class="st34" d="M10.6,21.6h0.4C10.9,21.6,10.8,21.6,10.6,21.6L10.6,21.6z"/>
		
			<linearGradient id="SVGID_34_" gradientUnits="userSpaceOnUse" x1="15.8321" y1="144.2477" x2="19.1713" y2="144.2477" gradientTransform="matrix(-1.346898e-010 1 -1 -1.346898e-010 159.4708 2.4483)">
			<stop  offset="0" style="stop-color:#363B39"/>
			<stop  offset="1" style="stop-color:#1B1C1C"/>
		</linearGradient>
		<path class="st35" d="M19.1,20.6l-7.7,0l-0.7,0.9c0.1,0.1,0.2,0.1,0.3,0.1h8.2c0.1,0,0.3-0.1,0.4-0.1L19.1,20.6z"/>
		
			<linearGradient id="SVGID_35_" gradientUnits="userSpaceOnUse" x1="18.9207" y1="144.3054" x2="18.0143" y2="144.3054" gradientTransform="matrix(-1.346898e-010 1 -1 -1.346898e-010 159.4708 2.4483)">
			<stop  offset="0" style="stop-color:#C7C7C7"/>
			<stop  offset="1" style="stop-color:#FFFFFF"/>
		</linearGradient>
		<path class="st36" d="M18.9,20.4h-7.5l-0.7,0.9c0.1,0.1,0.2,0.1,0.3,0.1h8.2c0.1,0,0.2,0,0.3-0.1L18.9,20.4z"/>
		
			<radialGradient id="SVGID_36_" cx="140.6215" cy="144.3143" r="3.2089" gradientTransform="matrix(1.346898e-010 -1 -1 -1.346898e-010 159.4708 159.4874)" gradientUnits="userSpaceOnUse">
			<stop  offset="0" style="stop-color:#F7F7F7"/>
			<stop  offset="1" style="stop-color:#DBDBDB"/>
		</radialGradient>
		<path class="st37" d="M10.6,18.4L10.6,18.4c0.2,0,0.3,0,0.4,0H10.6z"/>
		
			<linearGradient id="SVGID_37_" gradientUnits="userSpaceOnUse" x1="15.9381" y1="144.2479" x2="19.3361" y2="144.2479" gradientTransform="matrix(-1.346898e-010 1 -1 -1.346898e-010 159.4708 2.4483)">
			<stop  offset="0" style="stop-color:#363B39"/>
			<stop  offset="1" style="stop-color:#1B1C1C"/>
		</linearGradient>
		<path class="st38" d="M19.1,19.4l0.7-0.9c-0.1,0-0.3-0.1-0.4-0.1h-8.2c-0.1,0-0.2,0-0.3,0.1l0.7,0.9L19.1,19.4z"/>
		
			<linearGradient id="SVGID_38_" gradientUnits="userSpaceOnUse" x1="140.4774" y1="144.3056" x2="141.4368" y2="144.3056" gradientTransform="matrix(1.353363e-010 -1.0048 -1 -1.346898e-010 159.4708 160.7431)">
			<stop  offset="0" style="stop-color:#FFFFFF"/>
			<stop  offset="1" style="stop-color:#C7C7C7"/>
		</linearGradient>
		<path class="st39" d="M18.9,19.6l0.7-0.9c-0.1,0-0.2-0.1-0.3-0.1h-8.2c-0.1,0-0.2,0-0.3,0.1l0.7,0.9H18.9z"/>
		
			<linearGradient id="SVGID_39_" gradientUnits="userSpaceOnUse" x1="16.3154" y1="144.2006" x2="17.0584" y2="144.2006" gradientTransform="matrix(-1.346898e-010 1 -1 -1.346898e-010 159.4708 2.4483)">
			<stop  offset="0" style="stop-color:#F19706"/>
			<stop  offset="0.1441" style="stop-color:#FEDF3B"/>
			<stop  offset="0.8644" style="stop-color:#FDDB38"/>
			<stop  offset="0.8954" style="stop-color:#FBCF2F"/>
			<stop  offset="0.9511" style="stop-color:#F6B018"/>
			<stop  offset="1" style="stop-color:#F08F00"/>
		</linearGradient>
		<polygon class="st40" points="12,19.5 11.5,18.8 19.1,18.8 18.6,19.5 		"/>
		
			<linearGradient id="SVGID_40_" gradientUnits="userSpaceOnUse" x1="143.125" y1="144.2006" x2="143.868" y2="144.2006" gradientTransform="matrix(1.346898e-010 -1 -1 -1.346898e-010 159.4708 164.3936)">
			<stop  offset="0" style="stop-color:#F19706"/>
			<stop  offset="0.1441" style="stop-color:#FEDF3B"/>
			<stop  offset="0.8644" style="stop-color:#FDDB38"/>
			<stop  offset="0.8954" style="stop-color:#FBCF2F"/>
			<stop  offset="0.9511" style="stop-color:#F6B018"/>
			<stop  offset="1" style="stop-color:#F08F00"/>
		</linearGradient>
		<polygon class="st41" points="12,20.5 11.5,21.3 19.1,21.3 18.6,20.5 		"/>
		
			<radialGradient id="SVGID_41_" cx="-160.1017" cy="-4730.022" r="2.9096" gradientTransform="matrix(-3.426508e-011 0.2544 -2.4166 -3.254859e-010 -11415.2412 60.7327)" gradientUnits="userSpaceOnUse">
			<stop  offset="0.4237" style="stop-color:#FFFFFF"/>
			<stop  offset="0.6949" style="stop-color:#DBDBDB"/>
		</radialGradient>
		<rect x="11.4" y="19.6" class="st42" width="7.6" height="0.8"/>
		<g>
			<rect x="17.6" y="19.1" width="0.4" height="0.2"/>
			<rect x="16.8" y="19.1" width="0.4" height="0.2"/>
			<rect x="16" y="19.1" width="0.4" height="0.2"/>
			<rect x="15.2" y="19.1" width="0.4" height="0.2"/>
			<rect x="18" y="18.9" width="0.4" height="0.2"/>
			<rect x="17.2" y="18.9" width="0.4" height="0.2"/>
			<rect x="16.4" y="18.9" width="0.4" height="0.2"/>
			<rect x="15.6" y="18.9" width="0.4" height="0.2"/>
			<rect x="14.4" y="19.1" width="0.4" height="0.2"/>
			<rect x="13.6" y="19.1" width="0.4" height="0.2"/>
			<rect x="12.8" y="19.1" width="0.4" height="0.2"/>
			<rect x="12" y="19.1" width="0.4" height="0.2"/>
			<rect x="14.8" y="18.9" width="0.4" height="0.2"/>
			<rect x="14" y="18.9" width="0.4" height="0.2"/>
			<rect x="13.2" y="18.9" width="0.4" height="0.2"/>
			<rect x="12.4" y="18.9" width="0.4" height="0.2"/>
		</g>
		<g>
			<rect x="17.6" y="20.9" width="0.4" height="0.2"/>
			<rect x="16.8" y="20.9" width="0.4" height="0.2"/>
			<rect x="16" y="20.9" width="0.4" height="0.2"/>
			<rect x="15.2" y="20.9" width="0.4" height="0.2"/>
			<rect x="18" y="20.7" width="0.4" height="0.2"/>
			<rect x="17.2" y="20.7" width="0.4" height="0.2"/>
			<rect x="16.4" y="20.7" width="0.4" height="0.2"/>
			<rect x="15.6" y="20.7" width="0.4" height="0.2"/>
			<rect x="14.4" y="20.9" width="0.4" height="0.2"/>
			<rect x="13.6" y="20.9" width="0.4" height="0.2"/>
			<rect x="12.8" y="20.9" width="0.4" height="0.2"/>
			<rect x="12" y="20.9" width="0.4" height="0.2"/>
			<rect x="14.8" y="20.7" width="0.4" height="0.2"/>
			<rect x="14" y="20.7" width="0.4" height="0.2"/>
			<rect x="13.2" y="20.7" width="0.4" height="0.2"/>
			<rect x="12.4" y="20.7" width="0.4" height="0.2"/>
		</g>
		<g>
			<path d="M11,19.3l0,0.3l-0.1,0v-0.1l-0.3,0.1v-0.1l0.3-0.1L11,19.3L11,19.3z"/>
			<path d="M10.6,20L10.6,20l0.1-0.1l0-0.1l-0.1,0v-0.1l0.4,0.1v0.2L10.6,20z M10.7,19.8L10.7,19.8l0.2,0v0L10.7,19.8z"/>
			<path d="M11,20.5l-0.2-0.2l-0.2,0.1v-0.1l0.1-0.1v0l-0.1-0.1V20l0.2,0.1l0.2-0.1l0,0.1l-0.2,0.1v0l0.2,0.1L11,20.5z"/>
			<path d="M11,20.5v0.1l-0.4-0.1v-0.1L11,20.5z"/>
		</g>
		<g>
			<path d="M19.3,20.6l0-0.3l0.1,0v0.1l0.3-0.1v0.1l-0.3,0.1L19.3,20.6L19.3,20.6z"/>
			<path d="M19.7,19.9L19.7,19.9L19.6,20l0,0.1l0.1,0v0.1l-0.4-0.1V20L19.7,19.9z M19.6,20.2L19.6,20.2l-0.2,0v0L19.6,20.2z"/>
			<path d="M19.3,19.5l0.2,0.2l0.2-0.1v0.1l-0.1,0.1v0l0.1,0.1v0.1l-0.2-0.1l-0.2,0.1l0-0.1l0.2-0.1v0l-0.2-0.1L19.3,19.5z"/>
			<path d="M19.3,19.4v-0.1l0.4,0.1v0.1L19.3,19.4z"/>
		</g>
	</g>
</g>
</svg>
